<?xml version="1.0" encoding="UTF-8"?>
<!--
Soliguide: Useful information for those who need it

SPDX-FileCopyrightText: © 2024 Solinum

SPDX-License-Identifier: AGPL-3.0-only

This program is free software: you can redistribute it and/or modify
it under the terms of the GNU Affero General Public License as published
by the Free Software Foundation, either version 3 of the License, or
(at your option) any later version.

This program is distributed in the hope that it will be useful,
but WITHOUT ANY WARRANTY; without even the implied warranty of
MERCHANTABILITY or FITNESS FOR A PARTICULAR PURPOSE.  See the
GNU Affero General Public License for more details.

You should have received a copy of the GNU Affero General Public License
along with this program.  If not, see <https://www.gnu.org/licenses/>.
-->
<svg width="53" height="54" viewBox="0 0 53 54" fill="none" xmlns="http://www.w3.org/2000/svg">
<g id="Picto - paper">
<path id="Vector" d="M28.9724 50.1674C29.4122 49.5262 30.0574 49.5529 30.4972 48.3239C30.4972 48.3239 30.6732 48.3239 30.7318 48.3239C30.7905 48.3239 31.2597 48.3239 31.4943 47.843C31.7288 47.3621 32.1101 47.4957 32.2567 46.6674C32.4033 45.8392 32.7259 46.8812 32.9605 46.1331C33.1951 45.385 33.5176 45.5987 33.7815 45.198C34.0455 44.7972 34.632 44.7972 34.9838 44.156C35.3357 43.5148 35.8636 43.2743 36.3034 42.8469L37.711 41.511L39.0599 40.282L40.3795 39.0263L41.7284 37.7973C42.1976 37.3164 42.6081 36.8088 43.5172 37.3965C43.5172 37.3965 43.7225 37.3965 43.7225 37.263C43.1946 35.6866 44.045 35.6065 44.7488 35.2859C44.9541 35.2859 44.9834 34.805 45.1594 34.6447L49.558 30.6104L49.8219 30.4768V31.9997C49.8467 31.876 49.8467 31.7493 49.8219 31.6256C49.8219 31.4653 49.646 31.1714 49.4407 31.1981C48.5023 31.1981 48.385 30.5302 47.8865 30.2096C47.388 29.889 47.8865 29.7821 47.8865 29.5417C47.8865 29.3012 48.0331 29.1142 47.6812 29.2745C47.3294 29.4348 46.8015 29.2745 46.5376 28.9806C46.2009 28.6108 45.817 28.2789 45.3939 27.9921C44.9248 27.6982 44.9834 27.057 44.4849 26.8165C44.0506 26.571 43.6388 26.294 43.2533 25.9883C43.1484 25.887 43.0505 25.7799 42.96 25.6677V25.4806V24.1181C43.4585 24.1181 44.0157 24.1181 43.6931 23.3433C43.6931 23.1562 43.8691 22.9959 44.0157 22.8623L49.8512 17.1449V18.8013L42.139 11.8548C41.7284 11.4808 42.139 10.7327 41.875 10.519C41.6111 10.3052 40.878 10.706 40.5261 10.3587C39.3532 9.15639 38.0629 8.0877 36.8313 6.93886C36.7007 6.7354 36.5926 6.5206 36.5087 6.29765C36.5087 6.16406 36.5087 5.95032 36.2741 5.9236C34.8079 5.62971 34.2507 4.45415 33.3417 3.67935L32.5499 3.01142H34.3974L32.4913 4.77476C32.3735 4.85709 32.2292 4.90171 32.0807 4.90171C31.9323 4.90171 31.788 4.85709 31.6702 4.77476C31.3183 4.77476 31.201 4.77476 31.3183 5.06865C31.4356 5.36254 31.3183 5.70986 30.8198 5.89689C30.1849 6.14058 29.6797 6.60083 29.4122 7.17932C29.2656 7.47321 28.4445 7.17932 28.7964 7.84725C29.1483 8.51518 28.2393 8.0877 27.9753 8.248C27.4592 8.49387 27.0467 8.88841 26.8024 9.37013C26.7662 9.48115 26.6933 9.57926 26.5935 9.65101C26.4938 9.72276 26.3721 9.76464 26.2452 9.77089C25.8347 9.77089 25.3948 9.77089 25.5121 10.3854C25.6294 10.9999 24.779 10.8129 24.779 11.1869C24.779 11.5609 24.3098 11.5075 24.1632 11.6945C24.0166 11.8816 23.9579 12.4426 23.694 12.4159C23.4301 12.3892 23.0489 12.8167 22.7263 13.0037C22.4037 13.1907 22.1398 13.351 22.3158 13.8586C22.3158 13.8586 21.9932 13.8586 21.8172 13.8586C21.6413 13.8586 20.8495 13.8586 21.1721 14.6067C21.1721 14.7937 21.0255 14.9808 20.8789 15.1143L17.5652 18.1601C17.3306 18.3471 17.184 18.6143 16.6855 18.4006C16.6855 19.309 15.7764 19.496 15.5419 20.2173C15.5419 20.4311 15.3659 20.6982 15.1606 20.7784C14.2223 21.1792 14.3102 21.2326 13.6944 22.0875C13.2525 22.8698 12.5121 23.4779 11.6124 23.7975C11.3316 23.9419 11.0909 24.1429 10.9086 24.3852C10.762 24.5723 10.762 24.8661 10.5861 25.0264C10.4101 25.1867 9.88227 25.3738 9.61836 25.6409C9.35444 25.9081 9.14917 26.2822 8.88525 26.576C8.5655 26.9075 8.22268 27.2198 7.8589 27.5112L6.94985 28.3661L6.01147 29.1943L5.10242 30.0493C4.99044 30.1244 4.89158 30.2144 4.80918 30.3165C4.48661 30.6638 3.25499 30.0226 3.43094 30.7172C3.49041 30.9003 3.49041 31.0952 3.43094 31.2783V29.3814C3.71063 29.4817 4.01038 29.5272 4.31067 29.5149C4.37288 29.5061 4.43657 29.514 4.49388 29.5378C4.5512 29.5615 4.59964 29.6 4.63323 29.6485C4.80918 29.8623 4.89715 30.1562 5.10242 30.3165C5.37413 30.5425 5.68033 30.7315 6.01147 30.8775C6.30472 31.0378 6.21674 31.5722 6.39269 31.7325C7.0085 32.2134 7.27242 33.1218 8.29876 33.0416C8.38786 33.0526 8.47054 33.0899 8.53411 33.1478C8.59768 33.2057 8.63862 33.2811 8.65066 33.3622C8.8266 33.8699 8.91457 34.5111 9.67701 34.2973C9.67701 34.2973 9.677 34.5378 9.88227 34.6981C10.0875 34.8584 9.88227 35.0187 9.88227 35.0721C10.3328 35.2808 10.7643 35.5221 11.1725 35.7935C11.5244 36.0607 11.3778 37.0759 12.1109 36.8355H12.2575C12.2575 37.824 13.2546 37.5034 13.2839 38.5187C13.3132 39.5339 13.6651 39.3202 14.0463 39.3736C15.3073 39.5874 16.0697 40.7896 16.9787 41.8049C16.9787 41.8049 16.9787 42.0186 17.2427 42.0453C17.5066 42.0721 17.6825 42.4194 17.8878 42.6598C18.0931 42.9003 18.0931 43.2209 18.2104 43.2209C19.0314 43.2209 19.5593 43.9957 20.1458 44.9842C20.2706 45.2465 20.4597 45.4792 20.6986 45.6644C20.9376 45.8497 21.2199 45.9826 21.524 46.0529C21.9639 46.0529 22.4917 46.5338 22.8436 47.4689C22.8976 47.605 22.9769 47.7316 23.0782 47.843C23.1752 47.9906 23.3127 48.1126 23.4773 48.197C23.6419 48.2813 23.8277 48.3251 24.0166 48.3239C24.1925 49.259 24.4564 49.0453 24.7497 49.0453C25.0429 49.0453 25.3362 49.8201 25.6001 50.3544C25.864 50.8888 25.8053 50.9956 25.9813 50.862C26.1572 50.7285 26.5385 51.3162 26.773 52.0109C27.0076 52.7055 27.0076 52.759 26.773 52.8391C26.5385 52.9193 26.773 53.8277 26.3918 53.3735C26.1769 53.0067 25.8998 52.673 25.5708 52.3849C25.2775 52.1979 24.9843 52.3849 24.691 52.2246C24.3978 52.0643 24.3098 51.9307 24.1045 51.7437C23.6554 51.3975 23.234 51.0225 22.8436 50.6216C22.4624 50.114 22.0225 50.2743 21.612 49.633C21.2014 48.9918 20.7909 48.8582 20.3804 48.4842L19.0021 47.2819C18.6037 46.8964 18.1828 46.5307 17.7412 46.1865C17.2427 45.8125 16.8615 45.1713 16.2163 45.2781C15.5712 45.385 15.6298 45.0377 15.5712 44.6904C15.3659 43.7552 14.8087 43.6484 14.3689 43.2476C13.929 42.8469 13.6358 42.3659 13.0786 42.3392C12.5215 42.3125 12.6681 41.6713 12.4042 41.4843L8.88525 38.8126C8.70581 38.7069 8.5512 38.5699 8.43038 38.4093C8.30956 38.2488 8.22496 38.068 8.18147 37.8774C8.18147 37.45 7.47768 37.4233 7.06715 37.2095C6.65661 36.9958 7.06715 36.2477 6.39269 36.1943C5.91207 36.0788 5.47154 35.854 5.11248 35.5409C4.75341 35.2278 4.48759 34.8366 4.33999 34.4042C4.33999 34.1637 4.1054 33.8431 3.8708 33.8431C2.75648 33.8431 2.46324 32.8813 1.75946 32.4004C1.58351 32.2668 1.55419 31.9462 1.46621 31.7058C1.37824 31.4653 1.26094 31.4386 1.02635 31.3317L0 31.0378L0.997025 29.4348C0.997025 29.2478 1.29027 29.0073 1.34892 28.8737C1.70919 28.4475 2.1337 28.0697 2.60986 27.7516C2.60986 27.7516 3.07905 27.7516 3.07905 27.5913C3.07905 26.8165 4.25202 27.0035 4.36931 26.2287C4.44998 25.9658 4.59856 25.7244 4.80263 25.5245C5.00669 25.3246 5.26032 25.1722 5.54229 25.0799C5.79326 24.9261 6.05813 24.792 6.33404 24.6791C6.83255 24.6791 6.48066 23.8509 7.15512 23.8242C7.82958 23.7975 7.8589 23.2631 8.21079 22.9692L9.23714 22.0341L10.2342 21.099C10.5861 20.7784 10.9086 20.4578 11.2605 20.1639C11.6124 19.87 11.847 19.2822 12.6388 19.3624C12.4628 18.6677 13.1373 18.5609 13.4598 18.2135C13.5666 18.0322 13.7285 17.8828 13.9262 17.7833C14.1238 17.6838 14.3488 17.6383 14.5742 17.6525C14.8088 17.6525 14.9554 17.3853 15.3366 17.4922C15.7178 17.599 15.4832 17.1181 15.3366 16.8777C15.19 16.6372 15.3366 16.2097 15.8058 16.3701C15.8058 16.3701 16.011 16.3701 16.0697 16.1563C16.6269 15.0342 16.7735 14.9006 18.0931 14.3663C18.3277 14.3663 18.4156 13.9655 18.6796 13.8853C18.9435 13.8052 19.0021 12.8434 20.0285 13.5113C20.0285 13.5113 20.1751 13.351 20.0285 13.2441C19.9308 13.0875 19.9037 12.9024 19.953 12.728C20.0022 12.5535 20.1239 12.4033 20.2924 12.309C20.6736 11.9884 20.9668 11.5075 21.4654 11.3739C21.9639 11.2403 21.8466 10.6793 22.2571 10.4923C22.6677 10.3052 22.9902 9.82432 23.4008 9.50372C23.5817 9.33791 23.82 9.2341 24.0752 9.20983C24.4271 9.20983 24.3391 8.99609 24.4271 8.80907C24.5151 8.62205 24.8376 8.32816 25.0722 8.16785C25.3068 8.00755 25.7467 7.98083 25.7174 7.84725C25.5414 7.25947 25.952 7.12588 26.2452 6.91214C27.0956 6.35108 27.4475 5.22895 28.7671 5.12209C28.7671 5.12209 28.7671 4.90835 28.7671 4.77476C28.7671 4.64117 29.0603 4.26713 29.5295 4.29385C29.9987 4.32057 30.7318 4.56102 29.8814 3.67935C29.8814 3.67935 29.8814 3.46562 29.8814 3.35875C30.3799 2.74425 31.2303 2.42364 31.4356 1.51526C31.4356 1.32824 31.6409 1.24808 31.8461 1.16793L33.7229 0.5L34.0161 1.16793C34.0691 1.41749 34.179 1.65414 34.3387 1.86258C35.0132 2.55723 35.7756 3.17173 36.4501 3.83966C36.714 4.10683 37.2418 4.2137 37.0952 4.85491C37.0952 4.85491 37.5937 4.85491 37.7696 5.04193C37.9456 5.22895 38.5321 6.03047 39.3825 5.97704C39.5291 5.97704 39.5584 6.24421 39.6464 6.3778C39.7344 6.51138 39.6464 6.91214 39.881 6.91214C40.8487 6.91214 40.966 7.49992 41.2299 8.14114C41.4938 8.78235 42.2269 8.80907 42.3149 9.55715C42.4029 10.3052 43.1653 9.98463 43.6345 10.1716C44.1037 10.3587 43.9277 10.1716 43.9277 10.1716C43.9277 11.1869 44.8954 11.2403 45.2473 11.9083C45.5992 12.5762 46.4203 12.2022 46.391 12.9235C47.388 12.4693 46.9775 13.5647 47.6226 13.6182C47.8976 13.6513 48.153 13.7661 48.3491 13.9448C48.5453 14.1235 48.6713 14.3561 48.7076 14.6067C48.7076 15.1143 49.0888 15.3014 49.3527 15.5953C49.6166 15.8891 49.8219 16.2365 50.4084 16.1563C50.2031 16.7975 50.7603 16.9044 51.0535 17.1449L51.9626 18.0265L51.0535 18.7479C50.731 18.9883 50.2325 19.1219 50.4084 19.7631C50.4084 19.7631 50.2618 19.9502 50.1152 19.9234C49.4993 19.9234 49.2648 20.1105 49.2941 20.6715C49.2941 20.8051 49.2941 20.9387 49.1181 20.9654C48.9422 20.9921 48.2091 21.1792 48.2677 21.7669C47.6226 21.5799 47.6226 21.954 47.5639 22.3814C47.5053 22.8089 46.5669 22.5685 46.5083 22.9425C46.4496 23.3165 46.3616 23.5837 45.8338 23.6371C45.306 23.6906 45.218 24.1982 44.8075 24.3585C44.5585 24.4413 44.3323 24.5726 44.1449 24.7434C43.9575 24.9141 43.8133 25.1202 43.7225 25.3471V23.8242L44.4556 23.9578C44.4556 23.9578 44.4556 24.2784 44.6315 24.3852C44.8075 24.4921 44.9541 24.3852 45.0421 24.3852C45.13 24.3852 45.0421 24.7058 45.0421 24.8127C45.0421 24.9196 45.3646 25.0264 45.3353 25.1867C45.306 25.3471 45.3353 25.6409 45.8631 25.6944C46.391 25.7478 47.1241 25.6944 46.9188 26.4692C46.9188 26.7898 47.4466 26.9501 47.6812 27.244C47.9158 27.5379 48.4437 27.5379 48.2677 28.1256C48.2677 28.1256 48.2677 28.4195 48.4437 28.4195C49.7339 28.4195 49.9685 29.1943 50.3204 29.9424C50.3204 29.9424 50.3204 29.9424 50.3204 30.1027C50.3896 30.0707 50.4652 30.0515 50.5426 30.0463C50.62 30.041 50.6978 30.0499 50.7714 30.0722C50.8451 30.0946 50.9131 30.1301 50.9716 30.1766C51.0301 30.2231 51.0779 30.2797 51.1122 30.3432L51.9333 31.305L51.1122 31.8928C50.9972 31.9418 50.9017 32.0221 50.8387 32.1225C50.7757 32.223 50.7483 32.3387 50.7603 32.4538C50.7603 32.8546 50.6137 32.8546 50.2324 32.8546C49.8512 32.8546 49.7339 33.0683 49.7926 33.5225C49.8512 33.9767 49.3234 33.5225 49.1181 33.7363C48.9129 33.95 48.473 34.0569 48.473 34.3508C48.473 35.1523 47.8279 35.2057 47.5346 35.6866C47.2414 36.1675 46.7722 35.6866 46.8895 36.221C46.8895 36.3813 46.3323 36.221 46.0977 36.4882C45.813 36.6894 45.548 36.9129 45.306 37.1561C45.0762 37.3476 44.8607 37.5529 44.6608 37.7706C44.3969 38.1446 43.8691 37.637 43.6345 37.7706C43.3999 37.9042 43.7811 38.6522 43.4292 38.8927C42.826 39.3429 42.3528 39.9208 42.051 40.5759C41.875 40.8965 41.3472 40.7629 41.0833 41.0034C40.8194 41.2438 39.881 41.6446 39.6757 42.7133C39.6757 42.8469 39.4998 43.0072 39.4118 42.9804C38.8546 42.7133 38.5907 43.2209 38.2682 43.5148C37.9456 43.8087 37.4471 43.8621 37.3884 44.7171C37.3884 44.7171 37.2125 44.8774 37.0952 44.8507C36.9779 44.8239 36.5673 44.8507 36.4207 45.4651C36.2741 46.0796 36.0688 45.9728 36.0102 45.8926C35.5703 45.3048 35.5703 46.3735 35.2771 46.4003C35.0921 46.4124 34.9145 46.4714 34.7643 46.5705C34.614 46.6696 34.4971 46.805 34.4267 46.9613C34.0455 47.8964 33.459 47.656 33.0191 48.1369C32.5458 48.6316 32.0257 49.0876 31.4649 49.4995C31.3183 49.4995 31.1717 49.4995 31.0251 49.4995C30.8784 49.4995 30.8198 49.1521 30.7318 49.4995C30.4386 50.7285 29.9107 50.8888 29.4122 51.0491C29.1289 51.2019 28.8881 51.4121 28.7085 51.6636C28.5354 51.8464 28.3967 52.054 28.2979 52.2781C28.0047 52.8124 27.7114 51.7971 27.4768 52.9193C27.2422 52.7055 26.949 53.1063 26.6851 53.2666C26.4212 53.4269 26.4798 53.2666 26.4212 53.0261C26.452 52.7982 26.511 52.5741 26.5971 52.3582C26.8903 51.9307 27.0663 51.2628 27.4182 51.0758C27.9564 50.8027 28.4755 50.4993 28.9724 50.1674Z" fill="#F2705A"/>
<path id="Vector_2" d="M49.8512 30.9844C49.6166 30.9844 50.2617 30.8508 49.4406 30.7974H49.6752C50.379 30.7974 50.2031 30.7974 49.8805 30.7974C49.5579 30.7974 50.0858 30.7974 49.4406 30.7974C48.7955 30.7974 50.0565 30.7974 49.4406 30.7974C48.8248 30.7974 49.4406 30.7974 49.294 30.7974C49.1474 30.7974 49.6752 30.7974 49.294 30.6371C48.9128 30.4768 49.294 30.6371 49.294 30.4768V29.8088C49.294 29.8088 49.1474 29.6752 50.291 29.6485C48.6782 29.6485 49.206 29.6485 49.4993 29.4615C49.7925 29.2745 49.2647 29.4615 49.2647 29.4615V28.9272C49.2647 28.9272 49.4993 28.9272 49.5579 28.9272C49.6166 28.9272 49.7632 28.9272 49.5579 28.9272C48.8248 28.9272 49.3233 28.9272 49.2354 28.7668H49.8512C50.0271 28.7668 50.3204 28.7668 49.8512 28.7668C49.382 28.7668 49.2647 28.7668 49.2647 28.7668C49.2647 28.7668 49.2647 28.7668 49.2647 28.6333C49.2647 28.4997 49.6752 28.6333 49.5286 28.6333L49.294 28.4997C49.294 28.4997 49.294 28.4997 49.5286 28.4997C49.7632 28.4997 50.291 28.4997 49.5286 28.4997C49.3527 28.4997 49.382 28.4997 49.382 28.4997C49.4259 27.9482 49.4259 27.3946 49.382 26.8432C49.382 26.8432 50.3497 26.8432 50.2324 26.8432C50.1151 26.8432 49.382 26.8432 49.4113 26.8432C49.4406 26.8432 49.4113 26.5493 49.4113 26.4157H49.6752H49.8512C49.0301 26.4157 49.5579 26.202 49.47 26.0951C49.382 25.9883 49.47 25.8814 49.47 25.7745C49.47 25.6676 49.47 25.7745 49.9685 25.7745C50.3497 25.7745 50.467 25.7745 49.9685 25.7745C49.5873 25.7745 49.5286 25.7745 49.7046 25.7745C49.8805 25.7745 49.9685 25.7745 49.7046 25.6142C49.4406 25.4539 50.4377 25.6142 49.7046 25.6142C48.9715 25.6142 49.9098 25.6142 49.9685 25.6142C50.0271 25.6142 50.2031 25.6142 49.9685 25.4806C49.3527 25.4806 50.1444 25.4806 49.9685 25.4806C49.9685 25.4806 49.5286 25.4806 49.7339 25.4806C49.9392 25.4806 49.8805 25.4806 49.9685 25.4806C50.0565 25.4806 50.1151 25.4806 49.5873 25.4806C49.5873 25.4806 49.7632 25.4806 49.8805 25.4806C49.9978 25.4806 50.5256 25.4806 49.7339 25.4806C49.5579 25.4806 49.5579 25.4806 49.5579 25.4806V25.0799C49.5579 25.0799 49.5579 25.0799 49.9685 25.0799C49.2647 25.0799 49.7925 24.9463 49.382 24.8928C48.9715 24.8394 49.1181 24.8928 49.206 24.8928C49.294 24.8928 49.4406 24.8928 49.206 24.7325C48.9715 24.5722 48.8835 24.5722 49.206 24.4921H48.9421H49.1474C49.1474 24.4921 48.9715 24.4921 48.9421 24.4921V24.1448C48.9421 24.1448 50.2617 24.1448 49.5873 24.1448C48.9128 24.1448 49.1181 24.1448 48.6489 24.1448C48.1797 24.1448 48.5023 24.1448 48.6489 24.1448H48.8248C48.8248 24.1448 48.8248 24.1448 48.6196 24.1448C48.4143 24.1448 49.0008 24.1448 49.0008 24.1448C49.0008 24.1448 49.47 23.9845 48.6489 23.931C48.6489 23.931 49.382 23.931 48.6489 23.7974H49.0301C49.0301 23.7974 48.6782 23.7974 48.6489 23.6639C48.6196 23.5303 49.5286 23.6639 48.7955 23.5303C49.5873 23.5303 48.5609 23.5303 49.382 23.37C49.7339 23.37 50.2031 23.2097 49.382 23.37C48.5902 23.2364 48.9715 23.1295 49.1181 22.9959C49.1181 22.9959 49.4113 22.9959 49.3233 22.9959C48.7075 22.9959 48.8835 22.8356 49.3233 22.7555C49.7632 22.6753 49.4993 22.7555 49.1181 22.5952C48.7369 22.4349 48.6782 22.5952 49.2647 22.4349H49.4113C49.5579 22.4349 49.2647 22.4349 49.0008 22.3013C49.294 22.3013 49.7632 22.3013 49.0008 22.3013C48.7075 22.3013 49.206 22.3013 49.4993 22.3013C49.7925 22.3013 49.9978 22.3013 49.6752 22.3013C48.9128 22.3013 49.6752 22.3013 50.1151 22.3013H50.9655C51.2001 22.3013 52.0505 22.3013 51.9039 22.3013C51.7573 22.3013 51.552 22.3013 51.64 22.3013C51.8544 22.3229 52.0707 22.3229 52.2851 22.3013C52.2851 22.3013 52.2851 22.3013 52.2851 22.4616C52.2851 22.6219 52.637 22.4616 52.2851 22.4616C51.9332 22.4616 52.2851 22.4616 52.2851 22.5952V22.7555C52.2851 22.7555 52.2851 22.7555 52.2851 22.9158C52.2851 23.0761 52.0505 22.9158 52.6663 23.0494C52.9009 23.0494 53.2821 23.1829 52.6663 23.0494C52.4317 23.0494 52.3144 23.0494 52.3144 23.2097C52.3144 23.37 52.1091 23.2097 52.4904 23.3432C52.8716 23.4768 52.2558 23.3432 52.2851 23.3432L52.6663 23.7173C52.6663 23.7173 52.6663 23.7173 52.4024 23.7173C52.1385 23.7173 52.5783 23.7173 52.6956 23.7173C52.8129 23.7173 51.9919 23.7173 52.3731 23.7173C52.7543 23.7173 52.7836 23.8509 52.3731 23.931C51.9625 24.0112 52.1091 23.931 52.3731 23.931C53.1355 23.931 52.6077 24.0646 52.725 24.118C52.8423 24.1715 52.5197 24.118 52.4024 24.118C52.2851 24.118 52.4024 24.118 52.5783 24.118C52.7543 24.118 52.5783 24.118 52.5783 24.2516C52.5783 24.3852 52.2851 24.2516 52.3437 24.2516C52.9302 24.2516 51.9918 24.2516 52.4904 24.4119C52.9889 24.5722 52.7836 24.4119 52.4904 24.5455H52.2264C51.9625 24.5455 52.7836 24.5455 52.2264 24.5455V24.786C52.2264 24.786 52.2264 24.786 52.2264 24.9196C52.2264 25.0532 52.5197 24.9196 51.9039 25.0531C52.5783 25.0531 52.1678 25.0531 52.2264 25.0531C52.2851 25.0531 52.2264 25.0531 51.8746 25.0531H51.4347H51.8452C52.2851 25.0531 52.4317 25.0531 51.8452 25.0531C52.3144 25.0531 52.3144 25.0531 51.8452 25.2936C51.8452 25.2936 52.4317 25.2936 51.1708 25.2936H51.3174C51.9039 25.2936 51.8746 25.2936 51.8746 25.2936C51.8746 25.2936 52.0212 25.2936 51.8746 25.4272C51.7279 25.5608 52.1385 25.4272 52.0212 25.4272C51.9039 25.4272 52.0212 25.4272 52.0212 25.5608H51.7573C51.7573 25.5608 51.4054 25.5608 51.552 25.5608C51.6986 25.5608 51.9332 25.5608 51.9039 25.5608C51.8746 25.5608 52.3731 25.7478 51.5227 25.828C51.5227 25.828 51.5227 25.828 51.7279 25.828C51.9332 25.828 51.9039 25.828 51.552 25.828C51.2001 25.828 50.5256 25.828 51.7866 25.828C51.7866 25.828 51.5813 25.9615 52.1678 26.0417C52.7543 26.1218 51.8452 26.0417 51.8159 26.0417C51.7866 26.0417 51.8159 26.202 51.8159 26.2821C51.8159 26.3623 52.0798 26.2821 51.4933 26.2821H51.8159C51.8159 26.2821 51.5813 26.2821 52.2264 26.4424H51.9039C52.637 26.4424 52.2264 26.4424 51.9039 26.6028C51.5813 26.7631 52.1091 26.6027 51.5813 26.7631C51.0535 26.9234 51.8452 26.7631 52.0212 26.8966H52.2851C51.4054 26.8966 52.2851 26.8966 51.8746 27.0837C51.464 27.2707 52.461 27.0837 51.8746 27.244C52.9302 27.244 51.8746 27.244 52.2264 27.244C52.5783 27.244 52.5783 27.244 52.2264 27.3776C51.8746 27.5111 51.9332 27.3776 51.9039 27.3776C51.8746 27.3776 51.7279 27.3776 52.2264 27.3776C51.5813 27.3776 51.9039 27.3776 51.9039 27.3776C51.9039 27.3776 51.5813 27.3776 52.2558 27.3776C51.7573 27.3776 51.9918 27.3776 52.2558 27.3776C51.64 27.3776 51.9039 27.3776 52.2558 27.3776C52.6077 27.3776 51.6986 27.3776 51.9039 27.3776C52.1091 27.3776 52.3437 27.3776 51.9039 27.3776C51.464 27.3776 51.9039 27.3776 51.7279 27.3776C51.552 27.3776 51.552 27.5111 52.1091 27.5646H51.9039C51.9039 27.5646 52.1385 27.5646 52.1091 27.5646H51.9039C52.1971 27.5646 52.8716 27.5646 52.0505 27.5646C52.0505 27.5646 52.3437 27.5646 51.7866 27.5646C51.2294 27.5646 51.6106 27.5646 51.7866 27.5646C52.7543 27.5646 52.2558 27.6982 51.7866 27.7783H51.64C52.461 27.7783 51.64 27.7783 52.1971 27.9119C52.4317 27.9119 52.7543 28.0455 52.1971 27.9119C51.9625 27.9119 52.0212 27.9119 52.4024 27.9119C52.7836 27.9119 52.1385 27.9119 52.1091 27.9119C51.9039 27.9119 52.0798 27.9119 52.1091 27.9119C52.3144 27.9119 52.3144 27.9119 52.4904 28.0455C51.8452 28.0455 52.6663 28.1791 52.4904 28.0455H52.1385C52.1385 28.0455 51.464 28.0455 51.376 28.0455C51.2881 28.0455 52.1678 28.0455 52.1385 28.0455C52.1091 28.0455 52.1385 28.0455 52.4904 28.2325C52.8423 28.4195 52.1091 28.2325 52.1385 28.2325C52.1678 28.2325 51.7573 28.2325 52.5197 28.4195C51.9039 28.4195 52.1091 28.4195 52.1385 28.4195C52.1678 28.4195 51.8159 28.4195 52.5197 28.4195C52.1091 28.4195 52.1385 28.4195 52.5197 28.4195C52.6956 28.4195 52.9302 28.4195 52.5197 28.4195C51.6106 28.4195 52.5197 28.4195 52.3731 28.4195C52.2264 28.4195 51.9625 28.4195 52.1971 28.4195C52.4317 28.4195 52.0505 28.4195 52.1971 28.5798C52.3437 28.7401 52.1971 28.5798 52.1971 28.7401H51.7573C51.7573 28.7401 51.2294 28.7401 51.5813 28.7401C52.549 28.7401 52.2558 28.7401 51.9625 28.9004H52.2558C51.2001 28.9004 52.549 28.9004 52.2558 28.9004C51.7866 28.9004 51.9625 28.9004 51.8746 28.9004H50.7896C50.6136 28.9004 50.1151 28.9004 50.2031 28.9004C50.291 28.9004 49.8512 31.0378 49.8512 30.9844Z" fill="#F2705A"/>
<path id="Vector_3" d="M40.8781 21.099C40.6728 21.099 41.0834 20.7516 40.4382 21.099L40.5849 20.9387C41.054 20.4845 40.9367 20.5646 40.5849 20.7516C40.233 20.9387 40.5848 20.5646 40.2036 20.9654C39.8224 21.3661 40.6142 20.5379 40.2036 20.8318C39.7931 21.1257 40.2036 20.8318 40.0277 20.8318C39.8517 20.8318 40.2036 20.5379 40.0277 20.8318C39.8517 21.1257 40.0277 20.8318 39.8811 20.8318H39.7344C39.7344 20.8318 39.5585 20.8318 40.3503 20.0837C39.1773 21.099 39.4999 20.7249 39.6465 20.4845C39.7931 20.244 39.4705 20.4845 39.4412 20.4845C39.2999 20.3824 39.172 20.2659 39.06 20.1371L39.2066 19.9234C38.6495 20.3509 38.972 19.9234 38.8547 19.9234C38.9404 19.7996 39.0386 19.6833 39.148 19.5761C39.148 19.5761 39.4705 19.2822 39.148 19.5761C38.8254 19.87 38.7081 19.9234 38.6788 19.8967C38.6495 19.87 38.6788 19.7631 38.6788 19.8967C38.6788 20.0303 38.9134 19.5761 38.6788 19.6295C38.5936 19.6581 38.5 19.6581 38.4149 19.6295C38.4149 19.6295 38.4149 19.6295 38.4149 19.4425C38.4149 19.2555 38.9134 18.9081 38.4149 19.4425C38.4149 19.4425 37.6524 18.7211 37.2126 18.4005C36.7727 18.0799 37.8284 17.7593 37.7111 17.8127C37.5067 17.9763 37.2912 18.128 37.0659 18.2669C37.0659 18.1066 36.89 18.0799 36.802 17.973C36.714 17.8662 36.802 17.8395 36.802 17.7593C36.802 17.6792 36.9486 17.599 36.802 17.7593C36.1569 18.2135 36.4501 17.7593 36.3035 17.7593C36.1569 17.7593 36.3035 17.6257 36.0689 17.5723C35.8343 17.5189 36.0689 17.5723 36.3622 17.225C36.6261 16.9578 36.6554 16.8776 36.3622 17.225C36.0982 17.4921 36.0396 17.4654 36.1276 17.225C36.1276 16.9845 36.2155 16.9845 36.1276 17.225C36.1276 17.4654 36.6261 16.7173 35.9809 17.225C35.3358 17.7326 35.9809 17.0379 36.1276 16.9845C36.1276 16.7708 36.2742 16.9311 36.1276 16.9845C35.6877 17.412 36.1276 16.8242 36.1276 16.9845C36.1276 16.9845 35.7757 17.225 35.893 16.9845C36.0103 16.7441 35.893 16.8242 35.893 16.7708C35.893 16.7173 35.893 16.6105 35.5411 16.9578L35.7464 16.7441C35.7464 16.5837 36.1569 16.2899 35.5704 16.7441H35.4238L35.1305 16.5036C35.1305 16.5036 35.1305 16.5036 35.3651 16.183C34.8373 16.5837 35.1599 16.183 34.8373 16.4234C34.5147 16.6639 34.632 16.5837 34.6614 16.4234C34.6614 16.2097 34.6907 16.2631 34.6614 16.4234C34.6614 16.6372 34.3388 16.4234 34.6614 16.183C34.6614 16.183 34.4561 16.3433 34.4268 16.3166C34.3974 16.2899 34.4268 16.1563 34.4268 16.1296C34.4268 16.1028 34.2508 16.1296 34.1922 16.1296C34.1922 16.1296 35.0719 15.2212 34.6027 15.6219C34.1335 16.0227 34.1922 15.8891 33.8403 16.183V16.0227C33.8403 16.0227 33.8403 16.0227 33.635 16.0227C33.4297 16.0227 33.8696 15.7555 33.8403 15.7288C33.811 15.7021 34.0749 15.3548 33.4591 15.7288C33.4591 15.7288 33.6057 15.5685 33.4591 15.5685C33.3124 15.5685 32.2568 14.8204 32.2568 14.8204C32.2568 14.8204 32.8139 14.2059 32.2568 14.6601C32.7846 14.099 31.9928 14.6601 32.55 14.1792C33.1072 13.6983 32.7553 13.912 32.55 14.0456C32.3447 14.1792 32.1101 14.0456 32.1101 14.0456C32.1101 14.0456 32.3154 13.8319 32.1101 13.8853C31.9049 13.9387 31.6703 14.0723 31.9049 13.7517C32.1395 13.4311 31.9049 13.5647 31.641 13.7517C31.377 13.9387 31.2304 13.9387 31.641 13.538C31.641 13.4044 31.4943 13.538 31.2891 13.6983C31.2891 13.4845 31.7876 13.2174 31.2891 13.6983C31.2891 13.912 31.2891 13.5113 31.553 13.2975C31.8169 13.0838 31.8755 12.9769 31.553 13.1639C31.2304 13.351 31.553 13.1639 31.8169 12.8166C31.989 12.6104 32.1857 12.4222 32.4034 12.2556C32.5793 12.122 33.1658 11.5609 33.0778 11.6945C32.9899 11.8281 32.9019 11.9349 33.0778 11.9082C33.2538 11.8815 33.4884 11.6411 33.635 11.5609C33.4884 11.5609 33.9869 11.3739 33.811 11.5609C33.811 11.5609 33.8109 11.7746 34.1922 11.4273C34.3974 11.4273 34.5734 11.08 34.1922 11.4273C33.9869 11.4273 34.0162 11.7212 34.0455 11.7479C34.0749 11.7746 34.0455 11.9349 34.2801 11.7479C34.5147 11.5609 34.2801 11.9349 34.2801 11.9349H35.1892C35.1892 11.9349 35.1892 11.9349 35.1892 12.1487C35.1892 12.1487 34.72 12.6563 35.0132 12.4426C35.3065 12.2288 35.4238 12.2556 35.2185 12.4426C35.0132 12.6296 35.0719 12.6563 35.2185 12.4426C35.805 11.9884 35.4824 12.4426 35.6291 12.4426L35.4531 12.683C35.4531 12.683 35.4531 12.683 35.6584 12.683C35.6584 12.683 35.4531 12.8968 35.6584 12.8433C35.8636 12.7899 35.4824 13.1372 35.8636 12.8433C36.2449 12.5494 36.1276 12.8433 36.0103 12.8433C35.893 12.8433 36.0103 12.8433 36.0103 13.0571C36.0103 13.2708 36.4501 12.7632 36.1569 13.0571C36.1569 13.0571 36.4208 13.0571 36.0103 13.351C36.5088 12.9502 36.2449 13.351 36.3328 13.2174C36.4208 13.0838 36.3328 13.2174 36.1276 13.5113C35.9223 13.8052 36.1276 13.5113 35.893 13.8319L36.2155 13.5914C36.5088 13.3242 36.6554 13.2441 36.2155 13.5914C36.2155 13.5914 36.6261 13.3777 36.2155 13.7784C36.2155 13.7784 36.714 13.4311 35.8343 14.2593C36.2449 13.912 36.2449 13.9387 36.2742 13.9655C36.3035 13.9922 36.4208 13.9655 36.2742 14.1258C36.1276 14.2861 36.5088 13.9922 36.4501 14.1258C36.4501 14.1258 36.4501 14.1258 36.3035 14.3395C36.3035 14.3395 36.0982 14.6067 36.3035 14.5265C36.5088 14.4464 36.6261 14.3128 36.5968 14.3662C36.5674 14.4196 37.0659 14.1792 36.5968 14.767C36.9193 14.5265 36.7727 14.767 36.5968 14.9273C36.4208 15.0876 35.893 15.6219 36.802 14.9273C36.802 14.9273 36.802 15.141 37.2126 14.9273C37.6231 14.7135 37.0366 15.1677 37.0366 15.2212C37.0366 15.2746 37.1832 15.2212 37.2126 15.4082C37.2419 15.5952 37.4472 15.2746 37.0366 15.6754C36.6261 16.0761 37.2712 15.5151 37.3299 15.5151C37.3885 15.5151 37.3299 15.7288 37.7111 15.3548C37.7111 15.3548 37.4765 15.5952 37.5645 15.5418C37.887 15.5418 38.1216 15.1143 37.5645 15.5418C37.2419 15.5418 37.7697 15.5418 37.5645 15.8357C37.3592 16.1296 37.799 15.8357 37.975 15.6486C38.1509 15.4616 38.1803 15.4883 38.1509 15.4883C37.5938 16.0761 38.1509 15.6486 38.0043 15.8624C37.8577 16.0761 38.5028 15.5418 38.0043 15.8624C38.7667 15.2212 38.0043 15.8624 38.3269 15.7288C38.6201 15.5685 38.6494 15.5952 38.3269 15.7288C38.0336 15.8891 38.3269 15.9693 38.3269 16.0227C38.3269 16.0761 38.3269 16.1563 38.6201 15.8624C38.1803 16.2899 38.4442 16.1296 38.4735 16.1296C38.5028 16.1296 38.2682 16.3967 38.7961 15.996C38.5028 16.3433 38.6494 16.183 38.7961 15.996C38.3855 16.3967 38.6201 16.2364 38.7961 15.996C38.972 15.7555 38.4442 16.3967 38.6201 16.2631C38.7961 16.1296 38.972 16.0227 38.6201 16.2631C38.2682 16.5036 38.6201 16.2631 38.6201 16.4502C38.6201 16.6372 38.6201 16.6105 39.0307 16.4502C38.9608 16.5368 38.8823 16.6173 38.7961 16.6906C38.972 16.4502 39.5292 16.1028 39.0013 16.6906C39.0013 16.6906 39.2653 16.5303 39.0013 16.9311C39.7344 16.3433 39.4119 16.7173 39.2359 16.9311C39.8517 16.4234 39.2359 16.9311 39.7344 16.6639C39.9104 16.5303 40.233 16.3967 39.7344 16.6639C39.5585 16.7975 39.7345 16.8242 39.9397 16.6639C40.145 16.5036 39.7638 16.8509 39.7638 16.9044C39.7638 16.9578 39.7638 17.0647 39.7638 16.9044C39.7638 16.7441 39.969 16.9044 40.145 16.7441C39.7051 17.1715 40.3209 16.5837 40.145 16.7441C40.5849 16.3166 39.969 16.9578 39.9397 17.0112C39.9397 17.0112 39.4999 17.4921 39.4705 17.5456C39.4412 17.599 40.057 17.0379 40.057 17.0914C40.057 17.1448 40.057 17.0914 40.4089 17.0914C40.7608 17.0914 40.2036 17.3853 40.233 17.3853C40.2623 17.3853 40.057 17.7059 40.6435 17.2517C40.6435 17.2517 40.4089 17.5456 40.4382 17.5723C40.4676 17.599 40.2623 17.8395 40.7901 17.412C40.9367 17.412 41.054 17.1181 40.7901 17.412C40.1743 17.9998 40.7901 17.412 40.7901 17.5456C40.7901 17.6792 40.5555 17.8662 40.7901 17.7326C41.0247 17.599 40.7901 17.8929 40.7901 17.8662C40.7901 17.8395 40.7901 17.8662 40.7901 17.9998L40.4969 18.2937C40.4969 18.2937 40.145 18.641 40.4969 18.4272C41.23 17.8395 41.054 18.0532 40.8781 18.2937L41.1127 18.1601C40.4089 18.8547 41.3473 17.973 41.1127 18.1601C40.7901 18.4807 40.9367 18.3738 40.9074 18.454L40.5555 18.828C40.5555 18.828 40.2036 19.1486 40.145 19.1486C40.0863 19.1486 39.6172 19.5761 39.6758 19.4692C39.7344 19.3623 41.054 21.1524 40.8781 21.099Z" fill="#F2705A"/>
<path id="Vector_4" d="M37.5643 33.5225C37.359 33.5225 37.7402 33.1217 37.0951 33.5225V33.3622C37.5643 32.8813 37.4176 32.9614 37.0951 33.1217C36.7725 33.282 37.0951 32.9347 36.6552 33.3087C36.2153 33.6828 37.0364 32.8813 36.6552 33.1484C36.274 33.4156 36.6552 33.1484 36.4206 33.1484C36.186 33.1484 36.5672 32.8278 36.4206 32.9347C36.274 33.0416 36.274 32.9347 36.2153 32.9347L36.0101 32.7477L35.8341 32.5874L35.6582 32.4004L35.4529 32.2401C35.4529 32.2401 35.2476 32.2401 36.0101 31.4385C34.8078 32.4538 35.101 32.0263 35.2183 31.7859C35.3356 31.5454 35.013 31.7859 35.013 31.7859C34.7864 31.6194 34.5799 31.4313 34.3972 31.2248C34.3972 31.2248 34.3972 31.0645 34.5439 30.9843C34.5439 30.7973 34.6905 30.9042 34.5439 30.9843C34.5439 31.1714 34.2799 30.9843 34.1333 30.9843C34.2231 30.8547 34.321 30.7298 34.4266 30.6103C34.4266 30.6103 34.7198 30.3164 34.4266 30.6103C34.1333 30.9042 33.9574 30.9042 33.8987 30.8775C33.8401 30.8508 33.8987 30.7439 33.8987 30.8775C33.8987 31.0111 34.104 30.5301 33.8987 30.5569C33.8527 30.5761 33.8027 30.586 33.7521 30.586C33.7015 30.586 33.6515 30.5761 33.6055 30.5569C33.6055 30.5569 33.6055 30.5569 33.6055 30.3431C33.6055 30.1294 34.0747 29.7821 33.4295 30.3431C33.2829 30.4767 33.2829 30.3431 33.2829 30.3431C32.6671 29.7821 32.0806 29.221 31.4062 28.7134C31.4062 28.7134 32.022 28.0454 31.9047 28.0722C31.7874 28.0989 31.2302 28.5798 31.2009 28.5264C31.1716 28.4729 30.9076 28.2058 30.761 28.0454C30.6144 27.8851 30.761 27.8851 30.761 27.805C30.761 27.6447 30.761 27.7248 30.761 27.805C30.0572 28.2058 30.3212 27.805 30.1452 27.805C29.9693 27.805 29.9106 27.5645 29.764 27.4844C29.6174 27.4042 29.764 27.4844 30.0279 27.1371C30.2918 26.7897 30.2918 26.8432 30.0279 27.1371C29.764 27.4309 29.676 27.3508 29.7347 27.1371C29.7933 26.9233 29.7347 26.8432 29.5587 26.9768C29.3828 27.1103 30.0279 26.4424 29.4121 26.9768C28.7963 27.5111 29.4121 26.7897 29.4121 26.7363C29.4121 26.6829 29.4121 26.4691 29.2362 26.7363C28.8549 27.1905 29.2362 26.5226 29.0309 26.7363C29.0309 26.7363 28.6497 26.95 28.767 26.7363C28.8843 26.5226 28.767 26.5493 28.767 26.4691C28.767 26.389 28.767 26.3088 28.4151 26.6561L28.591 26.4157C28.591 26.2287 28.9722 25.9348 28.3858 26.4157C28.3858 26.4157 28.2391 26.4157 28.2098 26.4157L27.7699 26.0417C27.7699 26.0417 27.77 26.0416 27.9752 25.6943C27.4181 26.0951 27.7113 25.6943 27.3594 25.8813C27.0075 26.0684 27.1248 26.0149 27.1835 25.8813C27.2421 25.7478 27.1835 25.6409 27.0075 25.6943C26.8316 25.7478 26.597 25.6943 26.8316 25.3737H26.597C26.597 25.3737 26.597 25.1867 26.597 25.16C26.597 25.1333 26.3917 25.16 26.3331 25.16C26.2848 25.1702 26.2347 25.1702 26.1864 25.16V25.0264H26.0398C26.0398 25.0264 26.8902 24.0913 26.3917 24.4921C25.8932 24.8928 25.9518 24.7325 25.6 24.9997C25.6 24.9997 25.6 24.8127 25.6 24.7859C25.6 24.7592 25.4533 24.7859 25.336 24.7859C25.2187 24.7859 25.5413 24.4921 25.512 24.4921C25.4827 24.4921 25.6879 24.0379 25.0428 24.4921C25.0428 24.4921 25.4827 23.931 25.0428 24.3585C25.0428 24.3585 25.0428 24.3585 25.0428 24.2249V24.0646C25.0428 24.0646 24.6909 24.0646 24.6323 24.0646C24.5736 24.0646 25.1601 23.3966 24.6323 23.8241C25.1601 23.2631 24.339 23.8241 24.8668 23.2898C25.3947 22.7554 25.0428 22.9959 24.8668 23.1295C24.1924 23.5035 24.3097 23.1295 24.2804 22.9425C24.2804 22.9425 24.4856 22.702 24.2804 22.7554C23.7525 23.076 23.7819 22.7554 23.9871 22.5417C24.1924 22.3279 23.9871 22.3012 23.6352 22.5417C23.2833 22.7821 23.1954 22.702 23.6352 22.2745C23.6458 22.2536 23.6512 22.2308 23.6512 22.2077C23.6512 22.1847 23.6458 22.1619 23.6352 22.1409C23.6352 22.0073 23.4593 22.1409 23.254 22.2745C23.4006 22.0341 23.7232 21.7669 23.254 22.2745C23.1074 22.515 23.254 22.0608 23.4886 21.8203C23.7232 21.5799 23.8112 21.4997 23.4886 21.66C23.166 21.8203 23.4886 21.66 23.6939 21.286C23.866 21.0798 24.0627 20.8916 24.2804 20.7249C24.4856 20.5913 25.0428 20.0303 24.9841 20.1906C24.9255 20.3509 24.8375 20.4577 24.9841 20.4577L25.5706 20.1104C25.5706 20.1104 25.7466 20.1104 25.5706 20.2974C25.3947 20.4845 25.9518 20.1371 25.8052 20.2974C25.6586 20.4577 25.8052 20.2974 25.8052 20.4577L25.9812 20.618C25.9812 20.618 25.9812 20.7516 26.1278 20.7783C26.2744 20.8051 26.1278 21.0188 26.5677 20.7783C26.8022 20.7783 27.0075 20.5379 26.5677 20.7783C26.3331 20.7783 26.3917 20.1639 26.3917 20.1639C26.3917 20.1639 26.3917 20.4043 26.685 20.1639C26.9782 19.9234 26.685 20.3776 26.685 20.3776C26.685 20.3776 27.1835 20.3776 27.3887 20.5112C27.594 20.6448 27.3887 20.5112 27.3887 20.7783C27.3887 21.0455 27.594 20.7783 27.7113 20.7783C27.8286 20.7783 27.2714 21.286 27.7113 21.0722C28.1512 20.8585 28.1805 21.0722 27.9752 21.286C27.77 21.4997 27.9752 21.4997 27.9752 21.4196C28.591 20.9921 28.2978 21.4196 28.4444 21.4196C28.591 21.4196 28.4444 21.6066 28.4444 21.6867C28.4444 21.7669 28.4444 21.6867 28.679 21.6867C28.9136 21.6867 28.8256 21.6867 28.8549 21.8203C28.8843 21.9539 28.6497 22.0608 28.8549 22.0073C29.0602 21.9539 28.7083 22.3547 29.1482 22.0073C29.5881 21.66 29.4414 22.0073 29.3535 22.0073C29.2655 22.0073 29.3535 22.0073 29.3535 22.2478C29.3535 22.4883 29.8226 21.9539 29.5294 22.2478C29.2362 22.5417 29.5294 22.2478 29.5294 22.4081L29.3241 22.8356C29.3241 22.8356 29.3241 22.8356 29.3241 22.9692C29.3241 23.1027 29.6174 22.9692 29.3241 23.3165C29.8226 22.9157 29.5881 23.3165 29.676 23.3165C29.764 23.3165 29.8227 23.3165 29.676 23.6371C29.5294 23.9577 29.676 23.6371 29.4414 23.9844L29.764 23.744C30.0866 23.5035 30.2332 23.4234 29.764 23.744C29.764 23.744 30.2332 23.5569 29.9986 24.0111C29.9986 24.0111 30.5264 23.7172 29.6467 24.5455C30.0866 24.1982 30.1159 24.2249 30.1159 24.2783C30.1159 24.3317 30.3212 24.2783 30.1159 24.4653C29.9106 24.6524 30.3798 24.4653 30.3212 24.4653C30.2625 24.4653 30.3212 24.4653 30.3212 24.6256C30.3212 24.7859 30.3212 24.6256 30.3212 24.8661C30.3212 24.8661 30.1452 25.1333 30.3212 25.0531C30.4971 24.973 30.6731 24.8661 30.6437 24.9195C30.6144 24.973 31.2009 24.9195 30.6437 25.4539H30.849C31.1716 25.2134 31.0249 25.4539 30.849 25.6142C30.6731 25.7745 30.1452 26.3623 31.0543 25.6142C31.2302 25.6142 31.0543 25.9081 31.5528 25.6142C32.0513 25.3203 31.5528 25.8813 31.5528 25.9348C31.5528 25.9882 31.7581 26.0951 31.8167 26.2287C31.8753 26.3623 32.0806 26.2287 31.8167 26.5226C31.5528 26.8164 32.0513 26.5226 32.1099 26.3623C32.1686 26.202 32.1099 26.6294 32.5791 26.3623C32.5791 26.3623 32.3739 26.6294 32.5791 26.576C33.1656 26.1752 32.931 26.576 32.7551 26.7363C32.5791 26.8966 33.019 26.7363 32.7551 27.1103C32.4912 27.4844 33.019 27.1103 33.1949 26.95L33.3709 26.7897C32.843 27.4042 33.3709 27.0035 33.3709 27.2439C33.3709 27.4844 33.8987 26.95 33.3709 27.3775C34.1626 26.7363 33.3709 27.5111 33.7521 27.3775C34.1333 27.2439 34.104 27.3775 33.7521 27.5111C33.4002 27.6447 33.7521 27.7783 33.7521 27.8317C33.7521 27.8851 33.7521 28.0187 34.104 27.6981C33.6641 28.1523 33.928 27.992 34.104 28.0187C34.2799 28.0454 33.9574 28.3393 34.4559 28.0187C34.192 28.4195 34.3093 28.2325 34.4559 28.0187C34.0747 28.4462 34.2799 28.2859 34.4559 28.0187C34.6318 27.7516 34.1333 28.4462 34.4559 28.3126C34.7785 28.179 34.8078 28.0989 34.6025 28.3126C34.3972 28.5264 34.6025 28.3126 34.6025 28.5264C34.6025 28.7401 34.6025 28.7401 35.0717 28.5264C35.5409 28.3126 35.0717 28.6867 35.0717 28.7134C35.0717 28.7401 35.2476 28.5798 35.2476 28.7134C35.1778 28.8 35.0992 28.8805 35.013 28.9538C35.189 28.7134 35.7755 28.3928 35.2183 28.9538C34.6612 29.5149 35.2183 28.9538 35.2183 29.0874C35.2183 29.221 35.4822 28.9538 35.2183 29.3546C34.9544 29.7554 35.2183 29.4882 35.2183 29.3546C36.0101 28.7935 35.7168 29.1943 35.5409 29.3546C36.1567 28.8737 35.5409 29.3546 36.0687 29.1141C36.274 29.1141 36.5966 28.8737 36.0687 29.1141C35.8634 29.1141 36.0687 29.3012 36.3033 29.1141C36.5379 28.9271 36.3033 29.3279 36.1274 29.3813C35.9514 29.4347 36.1274 29.5683 36.1274 29.3813C36.1274 29.1943 36.362 29.3813 36.5379 29.3813C36.1567 29.8355 36.7138 29.3813 36.5379 29.3813C36.9191 28.9271 36.362 29.6218 36.362 29.6752C36.362 29.6752 35.9221 30.1561 35.8928 30.2363C35.8634 30.3164 36.5086 29.7554 36.5086 29.8088C36.5086 29.8622 36.6552 29.9424 36.9778 29.8088C37.3003 29.6752 36.7725 30.1027 36.8311 30.1027C36.8898 30.1027 36.6845 30.4767 37.3003 30.1027C37.3003 30.1027 37.0951 30.45 37.1537 30.4767C37.2124 30.5034 37.0071 30.7706 37.5349 30.3431C37.7109 30.3431 37.7402 30.0492 37.5349 30.3431C36.9191 30.9309 37.5349 30.3431 37.5349 30.5034C37.5349 30.6637 37.3297 30.824 37.5349 30.7172C37.7402 30.6103 37.5349 30.9042 37.6816 30.9042C37.8282 30.9042 37.8282 30.9042 37.8575 31.0912C37.8868 31.2782 37.7109 31.3049 37.5936 31.4118C37.4763 31.5187 37.2417 31.7859 37.5936 31.5721C38.3267 30.9843 38.1801 31.2248 38.0334 31.5721L38.268 31.4385C38.5026 31.2782 37.5936 32.1599 38.268 31.5988C37.9748 31.9195 38.268 31.8393 38.1214 31.9194C38.0205 32.0562 37.9024 32.1818 37.7695 32.2935L38.1214 33.5225C37.9748 33.5225 37.5643 33.8965 37.5936 33.7897C37.6229 33.6828 37.6522 33.5225 37.5643 33.5225Z" fill="#F2705A"/>
<path id="Vector_5" d="M28.8257 41.5376C28.5912 41.5376 28.9724 41.1368 28.3272 41.5376V41.3773C28.7964 40.8964 28.6498 40.9765 28.3272 41.1368C28.0047 41.2971 28.3272 40.9498 27.8874 41.3239C27.4475 41.6979 28.2686 40.8964 27.8874 41.1636C27.5062 41.4307 27.8874 41.1636 27.6528 41.1636C27.4182 41.1636 27.7994 40.8162 27.6528 40.9498C27.5062 41.0834 27.4768 40.9498 27.4182 40.8162L27.2129 40.6559L27.037 40.4689L26.861 40.3086L26.6558 40.1483C26.6558 40.1483 26.4505 40.1483 27.2129 39.3468C26.0106 40.362 26.3039 39.9346 26.4212 39.6941C26.5385 39.4537 26.2452 39.6941 26.2159 39.6941L25.6001 39.133V38.8926C25.0429 39.3201 25.3362 38.8926 25.1895 38.8926L25.4828 38.5453C25.1895 38.8392 25.0136 38.8659 24.9843 38.8392C24.9549 38.8124 24.9843 38.6789 24.8083 38.8392C24.6324 38.9995 25.0136 38.4651 24.8083 38.5186C24.7047 38.5558 24.5894 38.5558 24.4858 38.5186C24.4858 38.5186 24.4858 38.5186 24.4858 38.3048C24.4858 38.0911 24.955 37.7438 24.3098 38.3048C24.1632 38.3048 24.1632 38.3048 24.1632 38.3048C23.5474 37.7438 22.9609 37.1827 22.2864 36.6751C22.2864 36.6751 22.9023 36.0071 22.785 36.0338C22.6677 36.0606 22.1105 36.5415 22.0812 36.488C22.0518 36.4346 21.7879 36.1674 21.6413 36.0071C21.4947 35.8468 21.6413 35.8468 21.6413 35.7667C21.6413 35.6865 21.7879 35.6064 21.6413 35.6331C20.9668 36.0606 21.2014 35.6331 21.0255 35.6331C20.8496 35.6331 20.7909 35.4194 20.6443 35.3392C20.4977 35.259 20.6443 35.3392 20.9082 34.9919C21.1721 34.6445 21.1721 34.698 20.9082 34.9919C20.6443 35.2858 20.5563 35.2056 20.615 34.9919C20.6736 34.7781 20.615 34.698 20.439 34.8316C20.2631 34.9652 20.9082 34.2972 20.2924 34.8316C19.6766 35.3659 20.2924 34.6445 20.2924 34.5644C20.2924 34.4842 20.2924 34.3239 20.1164 34.5644C20.1164 34.5644 20.4977 34.1102 20.1164 34.4308C19.7352 34.7514 20.1164 34.2438 19.9112 34.4308C19.9112 34.4308 19.53 34.6445 19.6473 34.4308C19.7646 34.2171 19.6473 34.2705 19.6473 34.1904C19.6473 34.1102 19.6473 34.0301 19.2954 34.3774L19.4713 34.1369C19.4713 33.9499 19.8819 33.656 19.2954 34.1369C18.7089 34.6178 19.1194 34.1369 19.0901 34.1369C19.0608 34.1369 18.7969 33.8697 18.6502 33.7362C18.5036 33.6026 18.6502 33.7362 18.8555 33.4156C18.2983 33.8163 18.5916 33.4156 18.2397 33.6026C17.8878 33.7896 18.0344 33.6026 18.0637 33.6026C18.0931 33.6026 18.0637 33.3621 17.8878 33.4156C17.7119 33.469 17.4773 33.4156 17.7119 33.0949C17.9465 32.7743 17.7119 32.9614 17.7119 32.9614H17.4773C17.4773 32.9614 17.4773 32.7743 17.4773 32.7476C17.4773 32.7209 17.272 32.7476 17.2133 32.7476C17.1651 32.7579 17.1149 32.7579 17.0667 32.7476H16.9201C16.9201 32.7476 17.7705 31.8125 17.272 32.1866C16.7735 32.5606 16.8321 32.4537 16.4802 32.7209C16.4802 32.7209 16.4802 32.5606 16.4802 32.5339C16.4802 32.5072 16.3336 32.5339 16.2163 32.5339C16.099 32.5339 16.4216 32.24 16.3923 32.2133C16.3629 32.1866 16.5682 31.7858 15.9231 32.2133C15.9231 32.2133 16.3629 31.6522 15.9231 32.0797C15.9231 32.0797 15.9231 32.0797 15.9231 31.9461C15.9231 31.8125 16.0697 31.7591 15.9231 31.7591C15.7765 31.7591 15.5712 31.9194 15.5125 31.7591C15.4539 31.5988 16.0404 31.1179 15.5125 31.5453C16.0404 30.9843 15.2193 31.5453 15.7471 31.011C16.275 30.4767 15.9231 30.7171 15.7471 30.824C15.0727 31.2247 15.2193 30.824 15.1606 30.637C15.1606 30.637 15.3366 30.3965 15.1606 30.4499C14.9847 30.5034 14.6621 30.5835 14.8674 30.2362C15.0727 29.8889 14.8674 29.9957 14.5155 30.2362C14.1636 30.4767 14.0756 30.3965 14.5155 29.969C14.5155 29.8354 14.3102 29.969 14.105 29.969C14.2516 29.7286 14.6035 29.4614 14.105 29.969C13.9584 30.2095 14.105 29.7553 14.3689 29.5148C14.6328 29.2744 14.6621 29.1675 14.3689 29.3545C14.0756 29.5416 14.2223 29.3545 14.5742 28.9805C14.7545 28.7808 14.9505 28.5933 15.1606 28.4194C15.3659 28.2858 15.9231 27.7248 15.8644 27.8584C15.8058 27.9919 15.7178 28.1523 15.8644 28.1255C16.0613 28.0356 16.2479 27.9283 16.4216 27.8049C16.4216 27.8049 16.5975 27.8049 16.5682 27.9652C16.5389 28.1255 16.9201 27.8316 16.7735 27.9652C16.6269 28.0988 16.7735 28.0988 16.7735 28.1255L16.9494 28.2858C16.9494 28.2858 16.9494 28.4194 17.096 28.4194C17.2427 28.4194 17.096 28.6866 17.5359 28.4194C17.7705 28.4194 17.9758 28.1523 17.5359 28.4194C17.3013 28.4194 17.5946 28.179 17.5946 28.179C17.5946 28.179 17.5946 28.3927 17.8878 28.179C18.181 27.9652 17.8878 28.3927 17.8878 28.3927L18.5623 28.5263C18.5623 28.5263 18.5623 28.5263 18.5623 28.7935C18.5623 29.0606 18.7675 28.7935 18.8848 28.7935C19.0021 28.7935 18.445 29.3278 18.8848 29.1141C19.3247 28.9003 19.354 29.1141 19.1781 29.3278C19.0021 29.5416 19.0314 29.5416 19.1781 29.4614C19.7939 29.0339 19.5006 29.4614 19.6766 29.4614C19.8525 29.4614 19.6766 29.6217 19.5006 29.7286C19.3247 29.8354 19.6473 29.7286 19.7352 29.7286C19.8232 29.7286 19.7352 29.7286 19.9112 29.8622C20.0871 29.9957 19.7352 30.1026 19.9112 30.0492C20.0871 29.9957 19.7646 30.3965 20.2044 30.0492C20.6443 29.7019 20.4977 30.0492 20.4097 30.0492C20.3217 30.0492 20.4097 30.0492 20.4097 30.2896C20.4097 30.5301 20.8789 29.9957 20.5856 30.2896C20.2924 30.5835 20.5856 30.2896 20.5856 30.4499H20.7323L20.527 30.8507C20.527 30.8507 20.527 30.8507 20.527 30.9843C20.527 31.1179 20.8202 30.9843 20.527 31.3316C21.0255 30.9309 20.7909 31.3316 20.9082 31.3316C21.0255 31.3316 20.9082 31.3316 20.7616 31.6522C20.615 31.9728 20.7616 31.6522 20.527 31.9995L20.8496 31.7591C21.1721 31.5186 21.3187 31.4385 20.8496 31.7591C20.8496 31.7591 21.3187 31.5721 21.0841 32.0263C21.0841 32.0263 21.612 31.7324 20.7323 32.5873C21.1721 32.24 21.2014 32.2667 21.2014 32.3201C21.2014 32.3736 21.436 32.3201 21.2014 32.5072C20.9668 32.6942 21.4654 32.5072 21.4067 32.5072C21.3481 32.5072 21.4067 32.5072 21.4067 32.6675C21.4067 32.8278 21.4067 32.6675 21.4067 32.9079C21.4067 32.9079 21.2014 33.1751 21.4067 33.0949C21.612 33.0148 21.7586 32.9079 21.7586 32.9614C21.7586 33.0148 22.2864 32.9614 21.7586 33.469H21.9345C22.2571 33.2553 22.1105 33.469 21.9345 33.656C21.7586 33.843 21.2308 34.4041 22.1691 33.656C22.3158 33.656 22.1691 33.9232 22.6383 33.656C23.1075 33.3888 22.6383 33.9232 22.6383 33.9766C22.6383 34.0301 22.8436 34.1369 22.9022 34.2438C22.9609 34.3507 23.1662 34.2438 22.9022 34.5644C22.6383 34.885 23.1368 34.4308 23.1955 34.4041C23.2541 34.3774 23.1955 34.6713 23.6647 34.4041C24.1339 34.1369 23.6647 34.4041 23.6647 34.5377C23.6647 34.6713 23.4594 34.8049 23.6647 34.7514C24.2218 34.3507 23.9872 34.7514 23.8113 34.9117C23.6354 35.072 24.0752 34.9117 23.8113 35.2858C23.5474 35.6598 24.0752 35.2858 24.2512 35.0987L24.4271 34.9652C23.8993 35.5797 24.4271 35.1789 24.4271 35.4193C24.4271 35.6598 24.9549 35.1255 24.5737 35.4193C25.3655 34.7514 24.5737 35.5529 24.9549 35.4193C25.3362 35.2858 25.3068 35.2858 25.1016 35.5529C24.8963 35.8201 25.1016 35.7934 25.1016 35.8735C25.1016 35.9537 25.1016 36.0338 25.4535 35.74C25.0136 36.1941 25.2775 36.0338 25.4535 36.0606C25.6294 36.0873 25.3068 36.3545 25.8053 36.0606C25.6587 36.2743 25.5414 36.4613 25.952 36.0606C25.5414 36.488 25.7467 36.3277 25.952 36.0606C26.1572 35.7934 25.6294 36.488 25.952 36.3545C26.2745 36.2209 26.3039 36.1407 25.952 36.3545C25.6001 36.5682 25.952 36.3545 25.952 36.5949C25.952 36.8354 25.952 36.8086 26.4212 36.5949C26.8903 36.3812 26.4212 36.7552 26.4212 36.7552H26.5971C26.5272 36.8418 26.4487 36.9223 26.3625 36.9957C26.5385 36.7819 27.1249 36.4346 26.5971 36.9957C26.0693 37.5567 26.5971 36.9957 26.5971 37.1293C26.5971 37.2628 26.8903 36.9957 26.5971 37.3964C26.3039 37.7972 26.5971 37.53 26.5971 37.3964C27.3595 36.8354 27.0663 37.2361 26.9197 37.53C27.5355 37.0224 27.0663 37.53 27.4768 37.2896C27.6528 37.2896 27.8874 37.0491 27.4768 37.2896C27.3009 37.2896 27.4768 37.4499 27.7114 37.2896C27.946 37.1293 27.5648 37.5033 27.5648 37.53C27.5648 37.5567 27.5648 37.7438 27.5648 37.53C27.5648 37.3163 27.7994 37.53 28.0047 37.3964C27.5941 37.8506 28.2099 37.2628 28.0047 37.3964C28.4152 36.9422 27.8287 37.6369 27.8287 37.717C27.8287 37.717 27.3889 38.1979 27.3889 38.2781C27.3889 38.3583 27.9753 37.7972 27.9753 37.8506C27.9753 37.9041 27.9753 37.8506 28.4445 37.8506C28.9137 37.8506 28.2393 38.1712 28.2979 38.1712C28.3566 38.1712 28.1513 38.5453 28.7671 38.1712C28.7671 38.1712 28.5618 38.5185 28.7671 38.5453C28.9724 38.572 28.6205 38.8392 29.1483 38.5453C29.3243 38.5453 29.3536 38.2514 29.1483 38.5453C28.5325 39.133 29.1483 38.5453 29.1483 38.7056C29.1483 38.8659 28.943 39.0262 29.1483 38.9193C29.3536 38.8124 29.1483 39.1063 29.2949 39.1063C29.3442 39.1128 29.3891 39.1353 29.4215 39.1697C29.4538 39.2041 29.4714 39.2481 29.4709 39.2934C29.4709 39.2934 29.3243 39.5071 29.2363 39.614C29.1483 39.7208 28.8551 39.9613 29.2363 39.7475C29.6175 39.5338 29.8228 39.4269 29.6762 39.7475H29.9107C30.1747 39.5872 29.2363 40.4689 29.9107 39.9078C29.5882 40.2285 29.7641 40.1483 29.7348 40.2285C29.6339 40.3652 29.5158 40.4908 29.3829 40.6025C29.3829 40.6025 29.031 40.9231 28.9724 40.9231C28.9137 40.9231 28.4152 41.3239 28.4445 41.217C28.4739 41.1101 28.8844 41.5376 28.8257 41.5376Z" fill="#F2705A"/>
</g>
</svg>
