<svg width="226" height="226" viewBox="0 0 226 226" fill="none" xmlns="http://www.w3.org/2000/svg">
<path opacity="0.1" d="M38.0843 94.4186C37.6539 95.9701 37.9141 97.5817 38.8 98.898C42.854 102.757 78.6843 119.924 85.0756 121.931C76.1568 124.393 52.3233 127.231 50.6216 134.013C50.1362 135.939 50.6417 138.097 52.033 139.558C52.5185 140.194 53.1191 140.829 53.9149 141.1C62.0929 143.887 100.411 137.981 100.411 137.981C96.0514 143.697 92.1275 149.723 88.6841 155.974C87.7232 157.721 87.7482 159.768 88.7642 161.44C89.8152 163.176 91.7922 164.418 93.7791 164.232C100.03 163.642 107.332 152.786 111.647 148.272C111.847 155.384 110.776 162.606 109.66 170.143C108.654 176.94 107.613 183.962 107.588 190.954C107.568 196.925 108.293 202.465 109.75 207.415C110.406 209.647 112.458 211.269 114.85 211.454C117.077 211.629 119.049 210.493 120 208.486C122.162 203.911 123.148 199.162 123.824 195.123C124.369 191.875 130.385 154.498 130.385 154.498L154.194 187.966C155.825 190.263 158.458 191.094 160.9 190.093C163.603 188.987 165.049 185.959 164.123 183.341C163.258 180.879 154.209 157.946 150.965 150.914L168.593 158.241C181.035 163.567 184.639 162.841 186.05 160.584C187.516 158.241 187.166 155.294 185.224 153.567C174.354 143.952 162.862 134.823 151.011 126.37C164.158 120.75 212.171 103.472 217.946 100.66C220.354 99.4886 221.475 96.926 220.754 94.4136C220.599 93.2074 220.064 92.1013 219.238 91.2504C219.073 91.0803 218.897 90.9201 218.707 90.775C217.436 89.774 215.819 89.4136 214.143 89.764L146.866 103.728C152.617 89.0483 165.695 49.7896 165.665 42.7627C165.655 40.2402 163.753 38.0731 161.261 37.4875C158.848 36.9169 156.776 38.1281 155.31 40.1401C152.227 44.3743 137.087 74.3938 130.801 87.1814C127.798 75.1746 115.165 43.8638 111.266 38.1031C110.005 36.2413 107.983 35.0601 105.711 35.3504C103.474 35.6357 101.372 37.1472 101.086 39.3543C99.6499 50.4853 111.176 86.9912 113.188 95.5146C109.46 93.0923 83.8794 72.9374 77.6232 74.9344C75.7063 75.545 74.0297 76.7111 73.4191 78.7231C72.7935 80.7851 73.339 82.9322 74.8405 84.3336C82.463 91.4456 89.9604 98.8479 97.2275 106.445C83.9044 102.156 45.1813 90.6649 45.1813 90.6649C43.83 90.1444 42.3435 90.2344 40.9871 90.9201C39.5657 91.6358 38.4747 92.9471 38.0643 94.4236L38.0843 94.4186Z" fill="#644E8C"/>
<path d="M84.4148 84.0335H33.5197C25.2565 84.0335 18.4949 77.2718 18.4949 69.0087C18.4949 60.7455 25.2565 53.9839 33.5197 53.9839H84.4148C92.6779 53.9839 99.4396 60.7455 99.4396 69.0087C99.4396 69.0087 98.9842 77.8774 103.569 87.637C97.3576 84.0985 84.4148 84.0335 84.4148 84.0335Z" fill="#F3968A"/>
<path d="M84.9353 81.2156H34.0402C25.777 81.2156 19.0154 74.454 19.0154 66.1908C19.0154 57.9277 25.777 51.166 34.0402 51.166H84.9353C93.1984 51.166 99.9601 57.9277 99.9601 66.1908C99.9601 66.1908 99.5047 75.0595 104.089 84.8192C97.8781 81.2807 84.9353 81.2156 84.9353 81.2156Z" fill="#ED6A53"/>
<path d="M39.1552 69.7695C39.0952 69.4592 39.8509 67.4873 40.0211 67.5623C40.3764 67.7775 41.5326 68.6134 42.8439 68.6134C43.7548 68.6134 44.3404 68.3381 44.3404 67.6724C44.3404 67.177 43.97 66.8066 42.3834 66.4863C40.3614 66.0709 39.2403 65.1299 39.2403 63.1079C39.2403 61.3512 40.6767 59.8247 43.2793 59.8247C44.9159 59.8247 46.2873 60.2551 46.8879 60.7356C47.0881 60.8908 46.1621 62.8927 46.007 62.8777C45.7768 62.7676 44.6507 62.197 43.3394 62.197C42.4135 62.197 41.983 62.5674 41.983 63.0779C41.983 63.5584 42.2433 63.8036 43.7398 64.144C45.7267 64.6044 47.2732 65.4102 47.2732 67.5223C47.2732 69.1589 45.9619 70.8706 42.954 70.8706C41.2273 70.8706 39.7158 70.1899 39.1602 69.7745L39.1552 69.7695Z" fill="white"/>
<path d="M51.2472 63.0327C53.1591 63.0327 54.6406 64.1588 54.6406 66.411C54.6406 68.0627 54.5655 70.6202 54.5154 70.7153C54.4704 70.8054 52.5285 70.7153 52.5285 70.7153L52.3883 70.0496C52.2832 70.1597 51.6326 70.8955 50.4164 70.8955C48.7347 70.8955 48.0291 69.9095 48.0291 68.5682C48.0291 67.2268 49.2453 66.3009 50.7868 66.3009C51.4975 66.3009 51.9279 66.5011 52.2182 66.7163C52.2332 66.0557 52.2632 65.1448 50.8769 65.1448C49.9209 65.1448 49.4755 65.8255 49.3353 65.8405C49.1952 65.8405 48.1342 64.9146 48.1492 64.7444C48.1642 64.4841 49.1802 63.0327 51.2472 63.0327ZM51.0921 69.384C51.7727 69.384 52.1081 68.9836 52.1081 68.5181C52.1081 67.9776 51.6626 67.6372 51.0921 67.6372C50.4915 67.6372 50.0911 68.0226 50.0911 68.5181C50.0911 69.0136 50.5215 69.384 51.0921 69.384Z" fill="white"/>
<path d="M58.6294 59.194C58.7396 59.3792 58.5243 69.7244 58.4443 70.9106C58.4443 70.9106 56.3622 70.9256 56.2371 70.8505C56.112 70.7604 56.112 59.4543 56.3472 59.2541C56.5624 59.0539 58.5844 59.0839 58.6294 59.194Z" fill="white"/>
<path d="M65.0909 70.7556C65.1059 70.4303 65.0909 69.9849 65.1059 69.8748C64.7655 70.3703 63.9798 71.0159 62.8236 71.0159C60.9568 71.0159 60.0659 69.8748 60.0659 67.7177C60.0659 66.6066 60.2211 63.969 60.2661 63.2483C60.2961 63.0931 62.6084 63.1231 62.6585 63.1732C62.6885 63.3433 62.5333 66.8568 62.5333 67.4574C62.5333 68.3233 62.9037 68.8438 63.7045 68.8438C64.5503 68.8438 65.0008 68.1981 65.0158 67.5175C65.0158 67.072 65.0758 63.2783 65.1409 63.2132C65.186 63.1532 67.4232 63.1832 67.4832 63.2733C67.4982 63.3333 67.4532 67.4674 67.3931 70.7506C67.253 70.9508 65.251 70.8908 65.0959 70.7506L65.0909 70.7556Z" fill="white"/>
<path d="M72.0326 67.9676C72.0326 68.4631 72.2928 68.7834 72.7883 68.7984C73.3288 68.7984 73.7142 68.428 73.9144 68.4581C74.0996 68.5031 74.4399 69.9095 74.4549 70.2298C74.4549 70.2298 73.8093 71.0006 72.2027 70.9855C70.431 70.9855 69.5651 70.0296 69.5651 68.5181C69.5801 67.7924 69.6752 65.1398 69.6752 65.1248C69.6752 65.1098 68.6893 65.1248 68.6092 65.0497C68.5341 64.9746 68.5191 63.1829 68.6092 63.1678C68.6692 63.1528 69.7053 63.1979 69.7503 63.1528C69.7953 63.0928 69.7053 61.4862 69.8454 61.3511C69.9855 61.2109 72.1126 61.0758 72.1877 61.1509C72.2628 61.2259 72.1276 63.2179 72.1577 63.2179C72.1877 63.2029 73.8844 63.1228 74.0395 63.328C74.1947 63.5432 74.0696 65.0998 74.0696 65.0998C73.9595 65.2849 72.0976 65.1148 72.0976 65.2399C72.0976 65.315 72.0526 67.0767 72.0376 67.9676H72.0326Z" fill="white"/>
<path d="M79.8654 70.8807C78.9244 70.8807 78.2288 70.2201 78.2288 69.124C78.2288 68.2932 78.9094 67.6576 79.9104 67.6576C80.8363 67.6726 81.497 68.1831 81.497 69.1991C81.497 70.2151 81.1566 70.8807 79.8604 70.8807H79.8654ZM81.3318 59.9049C81.3168 62.6827 80.4209 66.3363 80.3308 66.4864C80.2407 66.6365 79.3899 66.5465 79.3449 66.4864C79.2848 66.4263 78.2338 62.2923 78.2638 60.025C78.5541 59.8849 80.9915 59.7648 81.3318 59.8999V59.9049Z" fill="white"/>
<path opacity="0.1" d="M155.63 70.2551H190.354C196.065 70.2551 200.734 65.6105 200.734 59.9349C200.734 54.2593 196.065 49.6147 190.354 49.6147H155.63C149.919 49.6147 145.25 54.2593 145.25 59.9349C145.25 59.9349 145.565 66.0259 142.397 72.7325C146.686 70.3001 155.63 70.2601 155.63 70.2601V70.2551Z" fill="#644E8C"/>
<path d="M154.038 68.6433H188.763C194.473 68.6433 199.143 63.9987 199.143 58.3231C199.143 52.6475 194.473 48.0029 188.763 48.0029H154.038C148.328 48.0029 143.658 52.6475 143.658 58.3231C143.658 58.3231 143.974 64.4141 140.805 71.1207C145.095 68.6883 154.038 68.6483 154.038 68.6483V68.6433Z" fill="#644E8C"/>
<path d="M161.356 61.887C161.346 61.4966 161.336 60.3605 161.326 59.0992C160.6 59.1092 159.354 59.1192 158.693 59.1092C158.693 60.2404 158.683 61.3214 158.663 61.872C158.313 61.9671 156.756 61.9971 156.746 61.892C156.691 61.2864 156.616 55.1453 156.701 54.4246C156.721 54.1994 158.578 54.3095 158.608 54.3846C158.628 54.7349 158.663 55.9711 158.673 57.3825C159.334 57.3725 160.61 57.3625 161.326 57.3625C161.336 56.0813 161.346 54.9051 161.381 54.5147C161.741 54.4196 163.212 54.4296 163.277 54.4947C163.353 54.5598 163.363 61.1262 163.257 61.8469C163.202 62.0671 161.361 61.9721 161.361 61.887H161.356Z" fill="white"/>
<path d="M167.021 60.5805C167.597 60.5805 167.992 60.3803 168.268 60.2101C168.373 60.3152 168.808 61.1961 168.823 61.3562C168.533 61.6215 167.802 61.9618 166.936 61.9618C165.009 61.9618 164.229 60.6806 164.229 59.3242C164.229 57.8928 165.124 56.5615 166.796 56.5615C168.212 56.5615 169.073 57.6226 169.073 58.8087C169.073 59.1391 169.043 59.4143 168.978 59.6245C168.448 59.6996 166.516 59.6996 165.88 59.6796C165.88 60.2401 166.286 60.5905 167.021 60.5905V60.5805ZM167.542 58.6636C167.562 58.1431 167.297 57.7427 166.786 57.7427C166.23 57.7427 165.87 58.1581 165.87 58.6936L167.542 58.6636Z" fill="white"/>
<path d="M171.581 53.8689C171.656 53.994 171.505 61.106 171.45 61.9168C171.45 61.9168 170.014 61.9268 169.929 61.8768C169.844 61.8117 169.844 54.0491 170.004 53.9089C170.154 53.7688 171.551 53.7938 171.581 53.8689Z" fill="white"/>
<path d="M174.373 53.8689C174.448 53.994 174.298 61.106 174.243 61.9168C174.243 61.9168 172.807 61.9268 172.722 61.8768C172.637 61.8117 172.637 54.0491 172.797 53.9089C172.947 53.7688 174.343 53.7938 174.373 53.8689Z" fill="white"/>
<path d="M180.574 59.3345C180.574 60.7008 179.584 61.9271 177.877 61.9621C176.365 61.9621 175.169 60.9261 175.169 59.1994C175.169 57.8731 176.19 56.5718 177.852 56.5718C179.363 56.5718 180.569 57.5878 180.569 59.3345H180.574ZM177.942 58.1784C177.186 58.1583 176.811 58.6338 176.811 59.3245C176.811 60.0652 177.291 60.4706 177.792 60.4806C178.537 60.5007 178.933 60.0552 178.933 59.3145C178.933 58.4686 178.442 58.2034 177.942 58.1834V58.1784Z" fill="white"/>
<path d="M184.538 61.897C183.888 61.897 183.407 61.4415 183.407 60.6908C183.407 60.1202 183.878 59.6848 184.568 59.6848C185.209 59.6948 185.664 60.0452 185.664 60.7458C185.664 61.4465 185.429 61.902 184.533 61.902L184.538 61.897ZM185.549 54.3546C185.539 56.2614 184.919 58.7739 184.859 58.879C184.799 58.9841 184.208 58.919 184.178 58.879C184.138 58.839 183.412 55.9962 183.432 54.4396C183.637 54.3445 185.319 54.2595 185.554 54.3546H185.549Z" fill="white"/>
<path opacity="0.1" d="M123.178 31.3417H147.107C151.901 31.3417 155.82 27.4429 155.82 22.6782C155.82 17.9135 151.901 14.0146 147.107 14.0146H123.178C118.383 14.0146 114.465 17.9135 114.465 22.6782C114.465 22.6782 114.73 27.7932 112.072 33.4188C115.676 31.3768 123.183 31.3417 123.183 31.3417H123.178Z" fill="#644E8C"/>
<path d="M121.842 29.9501H145.77C150.565 29.9501 154.484 26.0513 154.484 21.2866C154.484 16.5219 150.565 12.623 145.77 12.623H121.842C117.047 12.623 113.128 16.5219 113.128 21.2866C113.128 21.2866 113.393 26.4016 110.736 32.0272C114.339 29.9851 121.847 29.9501 121.847 29.9501H121.842Z" fill="#644E8C"/>
<path d="M123.609 19.755C124.154 19.765 124.555 20.1354 124.555 20.766C124.555 21.2465 124.159 21.6118 123.569 21.6118C123.043 21.6018 122.658 21.3115 122.658 20.721C122.658 20.1304 122.853 19.75 123.604 19.75L123.609 19.755ZM122.758 26.0812C122.768 24.4797 123.283 22.3726 123.338 22.2875C123.393 22.1974 123.884 22.2525 123.909 22.2875C123.934 22.3225 124.545 24.7149 124.535 26.0112C124.354 26.1013 122.953 26.1613 122.758 26.0812Z" fill="white"/>
<path d="M129.394 24.2594C129.384 23.9291 129.374 22.9782 129.369 21.9221C128.764 21.9321 127.713 21.9421 127.162 21.9321C127.162 22.8831 127.152 23.789 127.137 24.2544C126.842 24.3345 125.536 24.3595 125.526 24.2744C125.481 23.7689 125.42 18.6139 125.491 18.0083C125.511 17.8231 127.062 17.9082 127.092 17.9732C127.112 18.2685 127.137 19.3045 127.147 20.4907C127.703 20.4807 128.774 20.4707 129.374 20.4707C129.384 19.3946 129.394 18.4087 129.419 18.0783C129.725 17.9983 130.956 18.0083 131.011 18.0583C131.071 18.1134 131.081 23.6238 130.991 24.2294C130.946 24.4146 129.399 24.3345 129.399 24.2644L129.394 24.2594Z" fill="white"/>
<path d="M136.336 22.1171C136.336 23.2632 135.505 24.2942 134.074 24.3243C132.803 24.3243 131.802 23.4534 131.802 22.002C131.802 20.8909 132.658 19.7998 134.054 19.7998C135.325 19.7998 136.336 20.6556 136.336 22.1221V22.1171ZM134.124 21.1511C133.488 21.1311 133.178 21.5315 133.178 22.1121C133.178 22.7327 133.578 23.073 133.999 23.083C134.625 23.1031 134.955 22.7277 134.955 22.1071C134.955 21.3964 134.544 21.1712 134.124 21.1561V21.1511Z" fill="white"/>
<path d="M138.473 17.5327C138.533 17.6378 138.413 23.6037 138.368 24.2893C138.368 24.2893 137.162 24.2993 137.087 24.2543C137.017 24.1992 137.017 17.6828 137.147 17.5677C137.272 17.4526 138.443 17.4676 138.468 17.5327H138.473Z" fill="white"/>
<path d="M141.001 19.7446C142.112 19.7446 142.968 20.3953 142.968 21.6915C142.968 22.6425 142.923 24.1189 142.898 24.174C142.873 24.229 141.747 24.174 141.747 24.174L141.667 23.7936C141.606 23.8537 141.226 24.2841 140.52 24.2841C139.544 24.2841 139.134 23.7135 139.134 22.9428C139.134 22.172 139.84 21.6365 140.736 21.6365C141.146 21.6365 141.396 21.7516 141.566 21.8767C141.576 21.4964 141.591 20.9708 140.791 20.9708C140.235 20.9708 139.975 21.3612 139.895 21.3712C139.815 21.3712 139.199 20.8357 139.204 20.7406C139.214 20.5905 139.805 19.7546 141.001 19.7546V19.7446ZM140.916 23.4082C141.311 23.4082 141.506 23.178 141.506 22.9128C141.506 22.6024 141.246 22.4073 140.916 22.4073C140.565 22.4073 140.335 22.6275 140.335 22.9128C140.335 23.198 140.585 23.4082 140.916 23.4082Z" fill="white"/>
<path d="M144.735 24.2694C144.189 24.2694 143.789 23.8891 143.789 23.2584C143.789 22.778 144.184 22.4126 144.765 22.4126C145.3 22.4226 145.685 22.7129 145.685 23.3035C145.685 23.8941 145.49 24.2744 144.74 24.2744L144.735 24.2694ZM145.58 17.9382C145.57 19.5398 145.055 21.6468 145 21.7319C144.945 21.822 144.454 21.767 144.429 21.7319C144.394 21.6969 143.784 19.3145 143.804 18.0083C143.974 17.9282 145.385 17.8581 145.585 17.9382H145.58Z" fill="white"/>
<path opacity="0.1" d="M84.1047 179.497H56.4024C52.0682 179.497 48.5247 183.021 48.5247 187.33C48.5247 191.639 52.0682 195.163 56.4024 195.163H84.1047C88.439 195.163 91.9825 191.639 91.9825 187.33C91.9825 187.33 91.7422 182.706 94.1496 177.621C90.8914 179.467 84.1047 179.497 84.1047 179.497Z" fill="#644E8C"/>
<path d="M85.311 178.296H57.6087C53.2744 178.296 49.731 181.82 49.731 186.129C49.731 190.438 53.2744 193.962 57.6087 193.962H85.311C89.6453 193.962 93.1888 190.438 93.1888 186.129C93.1888 186.129 92.9485 181.504 95.3559 176.419C92.0977 178.266 85.311 178.296 85.311 178.296Z" fill="#644E8C"/>
<path d="M63.7647 187.715C63.5695 187.725 62.3333 187.715 62.043 187.715C61.9479 188.031 61.7127 188.831 61.6626 188.906C61.6226 188.936 60.2562 188.841 60.1611 188.771C60.3163 188.191 61.8828 183.286 61.9579 183.241C62.033 183.191 63.6095 183.146 63.8097 183.186C63.8348 183.196 65.5264 187.875 65.6966 188.781C65.5264 188.886 64.2251 188.941 64.2001 188.926C64.135 188.781 63.8698 188.016 63.7697 187.72L63.7647 187.715ZM62.9088 184.502C62.7937 184.903 62.4484 186.094 62.2632 186.619C62.5385 186.609 63.2742 186.604 63.6045 186.604C63.4043 186.049 63.064 184.882 62.9589 184.497C62.9439 184.497 62.9289 184.507 62.9088 184.507V184.502Z" fill="white"/>
<path d="M67.5035 182.806C67.5585 182.901 67.4484 188.296 67.4084 188.917C67.4084 188.917 66.3173 188.927 66.2522 188.887C66.1872 188.837 66.1872 182.946 66.3073 182.841C66.4224 182.736 67.4784 182.751 67.5035 182.811V182.806Z" fill="white"/>
<path d="M72.2079 186.954C72.2079 187.991 71.4572 188.926 70.1609 188.946C69.0148 188.946 68.1089 188.161 68.1089 186.849C68.1089 185.843 68.8846 184.857 70.1459 184.857C71.292 184.857 72.2079 185.628 72.2079 186.954ZM70.211 186.079C69.6354 186.064 69.3551 186.424 69.3551 186.949C69.3551 187.51 69.7205 187.82 70.1008 187.825C70.6664 187.84 70.9667 187.505 70.9667 186.939C70.9667 186.294 70.5963 186.094 70.216 186.079H70.211Z" fill="white"/>
<path d="M74.1399 182.851C74.165 183.051 74.1249 185.113 74.0999 185.313C74.2801 185.073 74.5954 184.832 75.1609 184.832C76.262 184.832 76.8126 185.523 76.8126 186.559C76.8126 187.1 76.7475 188.676 76.6975 188.826C76.6574 188.896 75.4612 188.891 75.4462 188.876C75.4312 188.786 75.4562 186.985 75.4562 186.699C75.4562 186.364 75.2711 185.969 74.8506 185.969C74.4052 185.969 74.165 186.314 74.165 186.629C74.165 186.905 74.155 188.856 74.1299 188.881C74.1049 188.912 72.8987 188.897 72.8787 188.851C72.8537 188.801 72.8286 183.281 72.8687 182.836C72.9187 182.785 74.1149 182.68 74.1449 182.861L74.1399 182.851Z" fill="white"/>
<path d="M79.0647 184.807C80.0657 184.807 80.8415 185.393 80.8415 186.569C80.8415 187.43 80.8014 188.766 80.7764 188.811C80.7514 188.861 79.7354 188.811 79.7354 188.811L79.6603 188.466C79.6052 188.521 79.2649 188.906 78.6243 188.906C77.7434 188.906 77.373 188.391 77.373 187.69C77.373 186.989 78.0137 186.509 78.8195 186.509C79.1898 186.509 79.4201 186.614 79.5702 186.724C79.5802 186.379 79.5952 185.903 78.8645 185.903C78.364 185.903 78.1288 186.259 78.0537 186.264C77.9786 186.264 77.4231 185.783 77.4331 185.693C77.4431 185.558 77.9736 184.802 79.0597 184.802L79.0647 184.807ZM78.9846 188.121C79.34 188.121 79.5202 187.91 79.5202 187.67C79.5202 187.39 79.2849 187.21 78.9846 187.21C78.6693 187.21 78.4591 187.41 78.4591 187.67C78.4591 187.93 78.6843 188.121 78.9846 188.121Z" fill="white"/>
<path d="M84.0145 188.901C83.519 188.901 83.1587 188.556 83.1587 187.985C83.1587 187.55 83.514 187.22 84.0396 187.22C84.525 187.23 84.8754 187.495 84.8754 188.025C84.8754 188.556 84.6952 188.901 84.0195 188.901H84.0145ZM84.7803 183.176C84.7703 184.622 84.3048 186.529 84.2548 186.609C84.2047 186.689 83.7593 186.639 83.7393 186.609C83.7092 186.579 83.1587 184.422 83.1737 183.241C83.3289 183.171 84.6051 183.106 84.7853 183.176H84.7803Z" fill="white"/>
<path opacity="0.1" d="M50.1012 128.943H18.7954C14.0157 128.943 10.1018 125.054 10.1018 120.299C10.1018 115.545 14.0107 111.656 18.7954 111.656H50.1012C54.8809 111.656 58.7948 115.545 58.7948 120.299C58.7948 120.299 58.5295 125.399 61.1821 131.015C57.5886 128.978 50.1012 128.943 50.1012 128.943Z" fill="#644E8C"/>
<path d="M51.4376 127.091H20.1318C15.3521 127.091 11.4382 123.202 11.4382 118.447C11.4382 113.693 15.3471 109.804 20.1318 109.804H51.4376C56.2173 109.804 60.1312 113.693 60.1312 118.447C60.1312 118.447 59.8659 123.547 62.5185 129.163C58.925 127.126 51.4376 127.091 51.4376 127.091Z" fill="#644E8C"/>
<path d="M22.1487 120.669C22.1137 120.494 22.5491 119.358 22.6492 119.403C22.8544 119.528 23.5251 120.008 24.2808 120.008C24.8063 120.008 25.1467 119.848 25.1467 119.468C25.1467 119.183 24.9315 118.972 24.0156 118.787C22.8494 118.547 22.1938 118.006 22.1938 116.845C22.1938 115.834 23.0246 114.958 24.5311 114.958C25.477 114.958 26.2678 115.209 26.6181 115.479C26.7332 115.569 26.1977 116.72 26.1076 116.71C25.9725 116.65 25.3219 116.32 24.5661 116.32C24.0306 116.32 23.7803 116.535 23.7803 116.825C23.7803 117.101 23.9305 117.241 24.7963 117.436C25.9475 117.701 26.8383 118.162 26.8383 119.378C26.8383 120.319 26.0826 121.3 24.3409 121.3C23.3399 121.3 22.469 120.909 22.1487 120.669Z" fill="white"/>
<path d="M29.1406 116.796C30.2467 116.796 31.1026 117.441 31.1026 118.737C31.1026 119.688 31.0575 121.16 31.0325 121.21C31.0075 121.265 29.8814 121.21 29.8814 121.21L29.8013 120.83C29.7412 120.89 29.3659 121.315 28.6602 121.315C27.6892 121.315 27.2788 120.749 27.2788 119.974C27.2788 119.198 27.9845 118.672 28.8754 118.672C29.2858 118.672 29.536 118.787 29.7062 118.913C29.7162 118.532 29.7312 118.007 28.9304 118.007C28.3799 118.007 28.1196 118.397 28.0396 118.407C27.9595 118.407 27.3439 117.877 27.3539 117.776C27.3639 117.626 27.9495 116.791 29.1456 116.791L29.1406 116.796ZM29.0506 120.449C29.4409 120.449 29.6411 120.219 29.6411 119.954C29.6411 119.643 29.3809 119.448 29.0506 119.448C28.7002 119.448 28.47 119.668 28.47 119.954C28.47 120.239 28.7202 120.449 29.0506 120.449Z" fill="white"/>
<path d="M33.4149 114.588C33.475 114.693 33.3549 120.644 33.3098 121.325C33.3098 121.325 32.1036 121.335 32.0336 121.29C31.9635 121.235 31.9635 114.738 32.0936 114.623C32.2188 114.508 33.3849 114.523 33.4149 114.588Z" fill="white"/>
<path d="M35.9373 116.796C37.0434 116.796 37.8992 117.441 37.8992 118.737C37.8992 119.688 37.8542 121.16 37.8291 121.21C37.8041 121.265 36.678 121.21 36.678 121.21L36.5979 120.83C36.5379 120.89 36.1625 121.315 35.4568 121.315C34.4858 121.315 34.0754 120.749 34.0754 119.974C34.0754 119.198 34.7811 118.672 35.672 118.672C36.0824 118.672 36.3327 118.787 36.5028 118.913C36.5128 118.532 36.5279 118.007 35.7271 118.007C35.1765 118.007 34.9163 118.397 34.8362 118.407C34.7561 118.407 34.1405 117.877 34.1505 117.776C34.1605 117.626 34.7461 116.791 35.9423 116.791L35.9373 116.796ZM35.8522 120.449C36.2426 120.449 36.4428 120.219 36.4428 119.954C36.4428 119.643 36.1825 119.448 35.8522 119.448C35.5018 119.448 35.2716 119.668 35.2716 119.954C35.2716 120.239 35.5219 120.449 35.8522 120.449Z" fill="white"/>
<path d="M40.1865 116.966C40.1765 117.151 40.1665 117.391 40.1615 117.446C40.3567 117.156 40.697 116.846 41.4177 116.846C41.9182 116.846 42.3186 117.096 42.5588 117.486C42.8641 116.956 43.5398 116.846 43.9052 116.846C45.0313 116.846 45.5268 117.581 45.5268 118.718C45.5268 119.323 45.4917 120.855 45.4667 121.27C45.4567 121.35 44.1004 121.35 44.0753 121.325C44.0503 121.305 44.0953 119.278 44.0953 118.863C44.0953 118.447 43.9802 118.102 43.5048 118.102C43.0293 118.102 42.8691 118.582 42.8691 118.853C42.8691 119.493 42.8441 120.805 42.8141 121.245C42.8041 121.325 41.4578 121.27 41.4427 121.255C41.4077 121.235 41.4527 119.163 41.4527 118.863C41.4527 118.427 41.3276 118.102 40.8622 118.102C40.3967 118.102 40.2015 118.492 40.2015 118.778C40.2015 119.033 40.1815 121.28 40.1565 121.315C40.1314 121.35 38.8252 121.335 38.8001 121.28C38.7801 121.245 38.7451 118.833 38.7751 116.951C38.8552 116.816 40.1064 116.896 40.1865 116.976V116.966Z" fill="white"/>
<path d="M49.0353 121.31C48.4897 121.31 48.0894 120.929 48.0894 120.299C48.0894 119.818 48.4797 119.458 49.0603 119.458C49.5958 119.468 49.9762 119.758 49.9762 120.344C49.9762 120.929 49.781 121.31 49.0303 121.31H49.0353ZM49.8811 114.999C49.8711 116.595 49.3556 118.697 49.3005 118.787C49.2455 118.877 48.755 118.822 48.73 118.787C48.695 118.752 48.0894 116.375 48.1044 115.074C48.2745 114.994 49.6809 114.924 49.8811 115.004V114.999Z" fill="white"/>
<path opacity="0.1" d="M180.425 107.632H207.376C210.419 107.632 212.907 105.159 212.907 102.131C212.907 99.1033 210.419 96.6309 207.376 96.6309H180.425C177.382 96.6309 174.894 99.1033 174.894 102.131C174.894 102.131 175.064 105.374 173.373 108.948C175.66 107.652 180.425 107.632 180.425 107.632Z" fill="#644E8C"/>
<path d="M179.579 106.606H206.53C209.573 106.606 212.061 104.133 212.061 101.105C212.061 98.0774 209.573 95.605 206.53 95.605H179.579C176.536 95.605 174.048 98.0774 174.048 101.105C174.048 101.105 174.218 104.349 172.527 107.922C174.814 106.626 179.579 106.606 179.579 106.606Z" fill="#644E8C"/>
<path d="M183.442 102.732C183.337 102.597 182.516 101.271 181.966 100.425C181.966 101.235 182.001 102.251 181.981 102.677C181.791 102.727 181 102.732 180.995 102.677C180.965 102.357 180.95 99.1785 180.995 98.7931C181.02 98.693 181.901 98.693 181.931 98.733C181.991 98.8281 182.957 100.3 183.432 101.17C183.442 100.26 183.412 99.0984 183.432 98.8031C183.628 98.753 184.378 98.7631 184.413 98.7981C184.448 98.8331 184.428 102.277 184.373 102.657C184.348 102.757 183.502 102.777 183.437 102.732H183.442Z" fill="white"/>
<path d="M186.12 99.8594C186.826 99.8594 187.366 100.27 187.366 101.096C187.366 101.701 187.336 102.637 187.321 102.672C187.306 102.707 186.59 102.672 186.59 102.672L186.54 102.432C186.5 102.472 186.26 102.742 185.815 102.742C185.194 102.742 184.934 102.382 184.934 101.891C184.934 101.401 185.384 101.061 185.95 101.061C186.21 101.061 186.37 101.136 186.475 101.211C186.48 100.97 186.49 100.635 185.98 100.635C185.63 100.635 185.464 100.885 185.414 100.89C185.364 100.89 184.974 100.55 184.979 100.49C184.984 100.395 185.359 99.8644 186.12 99.8644V99.8594ZM186.065 102.187C186.315 102.187 186.44 102.042 186.44 101.871C186.44 101.676 186.275 101.551 186.065 101.551C185.845 101.551 185.695 101.691 185.695 101.871C185.695 102.052 185.855 102.187 186.065 102.187Z" fill="white"/>
<path d="M188.823 99.9692C188.818 100.089 188.813 100.24 188.808 100.275C188.933 100.089 189.148 99.8892 189.608 99.8892C189.924 99.8892 190.184 100.049 190.334 100.295C190.529 99.9542 190.96 99.8892 191.19 99.8892C191.906 99.8892 192.221 100.36 192.221 101.08C192.221 101.466 192.201 102.442 192.181 102.707C192.176 102.757 191.31 102.757 191.295 102.742C191.28 102.732 191.305 101.441 191.305 101.175C191.305 100.91 191.23 100.69 190.93 100.69C190.629 100.69 190.524 100.995 190.524 101.17C190.524 101.576 190.509 102.412 190.489 102.692C190.484 102.742 189.628 102.707 189.613 102.697C189.588 102.687 189.618 101.366 189.618 101.175C189.618 100.9 189.538 100.69 189.243 100.69C188.948 100.69 188.823 100.94 188.823 101.12C188.823 101.286 188.813 102.712 188.793 102.732C188.778 102.757 187.947 102.742 187.932 102.712C187.922 102.692 187.897 101.155 187.917 99.9592C187.967 99.8741 188.763 99.9242 188.813 99.9742L188.823 99.9692Z" fill="white"/>
<path d="M193.818 99.8594C194.523 99.8594 195.064 100.27 195.064 101.096C195.064 101.701 195.034 102.637 195.019 102.672C195.004 102.707 194.288 102.672 194.288 102.672L194.238 102.432C194.198 102.472 193.958 102.742 193.512 102.742C192.892 102.742 192.631 102.382 192.631 101.891C192.631 101.401 193.082 101.061 193.647 101.061C193.908 101.061 194.068 101.136 194.173 101.211C194.178 100.97 194.188 100.635 193.677 100.635C193.327 100.635 193.162 100.885 193.112 100.89C193.062 100.89 192.671 100.55 192.676 100.49C192.681 100.395 193.057 99.8644 193.818 99.8644V99.8594ZM193.757 102.187C194.008 102.187 194.133 102.042 194.133 101.871C194.133 101.676 193.968 101.551 193.757 101.551C193.537 101.551 193.387 101.691 193.387 101.871C193.387 102.052 193.547 102.187 193.757 102.187Z" fill="white"/>
<path d="M195.484 102.482C195.439 102.427 195.699 101.811 195.744 101.831C195.835 101.876 196.185 102.131 196.55 102.131C196.776 102.131 196.891 102.051 196.891 101.926C196.891 101.801 196.801 101.736 196.43 101.666C195.795 101.561 195.499 101.296 195.499 100.82C195.499 100.215 195.915 99.8643 196.61 99.8643C197.131 99.8643 197.591 100.039 197.666 100.115C197.716 100.165 197.456 100.76 197.416 100.765C197.386 100.765 197.026 100.545 196.695 100.545C196.475 100.545 196.38 100.65 196.38 100.765C196.38 100.89 196.475 100.945 196.806 100.99C197.481 101.085 197.781 101.316 197.781 101.841C197.781 102.337 197.441 102.787 196.645 102.787C196.08 102.787 195.559 102.562 195.484 102.477V102.482Z" fill="white"/>
<path d="M199.293 101.666C199.293 101.846 199.388 101.967 199.573 101.972C199.773 101.972 199.913 101.836 199.989 101.846C200.059 101.861 200.184 102.377 200.189 102.497C200.189 102.497 199.949 102.777 199.358 102.772C198.707 102.772 198.387 102.422 198.387 101.871C198.392 101.606 198.427 100.635 198.427 100.63C198.427 100.625 198.062 100.63 198.037 100.6C198.007 100.57 198.002 99.9195 198.037 99.9095C198.062 99.9045 198.442 99.9195 198.457 99.9045C198.472 99.8795 198.442 99.2939 198.492 99.2438C198.542 99.1938 199.328 99.1437 199.353 99.1688C199.383 99.1988 199.328 99.9245 199.343 99.9245C199.353 99.9195 199.979 99.8895 200.034 99.9645C200.089 100.045 200.044 100.615 200.044 100.615C200.004 100.685 199.318 100.62 199.318 100.665C199.318 100.695 199.303 101.336 199.298 101.666H199.293Z" fill="white"/>
<path d="M201.856 102.031C202.161 102.031 202.371 101.926 202.521 101.836C202.576 101.891 202.812 102.362 202.817 102.447C202.661 102.587 202.271 102.767 201.811 102.767C200.785 102.767 200.369 102.086 200.369 101.361C200.369 100.6 200.845 99.8892 201.735 99.8892C202.491 99.8892 202.952 100.455 202.952 101.085C202.952 101.261 202.937 101.406 202.902 101.521C202.616 101.561 201.59 101.561 201.25 101.551C201.25 101.851 201.465 102.036 201.856 102.036V102.031ZM202.131 101.01C202.141 100.735 202.001 100.52 201.73 100.52C201.435 100.52 201.24 100.74 201.24 101.025L202.131 101.01Z" fill="white"/>
<path d="M205.039 102.732C204.693 102.732 204.438 102.492 204.438 102.087C204.438 101.781 204.688 101.551 205.059 101.551C205.399 101.556 205.644 101.741 205.644 102.117C205.644 102.492 205.519 102.732 205.044 102.732H205.039ZM205.579 98.7132C205.574 99.7292 205.244 101.066 205.209 101.121C205.174 101.176 204.863 101.141 204.843 101.121C204.823 101.096 204.433 99.5841 204.448 98.7583C204.553 98.7082 205.454 98.6632 205.579 98.7132Z" fill="white"/>
<path d="M135.075 194.412C135.555 193.852 135.605 192.996 135.215 192.375C135.155 192.28 135.095 192.21 135.03 192.15C134.499 191.279 133.323 190.699 132.372 190.764C130.756 190.879 129.905 192.671 130.981 193.932C131.847 194.948 134.099 195.553 135.08 194.417L135.075 194.412Z" fill="#F3968A"/>
<path d="M142.207 198.941C142.362 198.851 142.402 198.656 142.302 198.486C142.287 198.461 142.272 198.441 142.252 198.421C142.117 198.181 141.787 197.955 141.501 197.9C141.021 197.8 140.72 198.146 141.006 198.516C141.236 198.816 141.887 199.127 142.207 198.941Z" fill="#F3968A"/>
<path d="M122.838 188.246C122.913 186.88 121.827 185.178 120.295 184.182C120.065 184.032 119.86 183.927 119.66 183.842C117.548 182.44 114.7 181.965 113.133 182.636C110.476 183.772 111.442 187.756 115.035 189.607C117.933 191.099 122.683 191.024 122.838 188.246Z" fill="#F3968A"/>
<path fill-rule="evenodd" clip-rule="evenodd" d="M8.08257 52.1687C8.2751 51.6313 8.86685 51.3517 9.40429 51.5442L14.6294 53.4161C15.1669 53.6086 15.4465 54.2004 15.2539 54.7378C15.0614 55.2752 14.4697 55.5548 13.9322 55.3623L8.70708 53.4905C8.16964 53.2979 7.89004 52.7062 8.08257 52.1687Z" fill="#ED6A53"/>
<path fill-rule="evenodd" clip-rule="evenodd" d="M17.4401 37.626C17.9607 37.3917 18.5726 37.6238 18.8069 38.1444L21.6197 44.3956C21.8539 44.9162 21.6218 45.5281 21.1012 45.7624C20.5806 45.9966 19.9686 45.7645 19.7344 45.2439L16.9216 38.9927C16.6874 38.4721 16.9195 37.8602 17.4401 37.626Z" fill="#ED6A53"/>
<path fill-rule="evenodd" clip-rule="evenodd" d="M32.78 37.8677C33.3495 37.9069 33.7794 38.4004 33.7402 38.9699L33.3699 44.3502C33.3307 44.9198 32.8372 45.3497 32.2677 45.3105C31.6981 45.2713 31.2682 44.7778 31.3074 44.2083L31.6778 38.828C31.717 38.2584 32.2105 37.8285 32.78 37.8677Z" fill="#ED6A53"/>
<path opacity="0.3" d="M97.3378 88.7081C97.3378 88.7081 95.1757 87.2116 92.503 82.7873C89.9755 78.5981 87.0226 72.3169 93.1637 68.4782C99.3047 64.6394 104.059 72.407 104.059 72.407L97.3378 88.7081Z" fill="#3F346A"/>
<path d="M197.632 158.662C197.632 158.662 187.657 181.044 160.69 199.732C158.483 197.65 155.32 194.712 151.431 191.284C149.965 189.993 138.143 179.602 129.73 173.602C129.73 173.602 128.543 172.781 127.172 171.865C119.61 166.825 113.338 163.427 105.01 159.132C98.1135 155.574 90.1056 151.555 81.1067 147.231C73.5643 144.813 68.7495 140.174 69.0448 136.105C69.1349 134.898 69.7355 132.956 71.2871 131.615C73.3941 129.798 76.2619 129.989 77.8335 130.119C86.6972 130.844 107.418 139.778 109.224 140.564C110.861 126.595 108.489 116.726 105.911 110.179C101.267 98.3924 96.2416 89.2735 96.2416 89.2735C92.0275 81.6209 90.2908 77.3617 91.8673 73.0975C93.1536 69.6241 95.8863 67.0966 99.4097 67.437C102.162 67.7072 104.24 69.8443 109.45 78.7331C112.017 83.1124 115.375 89.1884 118.939 96.7408C118.939 96.7408 125.696 91.1253 133.608 97.5917C133.608 97.5917 143.583 90.9952 148.138 99.4485C148.803 99.0181 149.98 98.3974 151.551 98.2373C154.719 97.912 156.431 98.8479 158.308 100.83C160.185 102.812 162.317 106.5 164.769 111.12C167.737 116.72 169.764 120.99 172.141 126.835C173.768 130.839 175.73 136.405 177.266 143.327C179.994 145.614 182.877 147.931 185.925 150.254C189.924 153.307 193.843 156.099 197.636 158.652L197.632 158.662Z" fill="#644E8C"/>
<path fill-rule="evenodd" clip-rule="evenodd" d="M118.915 96.5493C119.245 96.3592 119.666 96.4723 119.856 96.802C121.707 100.012 123.873 104.552 125.284 110.29C126.374 114.718 126.724 118.67 126.775 121.819C126.781 122.2 126.478 122.513 126.097 122.52C125.717 122.526 125.403 122.222 125.397 121.842C125.348 118.775 125.007 114.929 123.945 110.619L123.945 110.619C122.573 105.035 120.465 100.617 118.662 97.4905C118.472 97.1608 118.585 96.7394 118.915 96.5493Z" fill="#3F346A"/>
<path fill-rule="evenodd" clip-rule="evenodd" d="M133.231 97.1005C133.507 96.8393 133.944 96.852 134.205 97.1288C135.829 98.8507 138.099 101.673 139.841 105.664L139.209 105.94L139.841 105.664C141.706 109.938 142.182 113.769 142.3 116.202C142.318 116.582 142.025 116.905 141.645 116.923C141.265 116.942 140.941 116.649 140.923 116.268C140.811 113.946 140.356 110.291 138.577 106.216C136.916 102.409 134.751 99.716 133.202 98.0746C132.941 97.7978 132.954 97.3616 133.231 97.1005Z" fill="#3F346A"/>
<path fill-rule="evenodd" clip-rule="evenodd" d="M148.061 99.1253C148.378 98.9144 148.806 99.0003 149.017 99.3171C150.038 100.851 151.222 102.959 152.166 105.62L152.166 105.62C153.166 108.445 153.566 110.973 153.719 112.871C153.75 113.251 153.468 113.583 153.088 113.614C152.709 113.645 152.377 113.362 152.346 112.983C152.199 111.177 151.819 108.771 150.867 106.08M148.061 99.1253C147.744 99.3361 147.659 99.7639 147.869 100.081L148.061 99.1253ZM147.869 100.081C148.84 101.539 149.968 103.546 150.866 106.08L147.869 100.081Z" fill="#3F346A"/>
<path fill-rule="evenodd" clip-rule="evenodd" d="M109.282 139.886C109.663 139.868 109.985 140.162 110.003 140.542C110.05 141.552 110.277 143.583 111.553 145.721C112.65 147.552 114.03 148.64 114.842 149.193C115.157 149.407 115.239 149.836 115.024 150.151C114.81 150.465 114.382 150.547 114.067 150.333C113.158 149.714 111.605 148.491 110.37 146.428L110.37 146.428C108.933 144.021 108.679 141.738 108.626 140.606C108.608 140.226 108.902 139.903 109.282 139.886Z" fill="#3F346A"/>
<path fill-rule="evenodd" clip-rule="evenodd" d="M176.874 147.576C177.22 147.735 177.371 148.144 177.212 148.49C176.779 149.429 176.078 150.663 174.96 151.901C173.331 153.71 171.565 154.69 170.445 155.2C170.099 155.358 169.69 155.205 169.532 154.858C169.375 154.512 169.528 154.103 169.874 153.946C170.886 153.485 172.473 152.603 173.937 150.978L173.937 150.978C174.942 149.864 175.572 148.756 175.96 147.913C176.119 147.567 176.528 147.416 176.874 147.576Z" fill="#3F346A"/>
<path fill-rule="evenodd" clip-rule="evenodd" d="M114.972 98.0363C115.055 98.4076 114.822 98.7763 114.45 98.8597C113.812 99.0032 112.939 99.2779 111.99 99.8014C111.083 100.304 110.412 100.877 109.954 101.33C109.684 101.597 109.248 101.595 108.98 101.325C108.712 101.054 108.714 100.618 108.985 100.35C109.508 99.8321 110.279 99.1738 111.323 98.5955L111.324 98.5949C112.407 97.9975 113.406 97.6817 114.148 97.515C114.52 97.4315 114.888 97.6649 114.972 98.0363Z" fill="#3F346A"/>
<path fill-rule="evenodd" clip-rule="evenodd" d="M203.634 145.226C204.169 145.426 204.44 146.022 204.24 146.556C200.796 155.774 193.805 170.828 179.831 185.252L179.088 184.532L179.831 185.252C168.772 196.669 157.37 203.529 149.359 207.515C148.848 207.769 148.227 207.561 147.973 207.049C147.719 206.538 147.927 205.918 148.438 205.664C156.303 201.751 167.493 195.018 178.346 183.813L178.346 183.813C192.059 169.659 198.922 154.883 202.304 145.833C202.504 145.298 203.099 145.026 203.634 145.226Z" fill="#3F346A"/>
<path d="M69.9607 139.473C70.5563 138.111 75.371 137.716 78.4541 139.773C80.461 141.109 82.8784 144.428 81.1617 146.99C80.5762 147.861 76.7274 146.61 72.7234 143.006C69.8706 140.444 69.9657 139.473 69.9657 139.473H69.9607Z" fill="#9383AF"/>
<path d="M102.112 79.7088C102.408 79.5336 103.879 78.6328 104.044 76.841C104.119 76.0102 103.889 75.0793 103.254 74.0783C103.058 73.773 102.648 73.0773 101.897 72.5317C100.706 71.6609 98.7992 71.2505 97.3878 72.1464C95.4459 73.3876 95.4509 76.4756 96.612 78.3174C96.7722 78.5727 97.5179 79.6938 98.8943 80.1492C100.506 80.6798 101.787 79.909 102.112 79.7138V79.7088Z" fill="#9383AF"/>
</svg>
