<?xml version="1.0" encoding="UTF-8"?>
<!--
Soliguide: Useful information for those who need it

SPDX-FileCopyrightText: © 2024 Solinum

SPDX-License-Identifier: AGPL-3.0-only

This program is free software: you can redistribute it and/or modify
it under the terms of the GNU Affero General Public License as published
by the Free Software Foundation, either version 3 of the License, or
(at your option) any later version.

This program is distributed in the hope that it will be useful,
but WITHOUT ANY WARRANTY; without even the implied warranty of
MERCHANTABILITY or FITNESS FOR A PARTICULAR PURPOSE.  See the
GNU Affero General Public License for more details.

You should have received a copy of the GNU Affero General Public License
along with this program.  If not, see <https://www.gnu.org/licenses/>.
-->
<svg width="41" height="42" viewBox="0 0 41 42" fill="none" xmlns="http://www.w3.org/2000/svg">
<g id="icone - qui">
<path id="Vector" d="M37.8355 19.6756C37.8355 19.4151 37.5368 19.1546 38.1769 18.8508C37.0674 18.8508 38.1769 18.1996 37.7075 17.9392C37.2381 17.6787 37.7075 17.2446 37.4088 16.8539L37.1101 15.6819L36.726 14.64C36.629 14.2753 36.4855 13.9251 36.2993 13.5982C36.2993 13.5982 36.2993 13.2509 36.5553 12.9905C36.8114 12.73 36.8967 12.5998 36.5553 12.6866C36.2139 12.7734 36.0006 12.6866 35.8726 12.6866C35.2151 11.4014 34.3818 10.2175 33.3975 9.17039C33.3975 9.17039 33.3975 8.82311 33.3975 8.64947C33.3346 8.50576 33.2305 8.38472 33.0988 8.30219C33.0988 8.30219 32.7148 8.30219 32.5441 8.30219C32.3734 8.30219 32.2454 7.434 31.6479 7.434C31.0505 7.434 30.9652 6.9999 30.6238 6.73944L29.2156 5.48056C28.8599 5.25235 28.4892 5.04929 28.1061 4.87282C27.6794 4.87282 27.2953 4.48213 26.8686 4.3519C26.4418 4.22167 26.1005 3.9178 25.6311 3.96121C25.1616 4.00462 25.2897 3.31007 25.0763 2.96279C24.7349 3.57053 24.4789 3.65734 24.1802 3.57052C22.6227 3.24545 21.0263 3.15767 19.4435 3.31007C19.1874 3.31007 18.9741 3.0062 18.718 3.0062C18.462 3.0062 18.4193 3.48371 18.1633 3.48371C17.9072 3.48371 17.6512 3.78757 17.3952 3.48371C17.1391 3.17984 17.0538 3.48371 16.8831 3.48371C16.833 3.51918 16.7734 3.5382 16.7124 3.5382C16.6514 3.5382 16.5918 3.51918 16.5417 3.48371C16.2003 2.91938 16.0723 3.04961 16.0723 3.48371C16.0723 3.9178 15.7736 4.00462 15.4749 3.48371C15.1762 2.96279 14.8775 2.87597 14.9201 3.48371C14.9628 4.09144 14.9201 4.00462 14.6641 4.09144C13.8347 4.44006 13.0587 4.90786 12.3598 5.48056C12.1037 5.48056 11.4636 5.08987 11.5917 5.91465C11.7197 6.73944 10.4822 4.91623 10.7382 5.91465C10.9942 6.91308 10.7382 6.60921 10.2688 6.78285C9.79939 6.95649 9.67137 6.9999 9.41533 7.21695C9.15929 7.434 9.15929 7.82469 8.90326 7.99832C8.64722 8.17196 8.5192 8.82311 8.0498 8.99675C7.5804 9.17039 7.4097 9.6479 7.15367 10.0386C6.83205 10.3998 6.54618 10.7924 6.30021 11.2107C6.30021 11.6447 5.57477 11.8618 6.0015 12.5564V12.7734C5.27606 12.5564 6.00149 13.2509 5.74546 13.2509C4.63596 13.2509 5.06269 13.9889 5.06269 14.5098C5.06269 15.0307 4.76398 15.7687 4.67863 16.3764C3.44112 16.3764 4.67863 17.0276 4.2519 17.288C4.97734 17.8089 4.2519 18.243 4.84933 18.7205C3.91052 19.0678 5.3614 19.719 4.37992 20.1531C3.39845 20.5872 4.03854 20.8476 4.37992 21.1081C4.72131 21.3685 3.99587 21.6724 4.37992 21.8461C4.76398 22.0197 4.76398 22.367 4.84933 22.6274C4.93467 22.8879 4.84933 23.1483 4.55061 23.4522C5.3614 23.4522 3.99587 24.2336 5.06269 24.277C5.15097 24.5594 5.15097 24.8628 5.06269 25.1452C5.06269 25.7529 5.06269 25.7963 5.53209 26.3173C6.0015 26.8382 5.53209 26.6211 5.53209 26.7948C5.53209 26.9684 6.04417 27.7932 6.21486 28.3575C6.38555 28.9219 6.72693 28.6614 6.21486 29.2257C5.70278 29.79 6.21486 29.6164 6.4709 29.6164C6.72693 29.6164 7.28168 30.0505 7.15367 30.7017C7.02565 31.3528 7.53772 31.5264 8.0498 31.6133C8.56187 31.7001 8.56187 31.6133 8.43385 32.0474C8.41138 32.0869 8.39955 32.1319 8.39955 32.1776C8.39955 32.2233 8.41138 32.2682 8.43385 32.3078C8.43385 32.3078 9.03128 32.3078 9.11662 32.3078C9.20197 32.3078 9.11662 32.8721 9.11662 33.0024C9.11662 33.1326 9.92741 33.8706 10.6955 33.8272C11.4636 33.7837 11.549 33.8272 11.4636 34.7388C11.4636 34.7388 11.7197 34.7388 11.805 34.7388C11.8904 34.7388 12.5305 34.7388 12.6158 35.086C12.7011 35.4333 13.1706 35.9976 13.8106 35.6504C13.8644 35.6044 13.9324 35.5793 14.0027 35.5793C14.0729 35.5793 14.1409 35.6044 14.1947 35.6504C14.3795 35.9764 14.6477 36.2455 14.9708 36.4289C15.2939 36.6123 15.6598 36.7033 16.0296 36.6922C16.3284 36.6922 16.371 37.1697 16.4137 37.6906C16.4712 38.2771 16.3521 38.8675 16.0723 39.3836C15.6883 40.0782 15.0908 40.2952 14.7068 40.0348C14.3227 39.7743 14.4507 39.7743 14.3654 40.0348C14.28 40.2952 13.2986 40.0348 12.7865 40.0348C12.6097 39.9981 12.4455 39.9146 12.3106 39.7926C12.1757 39.6706 12.0749 39.5146 12.0184 39.3402C12.0184 38.9495 11.4636 38.8627 10.9516 38.9495C10.4395 39.0363 10.2688 38.6456 9.92741 38.4286C9.58602 38.2115 9.92741 37.9511 9.58602 37.9077C8.68989 37.9077 8.22049 37.1263 8.0498 36.2581C8.02577 36.2304 7.99622 36.2082 7.96311 36.193C7.93 36.1778 7.89409 36.1699 7.85777 36.1699C7.82144 36.1699 7.78553 36.1778 7.75243 36.193C7.71932 36.2082 7.68977 36.2304 7.66574 36.2581C7.06832 36.5186 7.11099 35.9108 6.76961 35.824L5.87348 35.5635C5.87348 35.5635 5.87348 35.5635 5.87348 35.2597C5.87348 34.9558 5.87348 34.5217 5.23338 34.4349C4.59329 34.3481 4.80665 34.4349 4.76398 34.2178C4.72131 34.0008 4.76398 33.2628 4.76398 33.0892C4.76398 32.9155 3.7825 33.0892 3.65448 32.6985C3.49762 32.4441 3.38233 32.1656 3.3131 31.8737C3.3131 31.483 2.71568 31.5698 2.71568 31.1792C2.71568 30.7885 2.16093 30.7885 2.71568 30.2676C1.86222 30.2676 1.99024 29.4862 1.7342 29.0087C1.47816 28.5312 1.09411 28.4009 1.7342 27.7932C2.3743 27.1855 1.7342 27.7932 1.52084 27.7932C1.30747 27.7932 0.923415 27.2723 1.05143 26.925C1.17945 26.5777 1.47816 26.4041 1.05143 26.3607C1.7342 25.7095 1.05143 25.2754 1.05143 24.7545C1.05143 24.2336 1.13678 23.2786 0.28332 22.8445C0.923414 22.4972 0.582031 22.1933 0.624703 21.8895C0.667376 21.5856 0.325993 21.3251 0.240647 21.0647C0.155301 20.8042 0.710049 20.5872 0.624703 20.3267C0.539358 20.0662 1.00876 19.3717 0.240647 18.8508V18.5469C1.09411 18.0694 0.667376 17.4183 0.880741 16.8539C1.09411 16.2896 0.880742 16.4632 1.13678 16.2896C1.40575 16.2516 1.6786 16.2516 1.94756 16.2896C1.52084 15.9423 1.52084 15.7687 1.52084 15.595C1.7202 14.7197 1.99142 13.863 2.33162 13.0339C2.33162 13.0339 2.75835 12.73 2.80102 12.5129C2.8437 12.2959 2.80102 11.9486 2.80102 11.775C2.80102 11.6013 3.27043 11.2541 3.39845 10.9936C4.66796 8.68782 6.38038 6.66534 8.43385 5.04646L9.11662 4.48213C9.11662 4.48213 9.41533 4.48213 9.75671 4.48213C10.0981 4.48213 10.1834 4.48213 10.0554 4.17826C9.92741 3.87439 10.3115 4.17826 10.4822 4.17826C10.6528 4.17826 11.2503 4.48213 11.0796 3.65734C11.0277 3.58895 10.9995 3.50499 10.9995 3.41859C10.9995 3.33219 11.0277 3.24823 11.0796 3.17984C11.8752 2.72788 12.7024 2.33613 13.5546 2.00777C13.5546 2.00777 13.8106 2.00777 13.9387 2.00777C14.1889 2.26247 14.4173 2.5384 14.6214 2.83256C14.6214 2.52869 14.6214 2.00777 14.6214 1.87754C14.6214 1.74731 14.6214 1.05276 15.0055 1.57367C15.3895 2.09459 15.7736 1.92095 15.9443 1.57367C15.8877 1.41825 15.8941 1.24632 15.9622 1.09571C16.0302 0.945107 16.1542 0.828158 16.307 0.770593C16.4598 0.713028 16.6288 0.719563 16.7769 0.788761C16.9249 0.857958 17.0399 0.984151 17.0965 1.13958C17.0965 1.13958 17.0965 1.13958 17.0965 1.40003C17.0965 0.3582 17.8646 1.40003 18.2486 1.40003C18.5473 0.27138 19.0594 1.40003 19.4435 1.40003C19.4435 0.922527 19.7849 1.40003 19.9129 1.40003C20.0409 1.40003 19.9129 1.13958 20.1689 1.13958C20.425 1.13958 20.809 1.96436 21.1504 1.13958C21.4918 1.13958 21.9185 0.792297 22.1319 1.57367C22.9427 0.835707 23.7108 1.57367 24.4789 1.57367C25.247 1.57367 24.9056 1.57367 24.9056 2.00777C24.9056 2.44187 25.1616 2.48528 25.503 2.00777C25.5874 1.95824 25.683 1.93217 25.7804 1.93217C25.8778 1.93217 25.9734 1.95824 26.0578 2.00777C26.847 2.21748 27.6177 2.49335 28.3621 2.83256C28.7035 2.83256 28.9595 3.35348 29.3009 3.52712C29.6631 3.63802 30.0192 3.76843 30.3678 3.9178C30.7234 4.09441 31.0657 4.29754 31.3919 4.52554L32.3307 5.2201C32.5441 5.2201 32.8428 5.56738 32.8428 6.04488C32.8428 6.52239 33.4402 6.43557 33.8669 6.52239C34.2937 6.60921 33.8669 7.434 34.379 7.39059C34.8911 7.34718 34.8057 7.39059 34.9764 7.69446C35.8805 8.68868 36.6946 9.76381 37.4088 10.9068C37.4088 11.2107 37.1954 11.775 37.8355 11.8618C38.4756 11.9486 37.6222 12.2525 37.5368 12.4261C37.4515 12.5998 37.5368 12.6866 37.5368 12.4261C38.6036 12.4261 38.4756 12.9036 38.6463 13.2943C39.144 14.4807 39.5159 15.7176 39.7558 16.9842C39.7558 16.9842 39.9692 17.4183 39.7558 17.5485C39.5424 17.6787 38.945 18.1562 39.7558 18.2864C38.945 18.6771 38.9877 18.8942 39.7558 19.0678C39.7558 19.5019 39.7558 19.936 39.7558 20.4135C39.7558 20.891 38.945 20.8042 38.3903 20.7608C37.8355 20.7174 37.4088 20.7608 37.4088 20.3267C37.5815 20.132 37.7252 19.9126 37.8355 19.6756ZM18.0353 37.4736C17.7792 37.4736 17.5659 37.4736 17.3952 38.2115C17.1172 38.9224 17.1172 39.7146 17.3952 40.4254C17.3952 40.4254 17.7792 40.9464 17.9926 40.9464C19.1448 40.9464 20.3823 41.7277 21.4918 40.7293C21.4918 40.7293 21.8758 40.7293 21.9612 40.7293C22.0465 40.7293 22.7293 41.0766 23.1133 41.0332C23.4663 41.0956 23.8272 41.0956 24.1802 41.0332C24.5216 41.0332 24.9056 41.0332 25.119 40.5123C25.3323 39.9913 25.8444 40.903 25.9724 40.2084C27.0188 39.989 28.0261 39.6084 28.9595 39.0797C29.557 38.6891 30.5384 39.0797 30.7091 37.7774C30.7091 37.517 31.2639 37.7774 31.4772 37.7774C31.6906 37.7774 31.6906 36.6922 31.4772 36.4317C31.1652 36.091 30.8057 35.7985 30.4104 35.5635C30.4104 35.5635 30.1117 35.5635 30.0264 35.5635L29.0449 36.1279L27.9781 36.6922C27.6666 36.8924 27.318 37.0254 26.9539 37.0829C26.6125 37.0829 26.3565 37.6906 25.8444 37.0829C25.3323 36.4752 25.2897 37.6038 24.9483 37.6472C24.6069 37.6906 24.6496 37.6472 24.5216 37.6472C24.3935 37.6472 23.9668 37.2999 23.7961 37.6472C23.6254 37.9945 23.028 37.6472 22.6866 37.6472C22.3452 37.6472 21.8332 37.4302 21.4064 38.0813C20.9797 38.7325 20.9797 37.7774 20.7663 37.734C20.3263 37.6923 19.8835 37.6923 19.4435 37.734C18.9662 37.6993 18.494 37.612 18.0353 37.4736ZM39.6705 20.8042C39.3031 20.7427 38.9283 20.7427 38.561 20.8042C38.2622 20.8042 37.8782 21.0647 37.9209 21.1949C37.9635 21.3251 37.4088 22.1065 38.2196 22.6274V22.9747C37.4941 22.9747 37.7502 23.4522 37.7075 23.7127C37.7075 24.6677 37.2808 25.5793 37.0247 26.4909C36.7687 27.4025 36.0859 28.1405 36.2139 29.2691C36.2139 29.7032 36.2139 30.1373 35.3605 30.0939C35.7872 30.9187 35.0618 31.1357 34.7631 31.5264C34.4644 31.9171 34.4217 32.5683 33.5682 32.4815C32.7148 32.3946 33.0561 32.4815 33.2268 33.1326C33.3975 33.7837 33.2268 33.5667 33.2268 33.5667C32.2454 33.3062 32.2454 34.1744 31.6906 34.4349C31.1359 34.6954 31.6906 34.7822 31.6906 34.6954C31.6906 34.6085 31.3066 35.086 31.6906 35.5201C31.9429 35.994 32.3506 36.3627 32.8428 36.562C33.3122 36.562 33.2695 36.3015 33.6536 36.3449C33.7513 36.3656 33.8525 36.3628 33.949 36.3366C34.0455 36.3104 34.1347 36.2616 34.2093 36.1941C34.284 36.1266 34.342 36.0423 34.3789 35.9479C34.4158 35.8535 34.4304 35.7516 34.4217 35.6504C34.4217 35.0426 34.8484 35.3465 34.8911 34.9992C34.9997 34.7018 35.1751 34.4343 35.4032 34.2178C38.106 31.5293 39.9626 28.0844 40.7373 24.3204C40.7373 24.3204 40.7373 24.0165 40.7373 23.8429C40.5068 23.5789 40.2324 23.3585 39.9265 23.1918V22.8445C40.6946 22.8445 40.2679 22.2367 40.3959 21.9763C40.5239 21.7158 40.7799 21.1081 39.6705 20.8042Z" fill="#F2705A"/>
<path id="Vector_2" d="M14.4508 15.9859C15.8413 15.9859 16.9685 14.8392 16.9685 13.4247C16.9685 12.0102 15.8413 10.8635 14.4508 10.8635C13.0603 10.8635 11.9331 12.0102 11.9331 13.4247C11.9331 14.8392 13.0603 15.9859 14.4508 15.9859Z" fill="#F2705A"/>
<path id="Vector_3" d="M13.6826 24.7543C13.6826 26.3085 14.2896 27.7991 15.3699 28.8981C16.4503 29.9972 17.9156 30.6146 19.4435 30.6146C20.9713 30.6146 22.4366 29.9972 23.517 28.8981C24.5974 27.7991 25.2043 26.3085 25.2043 24.7543" fill="#F2705A"/>
<path id="Vector_4" d="M25.2469 16.0292C26.8731 16.0292 28.1914 14.6882 28.1914 13.034C28.1914 11.3797 26.8731 10.0387 25.2469 10.0387C23.6208 10.0387 22.3025 11.3797 22.3025 13.034C22.3025 14.6882 23.6208 16.0292 25.2469 16.0292Z" fill="#F2705A"/>
</g>
</svg>
