<svg width="281" height="283" viewBox="0 0 281 283" fill="none" xmlns="http://www.w3.org/2000/svg">
<g clip-path="url(#clip0_7683_23968)">
<path opacity="0.1" d="M15.9689 158.345C16.2126 160.658 17.4064 162.688 19.2751 163.986C26.7064 167.024 83.5064 171.107 93.0876 170.42C82.4939 178.462 52.2064 194.911 53.5064 204.932C53.8751 207.781 55.6814 210.415 58.3064 211.638C59.2876 212.23 60.4189 212.772 61.6251 212.715C73.9939 212.129 121.975 183.876 121.975 183.876C119.169 193.871 117.1 204.056 115.8 214.285C115.438 217.146 116.55 219.881 118.781 221.595C121.094 223.372 124.381 223.996 126.938 222.685C134.963 218.576 138.988 200.111 142.375 191.754C146.381 201.207 148.75 211.486 151.225 222.206C153.456 231.874 155.763 241.876 159.406 251.285C162.519 259.321 166.4 266.386 170.95 272.272C173 274.925 176.588 276.022 179.875 275.001C182.938 274.056 184.969 271.478 185.181 268.283C185.663 260.985 184.475 254.084 183.256 248.285C182.275 243.628 170.65 190.191 170.65 190.191L219.994 222.566C223.381 224.784 227.325 224.513 230.056 221.872C233.075 218.955 233.413 214.114 230.806 211.083C228.356 208.234 204.238 182.199 196.213 174.467L223.563 174.977C242.956 175.538 247.375 172.658 248.069 168.876C248.794 164.944 246.775 161.169 243.275 159.883C223.725 152.724 203.606 146.535 183.356 141.455C197.931 126.928 252.863 78.243 259.088 71.3987C261.681 68.5501 261.831 64.5103 259.55 61.5104C258.706 59.9727 257.419 58.7689 255.863 58.0631C255.556 57.9244 255.231 57.8047 254.906 57.7038C252.688 57.0295 250.338 57.4076 248.288 58.7626L165.925 113.208C165.875 90.4191 162.675 30.7048 158.938 21.2702C157.594 17.8859 153.919 15.9826 150.294 16.512C146.781 17.0288 144.65 19.7514 143.756 23.2365C141.875 30.5661 137.463 78.9489 135.813 99.4755C125.5 84.9235 92.1939 49.5234 83.9564 43.8451C81.2939 42.0111 77.9751 41.4943 75.1001 43.0888C72.2689 44.6518 70.2564 47.8029 71.0376 50.9226C74.9751 66.6468 109.538 109.622 116.7 120.008C110.456 118.729 65.7564 105.192 58.4626 111.198C56.2314 113.038 54.6064 115.496 54.8501 118.521C55.1001 121.622 56.9501 124.225 59.6939 125.315C73.6001 130.836 87.4876 136.81 101.169 143.169C81.1501 144.468 23.4751 149.547 23.4751 149.547C21.4001 149.566 19.4626 150.474 18.0189 152.112C16.5001 153.827 15.7314 156.171 15.9626 158.37L15.9689 158.345Z" fill="#644E8C"/>
<path d="M64.9001 44.532L56.1126 52.9267C55.3376 53.6641 55.3063 54.9056 56.0376 55.6871L59.8376 59.7332C62.3876 62.4495 66.6938 62.8402 69.4563 60.3508C72.3188 57.7795 72.4938 53.3364 69.8688 50.5381L69.2001 49.8323L69.5501 49.4982C70.9063 48.2 70.9626 46.0383 69.6813 44.6644C68.3938 43.2968 66.2501 43.2401 64.8876 44.532H64.9001ZM64.4688 47.6328L66.4688 49.7566L59.4376 56.4686L57.4376 54.3447L64.4688 47.6328ZM68.2251 48.0802L67.8751 48.4143L65.8751 46.2904L66.2251 45.9564C66.8063 45.4017 67.7251 45.427 68.2813 46.0131C68.8376 46.5992 68.8063 47.5256 68.2251 48.0865V48.0802ZM66.0563 64.9452L75.9001 55.5485C76.2876 55.1766 76.9001 55.1955 77.2688 55.5863C77.6376 55.977 77.6188 56.5946 77.2313 56.9665L67.3876 66.3632C67.0001 66.735 66.3876 66.7161 66.0188 66.3254C65.6501 65.9347 65.6688 65.317 66.0563 64.9452Z" fill="#644E8C"/>
<path d="M221.388 88.2761C217.913 88.2761 215.094 91.1184 215.094 94.6225C215.094 98.1266 217.913 100.969 221.388 100.969C221.969 100.969 222.438 100.496 222.438 99.9101C222.438 99.6328 222.331 99.387 222.162 99.198C222 99.0152 221.894 98.7694 221.894 98.4984C221.894 97.9123 222.362 97.4396 222.944 97.4396H224.181C226.113 97.4396 227.675 95.8577 227.675 93.9103C227.675 90.7907 224.856 88.2698 221.381 88.2698L221.388 88.2761ZM217.538 94.6225C216.956 94.6225 216.487 94.1498 216.487 93.5637C216.487 92.9776 216.956 92.5049 217.538 92.5049C218.119 92.5049 218.587 92.9776 218.587 93.5637C218.587 94.1498 218.119 94.6225 217.538 94.6225ZM219.637 91.8054C219.056 91.8054 218.587 91.3327 218.587 90.7466C218.587 90.1605 219.056 89.6878 219.637 89.6878C220.219 89.6878 220.687 90.1605 220.687 90.7466C220.687 91.3327 220.219 91.8054 219.637 91.8054ZM223.131 91.8054C222.55 91.8054 222.081 91.3327 222.081 90.7466C222.081 90.1605 222.55 89.6878 223.131 89.6878C223.712 89.6878 224.181 90.1605 224.181 90.7466C224.181 91.3327 223.712 91.8054 223.131 91.8054ZM225.231 94.6225C224.65 94.6225 224.181 94.1498 224.181 93.5637C224.181 92.9776 224.65 92.5049 225.231 92.5049C225.813 92.5049 226.281 92.9776 226.281 93.5637C226.281 94.1498 225.813 94.6225 225.231 94.6225Z" fill="#644E8C"/>
<path d="M265.506 107.284L261.044 111.04C260.225 111.727 260.113 112.969 260.8 113.788L261.419 114.538L256.213 118.918C255.806 119.265 255.75 119.882 256.088 120.292C256.425 120.702 257.044 120.758 257.45 120.418L270.738 109.238C271.219 108.828 271.2 108.072 270.694 107.694C268.956 106.408 266.606 106.351 265.5 107.284H265.506ZM260.169 105.412L258.925 103.912L263.388 100.156C263.794 99.8094 263.85 99.1918 263.513 98.7822C263.175 98.3725 262.556 98.3158 262.15 98.6561L257.688 102.412L256.444 100.912L260.906 97.1562C261.313 96.8095 261.369 96.1919 261.031 95.7823C260.688 95.3726 260.075 95.3159 259.669 95.6562L255.206 99.4124C253.563 100.793 253.344 103.257 254.713 104.914L248.763 109.918C248.356 110.265 248.3 110.883 248.638 111.292C248.975 111.702 249.594 111.759 250 111.418L255.95 106.414C257.319 108.072 259.763 108.292 261.406 106.912L265.869 103.156C266.275 102.809 266.331 102.192 265.994 101.782C265.656 101.372 265.038 101.316 264.631 101.656L260.169 105.412Z" fill="#644E8C"/>
<path d="M192.281 13.8019L191.331 13.6191L189.863 21.289C189.763 21.8184 189.25 22.1651 188.725 22.0642L177.319 19.8395L177.137 20.7975C176.937 21.8499 177.625 22.8835 178.669 23.0852L188.175 24.9381L191.244 29.5136L193.819 16.0896C194.019 15.0372 193.331 14.0036 192.281 13.8019ZM188.513 18.0371L189.8 11.3314C190 10.2726 189.312 9.24535 188.269 9.04367L177.813 7.00803C176.769 6.80635 175.744 7.49961 175.544 8.55839L173.156 21.018L177.694 17.9236L186.25 19.5937C187.294 19.7954 188.319 19.1021 188.519 18.0434L188.513 18.0371Z" fill="#644E8C"/>
<path d="M248.919 162.183L245.388 160.576L246.181 158.799C246.625 157.809 246.194 156.662 245.213 156.215L241.681 154.608C240.7 154.16 239.563 154.595 239.119 155.585L238.325 157.362L234.794 155.755C233.813 155.307 232.681 155.755 232.238 156.738L227.85 166.525C227.406 167.515 227.838 168.662 228.819 169.109L242.944 175.538C243.925 175.985 245.063 175.55 245.506 174.561L249.888 164.773C250.331 163.784 249.9 162.631 248.919 162.19V162.183ZM243.625 159.776L240.094 158.169L240.888 156.391L244.419 157.998L243.625 159.776Z" fill="#ED6A53"/>
<path d="M28.2939 109.559L25.4939 105.576L28.6501 103.313L31.4501 107.297C31.7564 107.738 32.3689 107.839 32.8001 107.53L35.1689 105.834C35.6064 105.526 35.7064 104.908 35.4001 104.473L31.4751 98.8956L32.8189 97.9376C33.1814 97.6792 33.0376 97.0994 32.5939 97.0553L21.7689 95.7822C21.2814 95.7255 20.8189 96.0532 20.7126 96.5385L18.3314 107.259C18.2314 107.687 18.7189 108.028 19.0814 107.763L20.4251 106.805L24.3501 112.383C24.6564 112.824 25.2689 112.925 25.7001 112.616L28.0689 110.92C28.5064 110.612 28.6064 109.994 28.3001 109.559H28.2939Z" fill="#ED6A53"/>
<path d="M77.2313 91.0303L76.4313 91.3958L73.4438 84.7847C72.8751 83.5242 71.3876 82.9633 70.1376 83.5368C69.5376 83.8141 69.0688 84.3183 68.8376 84.9485L68.2938 86.417C68.1501 86.4359 68.0001 86.4737 67.8563 86.543C67.5376 86.688 67.2813 86.9211 67.1063 87.1984L70.3313 88.4148C70.3751 88.0871 70.3376 87.7468 70.1938 87.4253C70.1251 87.2804 70.0438 87.1606 69.9501 87.0409L70.4938 85.5725C70.5563 85.396 70.6938 85.2447 70.8688 85.1628C71.2376 84.9926 71.6688 85.1565 71.8376 85.5283L74.8251 92.1395L69.3313 94.6667C69.0126 94.61 68.7126 94.5154 68.4126 94.3894L66.7251 93.652C66.4938 93.5512 66.2438 93.5071 65.9876 93.5008C65.6813 93.4945 65.3813 93.5575 65.1001 93.6835C64.1063 94.1436 63.6688 95.3221 64.1251 96.3305L64.4001 96.9355L62.7938 97.6729C62.3501 97.8745 62.1563 98.4039 62.3563 98.8451L64.1876 102.891C64.5876 103.78 65.6376 104.177 66.5251 103.774C66.7251 104.221 67.2501 104.416 67.6938 104.215L78.9251 99.0531C79.3688 98.8514 79.5626 98.322 79.3626 97.8746C80.2438 97.4712 80.6376 96.4124 80.2376 95.5238L78.4063 91.4777C78.2063 91.0365 77.6813 90.8349 77.2376 91.0365L77.2313 91.0303Z" fill="#644E8C"/>
<path d="M204.7 61.586L200.069 52.1829L200.463 51.3888C202.106 51.685 203.831 50.7271 204.325 48.9246C204.669 47.6705 204.244 46.2588 203.244 45.4269C201.894 44.305 200.1 44.4059 198.906 45.389C198.356 45.8428 198.438 46.7125 199.069 47.0339C199.406 47.2041 199.813 47.1726 200.094 46.9331C200.531 46.555 201.156 46.4541 201.7 46.7314C202.419 47.097 202.706 47.973 202.344 48.6977C201.981 49.4225 201.081 49.725 200.369 49.3343C199.906 49.0885 199.331 49.3028 199.1 49.7691L198.331 51.3069L188.081 53.1535C187.163 53.3173 186.988 54.5652 187.819 54.9874L203.388 62.8905C204.219 63.3128 205.106 62.4242 204.688 61.586H204.7ZM191.294 54.5589L198.444 53.2669L201.675 59.8276L191.294 54.5589Z" fill="#ED6A53"/>
<path d="M261.606 46.7441L258.756 45.5088L259.369 44.0719C259.706 43.2778 259.338 42.3577 258.556 42.0174L255.706 40.7821C254.925 40.4418 254.006 40.8136 253.669 41.6014L253.056 43.0383L250.206 41.8031C249.425 41.4628 248.506 41.8346 248.169 42.6224L244.5 51.2376C244.163 52.0317 244.531 52.9519 245.313 53.2922L256.7 58.2206C257.481 58.5609 258.4 58.1891 258.738 57.4013L262.406 48.786C262.744 47.9983 262.375 47.0718 261.594 46.7378L261.606 46.7441ZM255.1 42.2253L257.95 43.4606L257.338 44.8975L254.488 43.6623L255.1 42.2253ZM255.294 51.6599L253.869 51.0423L253.256 52.4792C253.088 52.8762 252.631 53.059 252.238 52.8888C251.844 52.7187 251.663 52.2586 251.831 51.8616L252.444 50.4246L251.019 49.807C250.625 49.6368 250.444 49.1768 250.613 48.7797C250.781 48.3827 251.238 48.1999 251.631 48.3701L253.056 48.9877L253.669 47.5508C253.838 47.16 254.294 46.971 254.688 47.1411C255.081 47.3113 255.263 47.7714 255.094 48.1684L254.481 49.6053L255.906 50.223C256.3 50.3931 256.481 50.8532 256.313 51.2502C256.144 51.6473 255.688 51.83 255.294 51.6599Z" fill="#ED6A53"/>
<path d="M114.106 23.2996C115.075 22.8521 115.5 21.6925 115.056 20.7156L111.05 11.8231C110.606 10.8462 109.456 10.4114 108.488 10.8588L94.3876 17.3376C93.4189 17.785 92.9876 18.9447 93.4251 19.9215L97.4376 28.8078C97.8814 29.7846 99.0314 30.2195 100 29.772L97.3564 30.9884C96.8689 31.2089 96.6564 31.7951 96.8751 32.2803C97.0939 32.7656 97.6751 32.9862 98.1564 32.7593L117.544 23.8542C118.031 23.6336 118.244 23.0475 118.025 22.5622C117.806 22.0769 117.225 21.8563 116.744 22.0769L114.1 23.2933L114.106 23.2996ZM96.0689 18.7115L108.406 13.0457C108.894 12.8251 109.469 13.0457 109.688 13.531L112.9 20.64C113.119 21.1316 112.9 21.7114 112.419 21.932L100.081 27.5977C99.5939 27.8183 99.0189 27.5977 98.8001 27.1124L95.5876 20.0035C95.3689 19.5119 95.5876 18.9321 96.0689 18.7115Z" fill="#ED6A53"/>
<path d="M69.9813 143.818C69.5501 143.396 68.8813 143.283 68.3126 143.579L58.8501 148.514C58.2813 148.81 57.9938 149.421 58.0751 150.026L58.9001 155.831C58.9313 156.045 59.0001 156.253 59.1001 156.454L62.2876 162.662C62.6563 163.387 63.5313 163.664 64.2438 163.292C64.9563 162.921 65.2376 162.038 64.8688 161.32L64.6438 160.885L74.9626 155.503L75.1876 155.938C75.5501 156.65 76.4313 156.94 77.1438 156.568C77.8501 156.202 78.1376 155.314 77.7688 154.595L74.5813 148.387C74.4813 148.198 74.3438 148.016 74.1938 147.864L69.9751 143.831L69.9813 143.818ZM63.7438 158.055C63.0313 158.427 62.1563 158.143 61.7876 157.425C61.4188 156.707 61.6938 155.824 62.4126 155.452C63.1313 155.081 64.0001 155.364 64.3688 156.083C64.7376 156.801 64.4626 157.683 63.7438 158.055ZM73.2063 153.121C72.4938 153.492 71.6188 153.209 71.2501 152.49C70.8813 151.772 71.1563 150.89 71.8751 150.518C72.5938 150.146 73.4626 150.429 73.8313 151.148C74.2001 151.866 73.9251 152.749 73.2063 153.121ZM60.2313 154.394L59.6251 150.511C59.5688 150.102 59.7688 149.692 60.1376 149.497L68.3626 145.205C68.7313 145.009 69.1813 145.085 69.4813 145.369L72.2751 148.11L60.2313 154.394Z" fill="#ED6A53"/>
<path d="M159.706 242.33C160.044 243.155 160.931 243.672 161.806 243.59C161.938 243.577 162.05 243.546 162.15 243.514C163.363 243.42 164.619 242.462 165.056 241.403C165.8 239.601 164.344 237.71 162.425 238.183C160.875 238.567 159.019 240.659 159.706 242.336V242.33Z" fill="#F3968A"/>
<path d="M151.038 247.561C151.05 247.781 151.238 247.926 151.475 247.914C151.513 247.914 151.544 247.907 151.575 247.895C151.9 247.882 152.319 247.643 152.538 247.372C152.9 246.905 152.694 246.395 152.144 246.502C151.7 246.59 151.019 247.119 151.044 247.561H151.038Z" fill="#F3968A"/>
<path d="M172.881 232.492C174.3 233.311 176.7 233.065 178.594 231.956C178.875 231.792 179.1 231.622 179.3 231.452C181.931 229.939 183.975 227.122 184.1 225.074C184.319 221.589 179.538 220.473 175.625 223.341C172.469 225.654 170 230.815 172.881 232.485V232.492Z" fill="#F3968A"/>
<path d="M81.475 230.551L133.931 168.385C133.931 168.385 165.619 130.432 178.238 118.868C179.831 117.595 189.456 109.912 196.738 105.627C197.725 105.047 200.525 103.427 203.581 104.057C205.275 104.404 206.2 105.267 206.375 105.444C207.725 106.742 207.944 108.463 208.019 109.068C208.475 112.635 205.169 116.416 200.113 121.628C194.588 127.325 193.356 128.157 190.919 130.766C188.194 133.684 184.531 138.235 181.144 144.896L188.338 182.666C185.256 190.682 181.825 196.726 179.225 200.798C172.95 210.635 165.212 218.879 156.237 228.439C152.269 232.668 151.287 233.513 149.1 236.28C143.175 243.786 139.769 251.052 137.794 256.132C128.931 254.304 117.675 251.096 105.437 245.21C95.6625 240.508 87.6875 235.271 81.4688 230.551H81.475Z" fill="#644E8C"/>
<path opacity="0.2" d="M179.106 118.408C179.106 118.408 189.719 109.761 195.806 106.194L186.769 136.142C184.519 138.966 181.15 144.903 181.15 144.903L179.106 118.414V118.408Z" fill="#3F346A"/>
<path opacity="0.2" d="M131.763 187.134L130.744 182.886L175.069 185.578C175.069 185.578 174.688 190.317 173.844 192.491C173 194.659 170.975 193.941 170.975 193.941L131.763 187.141V187.134Z" fill="#3F346A"/>
<path d="M170.9 192.428L122.125 182.924C121.331 182.767 120.631 182.3 120.175 181.626L118.131 177.284L141.569 74.7138L190.775 80.4993L193.869 83.9908C194.325 84.6651 194.487 85.497 194.337 86.2974L174.469 189.995C174.15 191.666 172.55 192.756 170.894 192.434L170.9 192.428Z" fill="#ED6A53"/>
<path d="M189.033 79.5478L141.219 70.2281C139.527 69.8985 137.891 71.0137 137.565 72.719L117.896 175.325C117.569 177.03 118.675 178.679 120.366 179.009L168.181 188.329C169.872 188.658 171.508 187.543 171.835 185.838L191.504 83.2323C191.831 81.5271 190.725 79.8774 189.033 79.5478Z" fill="#F3968A"/>
<path d="M183.59 87.1284L143.464 79.3074C141.773 78.9777 140.137 80.0929 139.81 81.7982L124.284 162.796C123.957 164.501 125.063 166.151 126.754 166.481L166.88 174.302C168.571 174.631 170.207 173.516 170.534 171.811L186.06 90.8129C186.387 89.1076 185.281 87.458 183.59 87.1284Z" fill="#FEF4F3"/>
<path d="M171.755 79.7215L161.992 77.8186C161.575 77.7373 161.172 78.0122 161.092 78.4326C161.011 78.8529 161.284 79.2595 161.7 79.3408L171.464 81.2437C171.88 81.325 172.284 81.0501 172.364 80.6297C172.445 80.2094 172.172 79.8028 171.755 79.7215Z" fill="#ED6A53"/>
<path d="M157.05 78.4699C157.509 78.4699 157.881 78.0947 157.881 77.6317C157.881 77.1688 157.509 76.7935 157.05 76.7935C156.591 76.7935 156.219 77.1688 156.219 77.6317C156.219 78.0947 156.591 78.4699 157.05 78.4699Z" fill="#ED6A53"/>
<path d="M145.5 181.04C147.526 181.04 149.169 179.384 149.169 177.34C149.169 175.297 147.526 173.641 145.5 173.641C143.474 173.641 141.831 175.297 141.831 177.34C141.831 179.384 143.474 181.04 145.5 181.04Z" fill="#ED6A53"/>
<path opacity="0.2" d="M171.219 169.053C168.387 170.824 165.369 173.181 165.369 173.181C165.369 173.181 156.731 178.538 161.025 185.426C165.319 192.315 172.306 188.981 176.962 186.126C181.881 183.113 183.544 180.681 183.544 180.681L171.225 169.053H171.219Z" fill="#3F346A"/>
<path opacity="0.2" d="M123.831 144.178L125.381 136.356C126.131 139.218 126.463 142.003 126.625 143.699C127.113 148.747 127.356 164.975 125.406 170.099L120.8 169.557L123.838 144.171L123.831 144.178Z" fill="#3F346A"/>
<path opacity="0.2" d="M199.344 152.629C195.113 140.503 175.244 148.659 170.338 151.123C165.431 153.593 164.294 158.692 165.744 162.372C167.194 166.053 173.706 167.351 173.706 167.351C173.706 167.351 202.613 161.452 199.338 152.629H199.344Z" fill="#3F346A"/>
<path d="M190.025 171.776C190.587 171.309 203.644 160.268 200.656 149.743C200.412 148.879 199.856 146.787 198.031 145.186C195.356 142.835 191.75 143.088 189.087 143.314C185.662 143.604 182.387 145.186 175.981 148.337C169.919 151.318 168.594 152.446 167.794 154.224C167.625 154.596 166.281 157.74 167.656 160.677C169.131 163.828 172.844 164.975 174.219 165.398C174.375 165.448 174.5 165.48 174.594 165.505L190.025 171.776Z" fill="#644E8C"/>
<path d="M105.862 212.482C105.012 211.795 104.337 211.354 103.881 210.938C101.687 208.915 97.7437 204.112 97.5624 192.983C97.2999 176.836 105.356 172.254 107.725 153.562C109.6 138.764 106.387 127.054 111.725 124.672C113.644 123.815 115.737 124.59 116.325 124.798C122.619 127.016 124.025 137.856 124.431 142.041C124.919 147.089 125.162 163.318 123.212 168.441C123.212 168.441 134.781 174.158 133.769 194.306C132.756 214.455 112.775 218.072 105.869 212.482H105.862Z" fill="#644E8C"/>
<path d="M184.638 179.571C184.638 179.571 182.844 181.33 178.338 184.941C173.831 188.552 166.413 191.205 162.119 184.317C157.825 177.435 166.175 172.57 166.175 172.57C166.175 172.57 169.2 170.206 172.025 168.442C174.856 166.671 183.356 161.931 188.744 168.782C192.188 173.156 188.338 182.672 188.338 182.672" fill="#644E8C"/>
<path d="M109.006 128.605C110.331 128.353 113.075 131.932 113.088 135.437C113.094 137.718 111.213 141.247 108.4 141.247C108.156 141.247 107.244 137.731 107.938 132.682C108.431 129.09 109.006 128.605 109.006 128.605Z" fill="#9383AF"/>
<path d="M172.075 176.843C171.881 176.546 170.875 175.065 169.044 174.964C168.194 174.92 167.262 175.198 166.281 175.897C165.981 176.111 165.3 176.565 164.787 177.359C163.975 178.626 163.669 180.611 164.662 182.029C166.037 183.983 169.175 183.851 170.981 182.578C171.231 182.401 172.325 181.588 172.706 180.145C173.15 178.462 172.294 177.17 172.069 176.836L172.075 176.843Z" fill="#9383AF"/>
<path d="M178.475 153.455C178.275 153.152 177.25 151.64 175.356 151.558C174.475 151.52 173.512 151.816 172.494 152.541C172.181 152.768 171.469 153.24 170.937 154.06C170.087 155.371 169.75 157.412 170.769 158.856C172.175 160.847 175.419 160.683 177.294 159.36C177.556 159.177 178.694 158.326 179.1 156.845C179.575 155.112 178.7 153.795 178.475 153.455Z" fill="#9383AF"/>
<path fill-rule="evenodd" clip-rule="evenodd" d="M162.818 204.341C159.669 203.739 154.839 202.983 148.771 204.824C143.335 206.474 140.326 211.013 139.303 213.361C139.181 213.641 138.857 213.768 138.58 213.645C138.303 213.522 138.177 213.196 138.299 212.917C139.395 210.401 142.599 205.543 148.455 203.766C154.775 201.848 159.812 202.641 163.022 203.255C163.319 203.311 163.515 203.601 163.458 203.901C163.402 204.201 163.115 204.398 162.818 204.341Z" fill="#3F346A"/>
<path fill-rule="evenodd" clip-rule="evenodd" d="M123.049 168.191C123.186 167.919 123.516 167.81 123.786 167.949L123.538 168.442C123.786 167.949 123.787 167.949 123.787 167.949L123.788 167.95L123.791 167.951L123.799 167.955C123.805 167.959 123.814 167.964 123.825 167.97C123.847 167.982 123.879 167.999 123.918 168.022C123.998 168.067 124.111 168.134 124.254 168.226C124.539 168.408 124.941 168.685 125.422 169.072C126.384 169.846 127.661 171.06 128.949 172.833C131.53 176.384 134.136 182.148 134.367 191.046C134.375 191.351 134.136 191.605 133.833 191.613C133.531 191.621 133.279 191.38 133.271 191.075C133.046 182.396 130.511 176.851 128.065 173.486C126.84 171.801 125.633 170.656 124.738 169.936C124.29 169.576 123.921 169.322 123.667 169.159C123.54 169.078 123.442 169.02 123.378 168.983C123.345 168.965 123.321 168.952 123.306 168.943C123.299 168.939 123.294 168.937 123.291 168.935L123.288 168.934C123.288 168.934 123.288 168.934 123.288 168.934" fill="#3F346A"/>
<path fill-rule="evenodd" clip-rule="evenodd" d="M101.377 206.694C101.377 206.694 101.377 206.694 101.377 206.694C101.377 206.694 101.377 206.694 101.377 206.694L101.377 206.694L101.376 206.694C101.376 206.694 101.376 206.694 101.377 206.694Z" fill="#3F346A"/>
<path fill-rule="evenodd" clip-rule="evenodd" d="M183.95 180.309C184.153 180.535 184.136 180.885 183.912 181.09C182.343 182.527 180.539 184.033 178.49 185.527C177.181 186.484 176.767 186.739 175.717 187.383C175.604 187.453 175.484 187.526 175.354 187.606C175.096 187.765 174.759 187.683 174.601 187.422C174.443 187.162 174.525 186.821 174.783 186.662C174.914 186.582 175.036 186.507 175.149 186.438C176.186 185.801 176.573 185.563 177.847 184.632L177.848 184.632C179.861 183.164 181.633 181.683 183.175 180.271C183.4 180.066 183.746 180.083 183.95 180.309Z" fill="#3F346A"/>
<path fill-rule="evenodd" clip-rule="evenodd" d="M190.302 158.089C190.463 158.348 190.386 158.689 190.129 158.851C189.849 159.029 189.459 159.279 188.991 159.578C186.533 161.153 181.94 164.096 180.013 165.032L180.012 165.032C178.521 165.755 178.083 165.926 176.864 166.402C176.77 166.439 176.671 166.477 176.567 166.518C176.285 166.628 175.967 166.487 175.858 166.203C175.748 165.918 175.888 165.598 176.171 165.487C176.277 165.446 176.378 165.406 176.473 165.369C177.674 164.9 178.085 164.74 179.537 164.036C181.396 163.133 185.892 160.254 188.367 158.668C188.847 158.36 189.252 158.101 189.546 157.915C189.802 157.753 190.141 157.831 190.302 158.089Z" fill="#3F346A"/>
<path fill-rule="evenodd" clip-rule="evenodd" d="M176.659 166.541C176.403 166.702 176.064 166.624 175.904 166.365C175.743 166.106 175.822 165.765 176.078 165.603L176.369 166.072C176.078 165.603 176.079 165.603 176.079 165.603L176.08 165.602L176.082 165.601L176.09 165.596C176.096 165.592 176.105 165.587 176.116 165.58C176.139 165.566 176.172 165.546 176.215 165.521C176.3 165.471 176.422 165.402 176.579 165.318C176.891 165.151 177.339 164.928 177.886 164.701C178.976 164.249 180.485 163.771 182.119 163.702C183.759 163.633 185.545 163.977 187.143 165.192C188.739 166.405 190.087 168.44 190.942 171.638C191.021 171.933 190.848 172.236 190.555 172.315C190.263 172.395 189.962 172.22 189.883 171.926C189.073 168.894 187.832 167.1 186.483 166.075C185.135 165.051 183.618 164.746 182.164 164.807C180.703 164.868 179.326 165.299 178.303 165.723C177.794 165.934 177.379 166.141 177.093 166.294C176.949 166.371 176.839 166.434 176.765 166.477C176.728 166.499 176.701 166.515 176.683 166.526C176.674 166.532 176.667 166.536 176.663 166.538L176.659 166.541L176.659 166.541Z" fill="#3F346A"/>
<path fill-rule="evenodd" clip-rule="evenodd" d="M67.0939 216.909C67.6272 216.412 68.4595 216.444 68.953 216.982C75.6321 224.259 86.3918 234.242 101.85 242.441C121.376 252.797 139.415 255.542 150.201 256.327C150.926 256.38 151.471 257.015 151.418 257.746C151.366 258.477 150.736 259.026 150.011 258.974C138.998 258.171 120.573 255.369 100.625 244.789L100.625 244.789C84.8331 236.413 73.8428 226.216 67.0219 218.784C66.5284 218.246 66.5606 217.407 67.0939 216.909Z" fill="#3F346A"/>
<path d="M166.481 133.3L167.306 132.544C167.306 132.544 167.331 132.512 167.344 132.493L167.8 131.466C167.825 131.397 167.894 131.359 167.962 131.384C168 131.397 168.025 131.422 168.044 131.46L168.662 133.344C168.687 133.42 168.637 133.502 168.562 133.527C168.55 133.527 168.537 133.527 168.525 133.527H166.556C166.487 133.52 166.431 133.457 166.437 133.388C166.437 133.35 166.456 133.313 166.487 133.294L166.481 133.3Z" fill="#ED6A53"/>
<path d="M145.962 115.509L145.137 116.265C145.137 116.265 145.112 116.296 145.1 116.315L144.644 117.342C144.619 117.412 144.55 117.45 144.481 117.424C144.444 117.412 144.419 117.387 144.4 117.349L143.781 115.464C143.756 115.389 143.806 115.307 143.881 115.282C143.894 115.282 143.906 115.282 143.919 115.282H145.887C145.956 115.288 146.012 115.351 146.006 115.42C146.006 115.458 145.987 115.49 145.956 115.515L145.962 115.509Z" fill="#ED6A53"/>
<path d="M147.4 134.749L148.15 135.581C148.15 135.581 148.181 135.607 148.2 135.619L149.219 136.079C149.287 136.104 149.325 136.174 149.3 136.243C149.287 136.281 149.262 136.306 149.225 136.325L147.356 136.949C147.281 136.974 147.2 136.924 147.175 136.848C147.175 136.835 147.175 136.823 147.175 136.81V134.825C147.181 134.756 147.244 134.699 147.312 134.705C147.35 134.705 147.387 134.724 147.406 134.756L147.4 134.749Z" fill="#ED6A53"/>
<path d="M165.044 114.059L164.294 113.227C164.294 113.227 164.262 113.202 164.244 113.189L163.225 112.729C163.156 112.704 163.119 112.635 163.144 112.565C163.156 112.528 163.181 112.502 163.219 112.483L165.087 111.859C165.162 111.834 165.244 111.885 165.269 111.96C165.269 111.973 165.269 111.986 165.269 111.998V113.983C165.262 114.053 165.2 114.109 165.131 114.103C165.094 114.103 165.056 114.084 165.037 114.053L165.044 114.059Z" fill="#ED6A53"/>
<path d="M159.387 113.473C159.45 113.221 159.3 112.969 159.05 112.912C158.806 112.849 158.556 113 158.494 113.252L158.094 114.885C158.394 114.941 158.694 115.017 158.987 115.105L159.387 113.473Z" fill="#644E8C"/>
<path d="M153.05 135.354C152.987 135.607 153.137 135.859 153.387 135.915C153.637 135.978 153.887 135.827 153.944 135.575L154.35 133.924C154.05 133.867 153.75 133.791 153.456 133.703L153.05 135.354Z" fill="#644E8C"/>
<path d="M157.187 134.062L157.687 137.239C157.737 137.541 158.019 137.749 158.319 137.705C158.619 137.655 158.825 137.371 158.781 137.069L158.281 133.892C157.919 133.974 157.556 134.031 157.187 134.069V134.062Z" fill="#644E8C"/>
<path d="M155.25 114.746L154.75 111.588C154.7 111.286 154.419 111.078 154.119 111.122C153.819 111.173 153.612 111.456 153.656 111.759L154.156 114.922C154.519 114.84 154.881 114.784 155.25 114.746Z" fill="#644E8C"/>
<path d="M150.619 114.513C150.481 114.292 150.2 114.229 149.981 114.368C149.762 114.506 149.7 114.79 149.837 115.011L150.725 116.441C150.981 116.265 151.237 116.095 151.506 115.943L150.619 114.513Z" fill="#644E8C"/>
<path d="M162.606 133.817L161.712 132.373C161.456 132.55 161.2 132.714 160.931 132.865L161.825 134.308C161.962 134.529 162.244 134.592 162.462 134.453C162.681 134.315 162.744 134.031 162.606 133.81V133.817Z" fill="#644E8C"/>
<path d="M145.369 121.218C145.119 121.155 144.869 121.307 144.812 121.559C144.75 121.811 144.9 122.063 145.15 122.12L146.781 122.529C146.837 122.227 146.912 121.924 147 121.628L145.375 121.218H145.369Z" fill="#644E8C"/>
<path d="M167.075 127.609C167.325 127.672 167.575 127.521 167.631 127.269C167.694 127.017 167.544 126.764 167.294 126.708L165.662 126.298C165.6 126.601 165.531 126.903 165.437 127.199L167.069 127.609H167.075Z" fill="#644E8C"/>
<path d="M165.8 123.437L168.937 122.933C169.237 122.882 169.444 122.599 169.394 122.29C169.344 121.987 169.062 121.779 168.762 121.83L165.625 122.334C165.706 122.699 165.762 123.065 165.8 123.437Z" fill="#644E8C"/>
<path d="M146.65 125.391L143.506 125.895C143.206 125.945 143 126.229 143.044 126.531C143.094 126.834 143.375 127.042 143.675 126.998L146.819 126.493C146.737 126.128 146.681 125.762 146.644 125.391H146.65Z" fill="#644E8C"/>
<path d="M166.037 118.761C166.256 118.622 166.319 118.338 166.181 118.118C166.044 117.897 165.762 117.834 165.544 117.973L164.125 118.868C164.3 119.126 164.462 119.384 164.612 119.655L166.031 118.761H166.037Z" fill="#644E8C"/>
<path d="M146.406 130.067C146.187 130.205 146.125 130.489 146.262 130.71C146.4 130.93 146.681 130.993 146.9 130.855L148.331 129.953C148.156 129.695 147.987 129.437 147.837 129.166L146.412 130.067H146.406Z" fill="#644E8C"/>
<path d="M162.087 116.29C162.087 116.29 153.75 118.968 152.056 121.319C150.35 123.626 150.825 126.897 153.119 128.611C155.406 130.332 158.65 129.853 160.35 127.54C160.369 127.514 160.394 127.483 160.412 127.451C162.112 125.101 162.087 116.277 162.087 116.277V116.29ZM154.937 126.248C154.012 125.567 153.812 124.262 154.487 123.336C155.162 122.403 156.456 122.202 157.375 122.882C158.3 123.563 158.5 124.867 157.825 125.794C157.15 126.727 155.856 126.928 154.937 126.254V126.248Z" fill="#644E8C"/>
</g>
<defs>
<clipPath id="clip0_7683_23968">
<rect width="280" height="282.343" fill="white" transform="translate(0.5)"/>
</clipPath>
</defs>
</svg>
