<?xml version="1.0" encoding="UTF-8"?>
<!--
Soliguide: Useful information for those who need it

SPDX-FileCopyrightText: © 2024 Solinum

SPDX-License-Identifier: AGPL-3.0-only

This program is free software: you can redistribute it and/or modify
it under the terms of the GNU Affero General Public License as published
by the Free Software Foundation, either version 3 of the License, or
(at your option) any later version.

This program is distributed in the hope that it will be useful,
but WITHOUT ANY WARRANTY; without even the implied warranty of
MERCHANTABILITY or FITNESS FOR A PARTICULAR PURPOSE.  See the
GNU Affero General Public License for more details.

You should have received a copy of the GNU Affero General Public License
along with this program.  If not, see <https://www.gnu.org/licenses/>.
-->
<svg xmlns="http://www.w3.org/2000/svg" version="1.1" viewBox="0.00 0.00 97.00 96.00">
<path fill="#e65a46" d="
  M 64.28 3.56
  L 69.82 0.50
  A 0.61 0.61 0.0 0 1 70.72 0.92
  L 71.91 7.23
  A 0.47 0.47 0.0 0 1 71.13 7.66
  Q 68.32 5.03 64.48 4.57
  A 0.54 0.54 0.0 0 1 64.28 3.56
  Z"
/>
<path fill="#3c3c6e" d="
  M 35.44 17.53
  A 0.37 0.37 0.0 0 1 34.96 17.31
  L 31.44 7.69
  A 2.15 1.87 69.9 0 1 32.46 5.03
  L 32.57 4.99
  A 2.15 1.87 69.9 0 1 35.07 6.36
  L 38.59 15.98
  A 0.37 0.37 0.0 0 1 38.37 16.46
  L 35.44 17.53
  Z"
/>
<path fill="#3c3c6e" d="
  M 48.85 15.00
  A 0.59 0.59 0.0 0 1 48.30 14.38
  L 48.57 9.81
  A 2.15 1.48 -86.6 0 1 50.18 7.75
  L 50.46 7.76
  A 2.15 1.48 -86.6 0 1 51.81 10.00
  L 51.54 14.57
  A 0.59 0.59 0.0 0 1 50.91 15.12
  L 48.85 15.00
  Z"
/>
<path fill="#3c3c6e" d="
  M 35.73 60.56
  C 28.93 53.71 28.33 42.52 35.79 35.79
  Q 47.81 24.95 62.13 17.45
  Q 62.58 17.22 62.68 17.71
  Q 66.26 34.79 65.82 48.74
  C 65.33 64.04 46.39 71.30 35.73 60.56
  Z
  M 55.12 48.48
  A 7.07 7.07 0.0 0 0 48.05 41.41
  A 7.07 7.07 0.0 0 0 40.98 48.48
  A 7.07 7.07 0.0 0 0 48.05 55.55
  A 7.07 7.07 0.0 0 0 55.12 48.48
  Z"
/>
<path fill="#3c3c6e" d="
  M 24.76 24.66
  A 0.46 0.46 0.0 0 1 24.11 24.63
  L 20.88 21.09
  A 2.03 1.46 47.6 0 1 20.59 18.61
  L 20.82 18.39
  A 2.03 1.46 47.6 0 1 23.27 18.91
  L 26.50 22.45
  A 0.46 0.46 0.0 0 1 26.47 23.10
  L 24.76 24.66
  Z"
/>
<path fill="#3c3c6e" d="
  M 71.44 24.46
  A 0.32 0.32 0.0 0 1 71.46 24.01
  L 75.37 20.45
  A 1.64 1.47 -42.3 0 1 77.57 20.44
  L 77.79 20.67
  A 1.64 1.47 -42.3 0 1 77.56 22.86
  L 73.66 26.42
  A 0.32 0.32 0.0 0 1 73.20 26.40
  L 71.44 24.46
  Z"
/>
<path fill="#e65a46" d="
  M 5.53 28.21
  L 4.59 31.96
  Q 4.33 32.99 3.81 32.06
  L 0.61 26.31
  Q 0.24 25.63 1.00 25.47
  L 7.47 24.19
  A 0.44 0.44 0.0 0 1 7.91 24.88
  L 5.63 27.99
  A 0.68 0.65 70.5 0 0 5.53 28.21
  Z"
/>
<path fill="#3c3c6e" d="
  M 78.63 35.26
  A 0.37 0.37 0.0 0 1 78.85 34.79
  L 88.42 31.29
  A 2.24 1.77 -20.1 0 1 91.13 32.18
  L 91.23 32.46
  A 2.24 1.77 -20.1 0 1 89.74 34.89
  L 80.17 38.40
  A 0.37 0.37 0.0 0 1 79.69 38.18
  L 78.63 35.26
  Z"
/>
<path fill="#3c3c6e" d="
  M 15.25 45.30
  L 15.25 47.20
  Q 15.25 47.79 14.67 47.78
  Q 12.06 47.74 9.52 47.44
  Q 7.60 47.21 7.93 45.46
  A 1.36 1.36 0.0 0 1 9.32 44.36
  L 14.57 44.59
  Q 15.25 44.62 15.25 45.30
  Z"
/>
<path fill="#3c3c6e" d="
  M 81.17 48.51
  A 0.46 0.46 0.0 0 1 81.66 48.08
  L 86.26 48.34
  A 2.33 1.46 3.3 0 1 88.50 49.93
  L 88.49 50.23
  A 2.33 1.46 3.3 0 1 86.08 51.56
  L 81.47 51.29
  A 0.46 0.46 0.0 0 1 81.04 50.81
  L 81.17 48.51
  Z"
/>
<path fill="#3c3c6e" d="
  M 17.76 60.69
  A 0.32 0.32 0.0 0 1 17.57 61.10
  L 7.79 64.66
  A 2.05 1.81 -20.0 0 1 5.24 63.66
  L 5.17 63.45
  A 2.05 1.81 -20.0 0 1 6.48 61.05
  L 16.26 57.49
  A 0.32 0.32 0.0 0 1 16.67 57.68
  L 17.76 60.69
  Z"
/>
<path fill="#e65a46" d="
  M 95.76 69.50
  A 0.59 0.59 0.0 0 1 95.37 70.37
  L 88.85 71.65
  A 0.47 0.47 0.0 0 1 88.42 70.86
  Q 91.26 67.94 91.71 63.88
  A 0.42 0.42 0.0 0 1 92.49 63.72
  L 95.76 69.50
  Z"
/>
<rect fill="#3c3c6e" x="-3.60" y="-1.58" transform="translate(21.45,72.80) rotate(-43.2)" width="7.20" height="3.16" rx="0.77"/>
<path fill="#3c3c6e" d="
  M 71.64 71.05
  A 0.28 0.28 0.0 0 1 72.03 71.07
  L 75.66 75.01
  A 1.68 1.36 47.4 0 1 75.80 77.17
  L 75.42 77.52
  A 1.68 1.36 47.4 0 1 73.28 77.20
  L 69.65 73.26
  A 0.28 0.28 0.0 0 1 69.67 72.86
  L 71.64 71.05
  Z"
/>
<path fill="#3c3c6e" d="
  M 60.93 78.27
  A 0.38 0.38 0.0 0 1 61.42 78.50
  L 64.83 87.88
  A 2.45 1.81 70.0 0 1 63.97 90.81
  L 63.65 90.92
  A 2.45 1.81 70.0 0 1 61.11 89.24
  L 57.70 79.85
  A 0.38 0.38 0.0 0 1 57.92 79.36
  L 60.93 78.27
  Z"
/>
<path fill="#3c3c6e" d="
  M 47.38 80.80
  A 0.70 0.70 0.0 0 1 48.05 81.53
  L 47.83 85.92
  A 2.35 1.47 -87.2 0 1 46.25 88.19
  L 45.93 88.18
  A 2.35 1.47 -87.2 0 1 44.58 85.76
  L 44.79 81.37
  A 0.70 0.70 0.0 0 1 45.52 80.71
  L 47.38 80.80
  Z"
/>
<path fill="#e65a46" d="
  M 32.39 92.14
  L 26.43 95.41
  Q 25.83 95.74 25.69 95.04
  L 24.39 88.50
  A 0.43 0.43 0.0 0 1 25.10 88.09
  Q 28.16 90.84 32.26 91.41
  A 0.39 0.39 0.0 0 1 32.39 92.14
  Z"
/>
</svg>
