<?xml version="1.0" encoding="UTF-8"?>
<!--
Soliguide: Useful information for those who need it

SPDX-FileCopyrightText: © 2024 Solinum

SPDX-License-Identifier: AGPL-3.0-only

This program is free software: you can redistribute it and/or modify
it under the terms of the GNU Affero General Public License as published
by the Free Software Foundation, either version 3 of the License, or
(at your option) any later version.

This program is distributed in the hope that it will be useful,
but WITHOUT ANY WARRANTY; without even the implied warranty of
MERCHANTABILITY or FITNESS FOR A PARTICULAR PURPOSE.  See the
GNU Affero General Public License for more details.

You should have received a copy of the GNU Affero General Public License
along with this program.  If not, see <https://www.gnu.org/licenses/>.
-->

<svg xmlns="http://www.w3.org/2000/svg" version="1.1" viewBox="0.00 0.00 288.00 84.00">
<path fill="#e65a46" d="
  M 61.18 0.00
  L 61.73 0.00
  L 62.83 5.99
  A 0.49 0.49 0.0 0 1 62.00 6.42
  Q 59.60 4.04 56.20 3.72
  A 0.38 0.38 0.0 0 1 56.05 3.01
  L 61.18 0.00
  Z"
/>
<path fill="#3e3a71" d="
  M 30.75 15.17
  A 0.33 0.33 0.0 0 1 30.33 14.97
  L 27.31 6.66
  A 2.13 1.62 70.0 0 1 28.10 4.11
  L 28.19 4.07
  A 2.13 1.62 70.0 0 1 30.45 5.52
  L 33.47 13.83
  A 0.33 0.33 0.0 0 1 33.27 14.25
  L 30.75 15.17
  Z"
/>
<rect fill="#3e3a71" x="-1.40" y="-3.20" transform="translate(43.63,9.84) rotate(2.7)" width="2.80" height="6.40" rx="1.00"/>
<path fill="#3e3a71" d="
  M 34.95 56.08
  Q 27.87 52.33 26.53 44.74
  C 25.30 37.78 28.38 33.22 33.84 28.67
  Q 43.26 20.84 54.20 15.22
  Q 54.61 15.00 54.71 15.46
  Q 58.07 31.33 57.30 43.98
  C 56.65 54.57 43.98 60.85 34.95 56.08
  Z
  M 48.08 42.50
  A 6.25 6.25 0.0 0 0 41.83 36.25
  A 6.25 6.25 0.0 0 0 35.58 42.50
  A 6.25 6.25 0.0 0 0 41.83 48.75
  A 6.25 6.25 0.0 0 0 48.08 42.50
  Z"
/>
<rect fill="#3e3a71" x="-1.39" y="-3.14" transform="translate(20.03,18.49) rotate(-43.4)" width="2.78" height="6.28" rx="0.73"/>
<rect fill="#3e3a71" x="-3.17" y="-1.39" transform="translate(65.46,20.06) rotate(-43.5)" width="6.34" height="2.78" rx="0.85"/>
<rect fill="#3e3a71" x="-3.55" y="-17.45" transform="translate(154.40,37.11) rotate(0.7)" width="7.10" height="34.90" rx="1.17"/>
<path fill="#3e3a71" d="
  M 256.14 33.24
  L 256.19 20.46
  Q 256.19 19.86 256.79 19.84
  L 263.44 19.63
  Q 264.01 19.61 264.00 20.19
  L 263.44 53.85
  Q 263.43 54.38 262.90 54.40
  L 257.71 54.54
  Q 256.61 54.57 256.61 53.46
  L 256.62 52.52
  Q 256.62 51.65 255.93 52.18
  C 249.75 56.85 241.94 53.63 240.10 46.49
  C 237.59 36.68 245.92 27.84 255.72 33.48
  Q 256.13 33.72 256.14 33.24
  Z
  M 251.9230 47.8600
  A 4.86 4.57 90.2 0 0 256.5100 43.0160
  A 4.86 4.57 90.2 0 0 251.9570 38.1400
  A 4.86 4.57 90.2 0 0 247.3700 42.9840
  A 4.86 4.57 90.2 0 0 251.9230 47.8600
  Z"
/>
<circle fill="#3e3a71" cx="166.48" cy="24.21" r="4.14"/>
<circle fill="#3e3a71" cx="232.43" cy="24.21" r="4.14"/>
<path fill="#e65a46" d="
  M 0.00 22.63
  L 0.00 22.27
  L 6.29 21.22
  A 0.33 0.33 0.0 0 1 6.57 21.79
  Q 4.03 24.20 3.71 27.74
  A 0.41 0.40 -57.2 0 1 2.95 27.91
  L 0.00 22.63
  Z"
/>
<path fill="#3e3a71" d="
  M 113.09 45.14
  A 2.33 2.32 -78.4 0 0 111.35 42.49
  Q 107.26 41.49 103.72 40.35
  C 97.85 38.47 96.40 30.02 100.34 25.52
  C 104.65 20.58 115.21 20.69 120.45 24.24
  A 0.90 0.89 29.0 0 1 120.77 25.34
  L 118.56 30.40
  Q 118.35 30.89 117.86 30.67
  C 115.23 29.42 108.43 27.20 106.50 30.26
  A 2.19 2.19 0.0 0 0 107.82 33.56
  C 113.52 35.00 121.14 36.27 121.75 43.55
  C 122.19 48.82 118.68 52.70 113.65 53.83
  Q 105.31 55.72 98.09 51.35
  Q 97.61 51.07 97.81 50.55
  L 99.93 45.06
  Q 100.14 44.51 100.62 44.84
  C 103.22 46.62 112.19 50.44 113.09 45.14
  Z"
/>
<path fill="#3e3a71" d="
  M 68.77 30.76
  A 0.27 0.27 0.0 0 1 68.93 30.41
  L 77.35 27.33
  A 1.96 1.57 -20.1 0 1 79.73 28.13
  L 79.81 28.34
  A 1.96 1.57 -20.1 0 1 78.51 30.49
  L 70.08 33.57
  A 0.27 0.27 0.0 0 1 69.74 33.41
  L 68.77 30.76
  Z"
/>
<path fill="#3e3a71" d="
  M 147.32 43.13
  A 11.67 11.67 0.0 0 1 135.65 54.80
  A 11.67 11.67 0.0 0 1 123.98 43.13
  A 11.67 11.67 0.0 0 1 135.65 31.46
  A 11.67 11.67 0.0 0 1 147.32 43.13
  Z
  M 140.1189 42.5008
  A 4.10 4.10 0.0 0 0 135.9199 38.5022
  L 135.1602 38.5207
  A 4.10 4.10 0.0 0 0 131.1615 42.7197
  L 131.2011 44.3392
  A 4.10 4.10 0.0 0 0 135.4001 48.3378
  L 136.1598 48.3193
  A 4.10 4.10 0.0 0 0 140.1585 44.1203
  L 140.1189 42.5008
  Z"
/>
<path fill="#3e3a71" d="
  M 170.20 32.18
  L 169.81 53.63
  A 0.66 0.66 0.0 0 1 169.15 54.28
  L 163.53 54.25
  A 0.66 0.66 0.0 0 1 162.87 53.60
  L 162.56 32.13
  A 0.66 0.66 0.0 0 1 163.22 31.46
  L 169.54 31.51
  A 0.66 0.66 0.0 0 1 170.20 32.18
  Z"
/>
<path fill="#3e3a71" d="
  M 189.99 52.03
  C 185.63 55.35 179.45 54.41 176.22 50.39
  C 168.56 40.85 179.49 26.18 190.39 33.79
  Q 190.97 34.20 190.98 33.49
  L 191.01 32.11
  Q 191.02 31.49 191.64 31.51
  L 196.87 31.67
  Q 197.41 31.68 197.42 32.22
  Q 197.59 39.02 197.71 45.79
  Q 197.86 54.48 196.32 58.06
  Q 192.51 66.91 180.23 63.45
  Q 178.38 62.92 176.76 61.40
  A 0.80 0.80 0.0 0 1 176.58 60.47
  L 178.31 56.69
  Q 178.61 56.03 179.22 56.41
  C 183.83 59.24 190.64 59.36 190.33 52.19
  Q 190.31 51.79 189.99 52.03
  Z
  M 185.8316 48.1742
  A 4.88 4.55 92.8 0 0 190.6146 43.5223
  A 4.88 4.55 92.8 0 0 186.3084 38.4258
  A 4.88 4.55 92.8 0 0 181.5254 43.0777
  A 4.88 4.55 92.8 0 0 185.8316 48.1742
  Z"
/>
<path fill="#3e3a71" d="
  M 215.85 52.63
  Q 213.61 54.88 210.23 54.89
  Q 203.51 54.91 202.20 48.25
  Q 201.38 44.05 202.80 32.17
  Q 202.86 31.64 203.39 31.62
  L 208.94 31.46
  Q 209.61 31.44 209.61 32.11
  Q 209.57 38.61 209.26 44.99
  C 209.18 46.62 210.59 48.21 212.29 48.39
  C 216.01 48.79 216.65 45.98 216.66 42.85
  Q 216.68 37.61 216.97 32.39
  Q 217.00 31.67 217.73 31.68
  L 223.34 31.78
  A 0.56 0.55 1.0 0 1 223.89 32.34
  L 223.71 53.47
  A 1.04 1.04 0.0 0 1 222.66 54.50
  L 217.73 54.44
  Q 217.02 54.43 216.93 53.73
  L 216.83 52.97
  Q 216.68 51.80 215.85 52.63
  Z"
/>
<path fill="#3e3a71" d="
  M 236.10 32.36
  L 235.77 53.50
  A 0.84 0.84 0.0 0 1 234.92 54.33
  L 229.58 54.24
  A 0.84 0.84 0.0 0 1 228.75 53.41
  L 228.59 32.30
  A 0.84 0.84 0.0 0 1 229.43 31.46
  L 235.26 31.51
  A 0.84 0.84 0.0 0 1 236.10 32.36
  Z"
/>
<path fill="#3e3a71" d="
  M 288.00 39.64
  L 288.00 43.29
  L 287.62 44.33
  Q 287.44 44.82 286.93 44.82
  L 274.93 44.96
  A 0.56 0.56 0.0 0 0 274.39 45.65
  C 275.47 50.07 281.24 49.14 284.12 47.48
  Q 284.59 47.21 284.83 47.69
  L 286.77 51.54
  A 0.76 0.76 0.0 0 1 286.47 52.54
  C 280.12 56.27 271.58 55.65 268.23 48.44
  Q 266.10 43.84 268.05 38.76
  C 271.84 28.93 285.53 28.68 288.00 39.64
  Z
  M 274.75 40.74
  L 281.09 40.56
  A 0.45 0.45 0.0 0 0 281.52 40.10
  L 281.52 39.98
  A 3.49 3.48 88.4 0 0 277.94 36.59
  L 277.66 36.59
  A 3.49 3.48 88.4 0 0 274.28 40.18
  L 274.29 40.30
  A 0.45 0.45 0.0 0 0 274.75 40.74
  Z"
/>
<rect fill="#3e3a71" x="-3.16" y="-1.38" transform="translate(9.80,40.34) rotate(2.4)" width="6.32" height="2.76" rx="0.82"/>
<path fill="#3e3a71" d="
  M 70.97 42.64
  A 0.53 0.53 0.0 0 1 71.52 42.14
  L 75.39 42.36
  A 1.98 1.29 3.2 0 1 77.29 43.76
  L 77.28 44.04
  A 1.98 1.29 3.2 0 1 75.23 45.22
  L 71.36 45.00
  A 0.53 0.53 0.0 0 1 70.86 44.44
  L 70.97 42.64
  Z"
/>
<path fill="#3e3a71" d="
  M 15.08 52.97
  A 0.62 0.62 0.0 0 1 14.71 53.77
  L 6.83 56.63
  A 2.30 1.54 -20.0 0 1 4.15 55.97
  L 4.04 55.67
  A 2.30 1.54 -20.0 0 1 5.67 53.44
  L 13.55 50.57
  A 0.62 0.62 0.0 0 1 14.34 50.94
  L 15.08 52.97
  Z"
/>
<path fill="#e65a46" d="
  M 78.68 60.50
  C 79.72 58.98 79.68 57.97 80.28 56.28
  Q 80.58 55.44 81.02 56.22
  L 83.75 61.00
  A 0.59 0.59 0.0 0 1 83.34 61.87
  L 77.76 62.86
  A 0.36 0.35 -77.4 0 1 77.41 62.30
  Q 78.07 61.39 78.68 60.50
  Z"
/>
<rect fill="#3e3a71" x="-3.18" y="-1.38" transform="translate(18.45,63.98) rotate(-43.7)" width="6.36" height="2.76" rx="0.68"/>
<rect fill="#3e3a71" x="-1.37" y="-3.16" transform="translate(63.87,65.54) rotate(-42.3)" width="2.74" height="6.32" rx="0.66"/>
<path fill="#3e3a71" d="
  M 53.20 68.81
  A 0.30 0.30 0.0 0 1 53.58 68.99
  L 56.44 77.00
  A 2.48 1.44 70.3 0 1 55.92 79.82
  L 55.40 80.00
  A 2.48 1.44 70.3 0 1 53.21 78.15
  L 50.34 70.15
  A 0.30 0.30 0.0 0 1 50.52 69.77
  L 53.20 68.81
  Z"
/>
<path fill="#3e3a71" d="
  M 38.66 75.48
  C 38.91 73.80 38.97 72.88 39.02 71.47
  Q 39.03 70.97 39.53 70.98
  L 41.18 71.03
  A 0.62 0.62 0.0 0 1 41.78 71.69
  L 41.55 76.18
  A 1.38 1.38 0.0 0 1 39.87 77.45
  Q 38.40 77.14 38.66 75.48
  Z"
/>
<path fill="#e65a46" d="
  M 22.40 84.00
  Q 22.34 84.00 22.29 84.00
  L 21.13 77.81
  A 0.38 0.38 0.0 0 1 21.78 77.48
  Q 24.13 79.96 27.56 80.24
  Q 28.81 80.35 27.72 80.97
  L 22.40 84.00
  Z"
/>
</svg>
