<?xml version="1.0" encoding="UTF-8"?>
<!--
Soliguide: Useful information for those who need it

SPDX-FileCopyrightText: © 2024 Solinum

SPDX-License-Identifier: AGPL-3.0-only

This program is free software: you can redistribute it and/or modify
it under the terms of the GNU Affero General Public License as published
by the Free Software Foundation, either version 3 of the License, or
(at your option) any later version.

This program is distributed in the hope that it will be useful,
but WITHOUT ANY WARRANTY; without even the implied warranty of
MERCHANTABILITY or FITNESS FOR A PARTICULAR PURPOSE.  See the
GNU Affero General Public License for more details.

You should have received a copy of the GNU Affero General Public License
along with this program.  If not, see <https://www.gnu.org/licenses/>.
-->
<svg xmlns="http://www.w3.org/2000/svg" style="margin:auto;background:0 0;display:block;shape-rendering:auto" width="214" height="214" viewBox="0 0 100 100" preserveAspectRatio="xMidYMid"><rect x="48.5" y="9" rx="1.5" ry="1.8" width="3" height="10" fill="#e30614"><animate attributeName="opacity" values="1;0" keyTimes="0;1" dur="0.7633587786259541s" begin="-0.7315521628498728s" repeatCount="indefinite"/></rect><rect x="48.5" y="9" rx="1.5" ry="1.8" width="3" height="10" fill="#e30614" transform="rotate(15 50 50)"><animate attributeName="opacity" values="1;0" keyTimes="0;1" dur="0.7633587786259541s" begin="-0.6997455470737913s" repeatCount="indefinite"/></rect><rect x="48.5" y="9" rx="1.5" ry="1.8" width="3" height="10" fill="#e30614" transform="rotate(30 50 50)"><animate attributeName="opacity" values="1;0" keyTimes="0;1" dur="0.7633587786259541s" begin="-0.6679389312977099s" repeatCount="indefinite"/></rect><rect x="48.5" y="9" rx="1.5" ry="1.8" width="3" height="10" fill="#e30614" transform="rotate(45 50 50)"><animate attributeName="opacity" values="1;0" keyTimes="0;1" dur="0.7633587786259541s" begin="-0.6361323155216285s" repeatCount="indefinite"/></rect><rect x="48.5" y="9" rx="1.5" ry="1.8" width="3" height="10" fill="#e30614" transform="rotate(60 50 50)"><animate attributeName="opacity" values="1;0" keyTimes="0;1" dur="0.7633587786259541s" begin="-0.6043256997455471s" repeatCount="indefinite"/></rect><rect x="48.5" y="9" rx="1.5" ry="1.8" width="3" height="10" fill="#e30614" transform="rotate(75 50 50)"><animate attributeName="opacity" values="1;0" keyTimes="0;1" dur="0.7633587786259541s" begin="-0.5725190839694656s" repeatCount="indefinite"/></rect><rect x="48.5" y="9" rx="1.5" ry="1.8" width="3" height="10" fill="#e30614" transform="rotate(90 50 50)"><animate attributeName="opacity" values="1;0" keyTimes="0;1" dur="0.7633587786259541s" begin="-0.5407124681933843s" repeatCount="indefinite"/></rect><rect x="48.5" y="9" rx="1.5" ry="1.8" width="3" height="10" fill="#e30614" transform="rotate(105 50 50)"><animate attributeName="opacity" values="1;0" keyTimes="0;1" dur="0.7633587786259541s" begin="-0.5089058524173028s" repeatCount="indefinite"/></rect><rect x="48.5" y="9" rx="1.5" ry="1.8" width="3" height="10" fill="#e30614" transform="rotate(120 50 50)"><animate attributeName="opacity" values="1;0" keyTimes="0;1" dur="0.7633587786259541s" begin="-0.47709923664122134s" repeatCount="indefinite"/></rect><rect x="48.5" y="9" rx="1.5" ry="1.8" width="3" height="10" fill="#e30614" transform="rotate(135 50 50)"><animate attributeName="opacity" values="1;0" keyTimes="0;1" dur="0.7633587786259541s" begin="-0.44529262086513993s" repeatCount="indefinite"/></rect><rect x="48.5" y="9" rx="1.5" ry="1.8" width="3" height="10" fill="#e30614" transform="rotate(150 50 50)"><animate attributeName="opacity" values="1;0" keyTimes="0;1" dur="0.7633587786259541s" begin="-0.41348600508905853s" repeatCount="indefinite"/></rect><rect x="48.5" y="9" rx="1.5" ry="1.8" width="3" height="10" fill="#e30614" transform="rotate(165 50 50)"><animate attributeName="opacity" values="1;0" keyTimes="0;1" dur="0.7633587786259541s" begin="-0.38167938931297707s" repeatCount="indefinite"/></rect><rect x="48.5" y="9" rx="1.5" ry="1.8" width="3" height="10" fill="#e30614" transform="rotate(180 50 50)"><animate attributeName="opacity" values="1;0" keyTimes="0;1" dur="0.7633587786259541s" begin="-0.34987277353689566s" repeatCount="indefinite"/></rect><rect x="48.5" y="9" rx="1.5" ry="1.8" width="3" height="10" fill="#e30614" transform="rotate(195 50 50)"><animate attributeName="opacity" values="1;0" keyTimes="0;1" dur="0.7633587786259541s" begin="-0.31806615776081426s" repeatCount="indefinite"/></rect><rect x="48.5" y="9" rx="1.5" ry="1.8" width="3" height="10" fill="#e30614" transform="rotate(210 50 50)"><animate attributeName="opacity" values="1;0" keyTimes="0;1" dur="0.7633587786259541s" begin="-0.2862595419847328s" repeatCount="indefinite"/></rect><rect x="48.5" y="9" rx="1.5" ry="1.8" width="3" height="10" fill="#e30614" transform="rotate(225 50 50)"><animate attributeName="opacity" values="1;0" keyTimes="0;1" dur="0.7633587786259541s" begin="-0.2544529262086514s" repeatCount="indefinite"/></rect><rect x="48.5" y="9" rx="1.5" ry="1.8" width="3" height="10" fill="#e30614" transform="rotate(240 50 50)"><animate attributeName="opacity" values="1;0" keyTimes="0;1" dur="0.7633587786259541s" begin="-0.22264631043256997s" repeatCount="indefinite"/></rect><rect x="48.5" y="9" rx="1.5" ry="1.8" width="3" height="10" fill="#e30614" transform="rotate(255 50 50)"><animate attributeName="opacity" values="1;0" keyTimes="0;1" dur="0.7633587786259541s" begin="-0.19083969465648853s" repeatCount="indefinite"/></rect><rect x="48.5" y="9" rx="1.5" ry="1.8" width="3" height="10" fill="#e30614" transform="rotate(270 50 50)"><animate attributeName="opacity" values="1;0" keyTimes="0;1" dur="0.7633587786259541s" begin="-0.15903307888040713s" repeatCount="indefinite"/></rect><rect x="48.5" y="9" rx="1.5" ry="1.8" width="3" height="10" fill="#e30614" transform="rotate(285 50 50)"><animate attributeName="opacity" values="1;0" keyTimes="0;1" dur="0.7633587786259541s" begin="-0.1272264631043257s" repeatCount="indefinite"/></rect><rect x="48.5" y="9" rx="1.5" ry="1.8" width="3" height="10" fill="#e30614" transform="rotate(300 50 50)"><animate attributeName="opacity" values="1;0" keyTimes="0;1" dur="0.7633587786259541s" begin="-0.09541984732824427s" repeatCount="indefinite"/></rect><rect x="48.5" y="9" rx="1.5" ry="1.8" width="3" height="10" fill="#e30614" transform="rotate(315 50 50)"><animate attributeName="opacity" values="1;0" keyTimes="0;1" dur="0.7633587786259541s" begin="-0.06361323155216285s" repeatCount="indefinite"/></rect><rect x="48.5" y="9" rx="1.5" ry="1.8" width="3" height="10" fill="#e30614" transform="rotate(330 50 50)"><animate attributeName="opacity" values="1;0" keyTimes="0;1" dur="0.7633587786259541s" begin="-0.031806615776081425s" repeatCount="indefinite"/></rect><rect x="48.5" y="9" rx="1.5" ry="1.8" width="3" height="10" fill="#e30614" transform="rotate(345 50 50)"><animate attributeName="opacity" values="1;0" keyTimes="0;1" dur="0.7633587786259541s" begin="0s" repeatCount="indefinite"/></rect></svg>