<?xml version="1.0" encoding="UTF-8"?>
<!--
Soliguide: Useful information for those who need it

SPDX-FileCopyrightText: © 2024 Solinum

SPDX-License-Identifier: AGPL-3.0-only

This program is free software: you can redistribute it and/or modify
it under the terms of the GNU Affero General Public License as published
by the Free Software Foundation, either version 3 of the License, or
(at your option) any later version.

This program is distributed in the hope that it will be useful,
but WITHOUT ANY WARRANTY; without even the implied warranty of
MERCHANTABILITY or FITNESS FOR A PARTICULAR PURPOSE.  See the
GNU Affero General Public License for more details.

You should have received a copy of the GNU Affero General Public License
along with this program.  If not, see <https://www.gnu.org/licenses/>.
-->
<svg width="361" height="522" viewBox="0 0 361 522" fill="none" xmlns="http://www.w3.org/2000/svg">
<g clip-path="url(#clip0_1481_3594)">
<path d="M340.724 328.48H334.947C331.549 320.264 327.086 308.915 324.617 300.517C326.135 299.631 327.335 298.86 328.242 298.247C329.601 297.316 330.28 296.749 330.28 296.749C323.348 289.781 303.684 237.735 289.797 210.498C280.735 192.521 235.97 186.416 206.655 184.327V177.178H254.365L242.404 117.733H242.675C249.676 117.733 255.317 109.357 255.317 99.0298C255.319 97.5083 255.19 95.9894 254.931 94.4902C254.931 94.1952 254.931 93.9001 254.773 93.605C254.749 93.3965 254.704 93.1911 254.637 92.9922C254.434 92.06 254.169 91.1424 253.844 90.2458C253.525 89.3297 253.131 88.4416 252.666 87.5901C252.515 87.2679 252.341 86.9569 252.145 86.6595C251.645 85.7813 251.053 84.9595 250.378 84.2082C250.194 83.9782 249.997 83.7585 249.789 83.55C249.284 83.045 248.738 82.5819 248.158 82.1654C247.885 81.9625 247.597 81.7804 247.297 81.6207C246.989 81.4365 246.672 81.2698 246.345 81.1213C245.779 77.7394 245.258 74.312 244.76 70.9528C244.374 68.388 243.989 65.8231 243.627 63.2583L243.151 59.9898C242.811 57.7201 242.471 55.3141 242.109 52.9536C239.999 39.388 233.496 26.8937 223.601 17.3949C213.707 7.89605 200.971 1.91958 187.353 0.38586C185.096 0.134091 182.827 0.00528133 180.557 0C179.039 0 177.521 0 176.026 0.181581C160.293 1.30663 145.571 8.36188 134.822 19.9267C124.074 31.4915 118.098 46.707 118.098 62.5093V80.3496C117.505 80.3702 116.914 80.4385 116.331 80.5539C115.923 80.5539 115.493 80.7809 115.085 80.9397C112.648 81.9579 110.595 83.7215 109.218 85.9786C108.97 86.3281 108.743 86.6919 108.538 87.0681C108.311 87.4994 108.085 87.9306 107.881 88.3846C107.81 88.4888 107.757 88.6038 107.722 88.725C107.564 89.0882 107.405 89.474 107.269 89.8599C107.247 89.957 107.247 90.0579 107.269 90.155C107.088 90.6316 106.929 91.131 106.771 91.653C106.612 92.1751 106.544 92.4701 106.454 92.9014C106.363 93.3326 106.318 93.4915 106.272 93.8093C106.227 94.1271 106.272 94.3767 106.114 94.6491C105.955 94.9215 106.114 95.1939 106.114 95.4662C106.045 95.9023 106 96.3417 105.978 96.7827C105.967 96.8731 105.967 96.9646 105.978 97.0551C105.978 97.6679 105.978 98.2807 105.978 98.9163C105.978 109.244 111.642 117.619 118.642 117.619H118.914L106.612 177.178H154.187V184.191C124.872 186.279 80.2197 192.385 71.0673 210.362C57.1801 237.599 37.5159 289.803 30.5836 296.613C30.5836 296.613 31.2633 297.18 32.6225 298.111C33.5287 298.746 34.7294 299.518 36.2473 300.38C33.7779 308.779 29.315 320.127 25.9168 328.344H20.3891C17.7097 328.344 15.0565 328.873 12.5813 329.901C10.1061 330.929 7.85742 332.436 5.96382 334.335C4.07022 336.234 2.56885 338.489 1.54553 340.97C0.522218 343.451 -0.00296457 346.11 1.2587e-05 348.794V522.045H361V348.863C360.988 343.472 358.85 338.305 355.052 334.487C351.254 330.669 346.104 328.51 340.724 328.48ZM89.1003 313.681C89.1003 314.839 89.6666 321.943 90.4369 328.48H87.2879C88.4071 323.624 89.0146 318.664 89.1003 313.681ZM270.54 328.48C271.311 321.92 271.809 314.861 271.877 313.681C271.963 318.664 272.57 323.624 273.689 328.48H270.54ZM242.404 117.733C242.404 117.733 242.404 117.483 242.404 117.369C242.404 117.256 242.404 117.619 242.404 117.733Z" fill="#E65A46"/>
<path d="M254.365 177.177H106.612L118.551 117.732H242.471L254.365 177.177Z" fill="#E65A46"/>
<path d="M89.1003 313.522V313.681C89.0146 318.664 88.4071 323.624 87.2879 328.48C86.3013 332.972 84.8433 337.347 82.9383 341.531C80.2424 347.41 68.1901 349.362 55.481 349.021H55.2544C38.1502 348.545 19.868 343.937 21.5218 339.125C21.5218 339.125 23.4701 334.699 26.0527 328.48C29.4509 320.264 33.9818 308.915 36.3605 300.517C36.6022 299.654 36.8287 298.837 37.0402 298.065C37.4548 296.77 38.2626 295.636 39.3509 294.822C40.4393 294.009 41.7539 293.555 43.1116 293.526C56.7043 291.483 87.2653 306.509 87.2653 306.509L89.1003 313.522Z" fill="#EE9081"/>
<path d="M81.3751 328.481C80.3771 332.969 78.9195 337.343 77.0254 341.532C74.76 346.48 65.8341 348.659 55.5036 349.022H55.2771C38.1729 348.545 19.8907 343.938 21.5445 339.126C21.5445 339.126 23.4927 334.7 26.0754 328.481C29.4509 320.264 33.9818 308.915 36.3605 300.517C36.6022 299.655 36.8287 298.838 37.0402 298.066C37.4548 296.77 38.2626 295.637 39.3509 294.823C40.4393 294.009 41.7539 293.556 43.1116 293.526C58.0409 295.07 81.3524 306.419 81.3524 306.419L83.1421 313.228V313.364C83.0958 318.452 82.5034 323.52 81.3751 328.481Z" fill="#F0A093"/>
<path d="M180.489 183.124V187.368C180.489 187.368 169.433 187.368 154.3 188.435C124.985 190.523 80.3329 196.629 71.1805 214.606C58.494 239.573 40.9594 285.241 32.6678 298.224C31.3085 297.293 30.6289 296.726 30.6289 296.726C37.5612 289.757 57.2253 237.712 71.1125 210.475C80.1744 192.498 124.917 186.392 154.232 184.304C169.433 183.124 180.489 183.124 180.489 183.124Z" fill="#E24028"/>
<path d="M289.797 214.606C280.735 196.63 235.97 190.524 206.655 188.436V189.934C206.758 193.443 206.157 196.937 204.888 200.21C203.619 203.482 201.707 206.466 199.266 208.984C196.825 211.503 193.904 213.505 190.677 214.872C187.45 216.24 183.981 216.944 180.477 216.944C176.973 216.944 173.505 216.24 170.278 214.872C167.05 213.505 164.13 211.503 161.689 208.984C159.248 206.466 157.336 203.482 156.067 200.21C154.798 196.937 154.197 193.443 154.3 189.934V188.391C124.985 190.479 80.333 196.584 71.1806 214.561C58.494 239.528 40.9594 285.196 32.6678 298.179C33.574 298.815 34.7747 299.586 36.2926 300.449C36.5342 299.586 36.7608 298.769 36.9722 297.997C37.3868 296.702 38.1946 295.568 39.283 294.754C40.3713 293.941 41.686 293.487 43.0436 293.458C56.6363 291.415 87.1973 306.441 87.1973 306.441L89.0323 313.5H90.5275H91.5923H95.3756C98.0035 308.96 108.719 289.985 112.299 271.782C110.659 281.808 108.181 291.678 104.891 301.289C101.915 309.917 100.69 319.054 101.288 328.163H259.508C260.125 319.134 258.931 310.074 255.996 301.516C252.702 291.908 250.232 282.037 248.611 272.009C252.19 290.167 262.906 309.255 265.534 313.727H269.294H270.337H271.832L273.667 306.668C273.667 306.668 304.296 291.642 317.82 293.685C319.178 293.714 320.493 294.168 321.581 294.981C322.669 295.795 323.477 296.929 323.892 298.224C324.088 298.996 324.315 299.813 324.572 300.676C326.089 299.791 327.29 299.019 328.196 298.406C320.018 285.241 302.483 239.506 289.797 214.606ZM180.489 227.385C176.161 227.388 171.875 226.537 167.876 224.88C163.877 223.222 160.243 220.792 157.182 217.727C154.121 214.662 151.693 211.023 150.036 207.017C148.379 203.012 147.526 198.719 147.526 194.383C147.526 193.815 147.526 193.248 147.526 192.68C147.974 201.125 151.641 209.074 157.771 214.887C163.902 220.699 172.026 223.93 180.466 223.912C188.901 223.919 197.016 220.683 203.14 214.873C209.265 209.062 212.931 201.119 213.383 192.68C213.383 193.248 213.383 193.815 213.383 194.383C213.383 203.128 209.919 211.515 203.751 217.703C197.584 223.891 189.217 227.373 180.489 227.385Z" fill="#E4503A"/>
<path d="M101.356 328.479H180.489V428.644H95.6701C95.6701 428.644 95.6701 428.485 95.6701 428.144C95.6701 427.804 95.6701 427.509 95.6701 427.032C95.6701 426.556 95.8061 425.716 95.8967 424.762C95.8967 424.354 95.8967 423.9 96.0553 423.423C96.531 418.657 97.3013 410.985 98.1621 402.133C98.2829 400.998 98.3962 399.84 98.5019 398.66C98.8191 395.392 99.1363 391.987 99.4534 388.537C99.4534 387.947 99.5667 387.357 99.612 386.767C100.11 381.365 100.609 375.895 101.039 370.651L101.175 369.017C101.651 363.297 102.059 357.895 102.353 353.129C102.353 352.675 102.353 352.221 102.353 351.767C102.353 351.313 102.353 350.496 102.466 349.883V348.567V347.318C102.762 344.117 102.762 340.896 102.466 337.694C102.195 336.718 101.968 335.425 101.719 334.108C101.56 333.2 101.447 332.315 101.311 331.407C101.175 330.499 101.062 329.364 100.926 328.32C100.156 321.829 99.6573 314.838 99.5667 313.567H95.0358C97.6637 309.027 108.379 290.052 111.959 271.849C110.319 281.875 107.841 291.745 104.551 301.356C101.68 310.09 100.594 319.315 101.356 328.479Z" fill="#E65A46"/>
<path d="M180.489 187.369V216.172C173.545 216.166 166.887 213.4 161.977 208.481C157.067 203.561 154.306 196.891 154.3 189.934V188.391C169.433 187.369 180.489 187.369 180.489 187.369Z" fill="#E65A46"/>
<path d="M180.466 223.912V227.384C176.14 227.384 171.857 226.531 167.861 224.872C163.864 223.214 160.233 220.783 157.174 217.718C154.115 214.654 151.689 211.015 150.034 207.011C148.378 203.007 147.526 198.716 147.526 194.382C147.526 193.815 147.526 193.247 147.526 192.68C147.974 201.124 151.641 209.073 157.771 214.886C163.902 220.698 172.026 223.929 180.466 223.912Z" fill="#E65A46"/>
<path d="M305.836 349.021H305.61C292.9 349.362 280.848 347.41 278.152 341.531C276.247 337.346 274.789 332.972 273.803 328.48C272.683 323.624 272.076 318.664 271.99 313.681V313.522L273.825 306.463C273.825 306.463 304.454 291.437 317.979 293.48C319.337 293.509 320.651 293.963 321.74 294.776C322.828 295.59 323.636 296.724 324.05 298.019C324.247 298.791 324.473 299.608 324.73 300.471C327.199 308.869 331.662 320.218 335.061 328.434C337.62 334.653 339.591 339.079 339.591 339.079C341.109 343.937 322.827 348.544 305.836 349.021Z" fill="#EE9081"/>
<path d="M305.836 349.021H305.61C295.279 348.658 286.376 346.479 284.088 341.531C282.186 337.343 280.721 332.97 279.716 328.48C278.583 323.573 277.976 318.558 277.903 313.522V313.386L279.693 306.577C279.693 306.577 303.004 295.228 317.934 293.594C319.291 293.623 320.606 294.076 321.694 294.89C322.783 295.704 323.591 296.838 324.005 298.133C324.201 298.905 324.428 299.722 324.685 300.585C327.154 308.983 331.617 320.332 335.015 328.548C337.575 334.767 339.546 339.193 339.546 339.193C341.109 343.937 322.827 348.545 305.836 349.021Z" fill="#F0A093"/>
<path d="M330.28 296.726C330.28 296.726 329.601 297.293 328.242 298.224C320.018 285.241 302.483 239.505 289.729 214.606C280.667 196.629 235.902 190.523 206.587 188.435C191.453 187.368 180.421 187.368 180.421 187.368V183.124C180.421 183.124 191.453 183.124 206.587 184.191C235.902 186.279 280.576 192.385 289.729 210.361C303.684 237.598 323.348 289.757 330.28 296.726Z" fill="#E24028"/>
<path d="M180.489 216.172V187.369C180.489 187.369 191.521 187.369 206.655 188.436V189.934C206.655 196.889 203.899 203.559 198.992 208.479C194.086 213.399 187.43 216.166 180.489 216.172Z" fill="#E65A46"/>
<path d="M180.489 227.384V223.912C188.919 223.912 197.029 220.674 203.149 214.864C209.268 209.054 212.931 201.114 213.383 192.68C213.383 193.247 213.383 193.815 213.383 194.382C213.383 203.127 209.919 211.514 203.751 217.702C197.584 223.89 189.217 227.372 180.489 227.384Z" fill="#E65A46"/>
<path d="M258.262 337.854C257.966 341.055 257.966 344.276 258.262 347.477V348.726V350.042C258.262 350.655 258.262 351.268 258.262 351.926C258.262 352.584 258.262 352.834 258.262 353.288C258.556 357.964 258.964 363.366 259.44 369.176L259.576 370.811C260.006 376.054 260.504 381.524 261.003 386.926C261.003 387.516 261.003 388.106 261.161 388.696C261.479 392.146 261.796 395.506 262.113 398.819C262.234 400 262.347 401.157 262.453 402.292C263.314 411.144 264.084 418.816 264.56 423.583C264.56 424.059 264.56 424.513 264.718 424.922C264.718 425.807 264.877 426.556 264.945 427.191C265.013 427.827 264.945 428.054 264.945 428.304C264.945 428.553 264.945 428.803 264.945 428.803H180.489V328.48H259.576C260.214 319.341 258.997 310.168 255.996 301.515C252.702 291.907 250.231 282.036 248.611 272.008C252.19 290.166 262.906 309.255 265.534 313.726H261.003C261.003 314.997 260.414 321.988 259.644 328.48C259.304 331.317 258.919 334.063 258.488 336.174C258.443 336.787 258.262 337.354 258.262 337.854Z" fill="#E65A46"/>
<path d="M104.958 301.605C101.983 310.234 100.758 319.37 101.356 328.479C101.356 329.501 101.538 330.545 101.651 331.566C101.764 332.588 101.9 333.359 102.059 334.267C102.308 335.652 102.534 336.877 102.806 337.853C103.102 341.055 103.102 344.276 102.806 347.477V348.726V350.042C102.806 350.655 102.806 351.268 102.693 351.926C102.58 352.584 102.693 352.834 102.693 353.288C102.398 357.964 101.991 363.366 101.515 369.176L101.379 370.81C100.949 376.054 100.45 381.524 99.9518 386.926C99.9518 387.516 99.9518 388.106 99.7932 388.696C99.476 392.146 99.1589 395.505 98.8417 398.819C98.736 400 98.6227 401.157 98.5019 402.292C97.641 411.144 96.8708 418.816 96.395 423.582C96.395 424.059 96.395 424.513 96.2364 424.922C96.2364 425.807 96.0779 426.556 96.0099 427.191C95.9994 427.312 95.9994 427.434 96.0099 427.554C96.0099 427.751 96.0099 427.933 96.0099 428.099C96.0099 428.099 96.0099 428.235 96.0099 428.303C96.0099 428.372 96.0099 428.803 96.0099 428.803H84.8639C84.8639 428.803 93.7444 344.549 92 338.012C91.2913 334.922 90.7693 331.792 90.4369 328.638C89.6666 322.101 89.1909 315.02 89.1003 313.839H90.5955H91.6602H95.4435C98.0715 309.3 108.787 290.325 112.366 272.121C110.726 282.14 108.248 292.003 104.958 301.605Z" fill="#E24028"/>
<path d="M276.113 428.644H265.307C265.307 428.644 265.307 428.485 265.307 428.145C265.307 427.804 265.307 428.009 265.307 427.941C265.307 427.872 265.307 427.6 265.307 427.396C265.318 427.275 265.318 427.153 265.307 427.033C265.307 426.465 265.171 425.716 265.081 424.763C265.081 424.354 265.081 423.9 264.922 423.424C264.446 418.657 263.676 410.985 262.815 402.133C262.71 400.998 262.596 399.841 262.475 398.661C262.158 395.392 261.841 391.987 261.524 388.537C261.524 387.947 261.411 387.357 261.365 386.767C260.867 381.365 260.369 375.895 259.938 370.652L259.802 369.017C259.326 363.298 258.919 357.896 258.624 353.129C258.624 352.675 258.624 352.221 258.624 351.767C258.624 351.313 258.624 350.496 258.624 349.883V348.567V347.319C258.328 344.117 258.328 340.896 258.624 337.695C258.76 337.195 258.896 336.628 259.009 336.015C259.123 335.402 259.213 334.926 259.326 334.313C259.315 334.2 259.315 334.086 259.326 333.972C259.646 332.102 259.865 330.215 259.983 328.321C260.47 319.207 259.114 310.09 255.996 301.515C252.702 291.907 250.231 282.036 248.611 272.008C252.19 290.166 262.906 309.255 265.534 313.726H269.294H270.337H271.832C271.832 314.838 271.265 321.965 270.495 328.525C270.163 331.678 269.641 334.809 268.932 337.899C267.323 344.391 276.113 428.644 276.113 428.644Z" fill="#E24028"/>
<path d="M361 348.794V522.045H0V348.862C0.0299331 343.464 2.19127 338.297 6.01172 334.491C9.83218 330.684 15.0011 328.548 20.3891 328.548H340.724C346.081 328.577 351.211 330.718 355.005 334.507C358.799 338.295 360.952 343.427 361 348.794Z" fill="#3E3A71"/>
<path d="M172.854 380.049C172.678 379.365 172.247 378.774 171.651 378.398C171.054 378.022 170.337 377.888 169.645 378.025C168.953 378.161 168.34 378.557 167.93 379.131C167.52 379.706 167.345 380.416 167.44 381.115L169.071 389.173C170.832 388.691 172.627 388.342 174.44 388.129L172.854 380.049Z" fill="#DDDDDD"/>
<path d="M145.669 380.639C145.445 380.334 145.162 380.078 144.836 379.887C144.511 379.696 144.149 379.574 143.775 379.528C143.4 379.482 143.02 379.514 142.658 379.621C142.296 379.728 141.96 379.908 141.67 380.151C141.38 380.393 141.143 380.692 140.973 381.03C140.803 381.367 140.703 381.736 140.681 382.114C140.659 382.491 140.714 382.869 140.843 383.225C140.972 383.58 141.173 383.905 141.432 384.18L153.19 398.275C154.511 396.998 155.919 395.815 157.404 394.734L145.669 380.639Z" fill="#DDDDDD"/>
<path d="M139.054 404.971C138.384 404.67 137.622 404.648 136.936 404.91C136.249 405.172 135.695 405.696 135.395 406.367C135.094 407.038 135.072 407.802 135.334 408.489C135.595 409.177 136.118 409.732 136.788 410.033L143.947 413.097C144.522 411.352 145.226 409.653 146.054 408.013L139.054 404.971Z" fill="#DDDDDD"/>
<path d="M130.286 430.597C129.926 430.655 129.581 430.784 129.271 430.977C128.962 431.17 128.693 431.423 128.482 431.721C128.271 432.019 128.122 432.356 128.043 432.713C127.963 433.069 127.956 433.438 128.021 433.798C128.141 434.433 128.478 435.007 128.974 435.421C129.47 435.835 130.094 436.063 130.739 436.068H131.238L143.245 433.798C142.776 432.018 142.442 430.204 142.248 428.373L130.286 430.597Z" fill="#DDDDDD"/>
<path d="M195.758 378.891C195.907 378.21 195.793 377.497 195.44 376.895C195.087 376.294 194.52 375.848 193.853 375.647C193.186 375.447 192.468 375.506 191.842 375.812C191.217 376.119 190.73 376.651 190.479 377.302L187.058 388.787C188.846 389.2 190.602 389.739 192.314 390.399L195.758 378.891Z" fill="#DDDDDD"/>
<path d="M202.396 439.267C199.179 432.957 192.088 429.915 183.57 427.918C175.052 425.921 173.285 424.491 173.285 421.676C173.285 418.862 175.799 416.524 181.236 416.524C183.107 416.542 184.973 416.732 186.809 417.091L173.217 403.473L171.903 403.813C162.297 406.56 157.132 413.8 157.132 421.971C157.132 433.797 163.724 439.312 175.55 441.764C178.154 442.245 180.698 443.006 183.139 444.033C186.152 445.395 187.036 446.939 187.036 448.777C187.036 452.659 183.592 454.293 178.269 454.293C172.804 453.862 167.562 451.939 163.113 448.732L161.912 447.983C161.685 447.983 161.3 448.414 160.802 449.299C159.171 452.273 156.588 459.513 156.86 460.898C163.475 465.093 171.142 467.321 178.971 467.321C188.644 467.321 195.305 464.28 199.36 459.967C202.503 456.662 204.263 452.276 204.276 447.71C204.326 444.786 203.681 441.892 202.396 439.267Z" fill="white"/>
<path d="M202.01 407.967C198.476 405.175 190.457 402.633 180.874 402.633C179.716 402.634 178.559 402.695 177.408 402.814C176.02 402.943 174.643 403.163 173.285 403.473C173.285 403.473 173.647 405.742 178.404 410.645C180.607 413.014 183.078 415.116 185.767 416.91C187.476 417.195 189.164 417.597 190.819 418.113C192.192 418.523 193.538 419.016 194.852 419.588C195.509 419.86 196.166 420.178 196.891 420.519C197.412 420.519 198.816 418.998 201.875 410.259C202.192 409.079 202.305 408.194 202.01 407.967Z" fill="#DDDDDD"/>
<path d="M361 509.085H0V522H361V509.085Z" fill="#3B376C"/>
<path d="M206.655 171.73V189.889C206.758 193.398 206.157 196.892 204.888 200.164C203.618 203.436 201.707 206.42 199.266 208.939C196.825 211.457 193.904 213.46 190.677 214.827C187.45 216.194 183.981 216.899 180.477 216.899C176.973 216.899 173.505 216.194 170.278 214.827C167.05 213.46 164.13 211.457 161.689 208.939C159.248 206.42 157.336 203.436 156.067 200.164C154.798 196.892 154.197 193.398 154.3 189.889V171.912C160.241 174.657 166.581 176.434 173.081 177.178C177.853 177.723 182.671 177.723 187.444 177.178C194.101 176.422 200.59 174.582 206.655 171.73Z" fill="#F0A093"/>
<path d="M206.655 167.236V171.775C198.462 175.602 189.537 177.6 180.497 177.632C171.458 177.663 162.519 175.727 154.3 171.957V167.213C162.504 171.019 171.436 172.99 180.477 172.99C189.518 172.99 198.451 171.019 206.655 167.213V167.236Z" fill="#EE9081"/>
<path d="M242.879 104.976V110.492C242.879 112.172 242.811 113.829 242.675 115.463C241.428 131.13 234.336 145.751 222.811 156.414C211.287 167.077 196.176 173 180.489 173.001C165.196 172.994 150.439 167.361 139.017 157.173C127.596 146.985 120.305 132.95 118.529 117.733C118.236 115.33 118.093 112.912 118.098 110.492V80.3496C118.936 80.3496 119.775 80.4858 120.613 80.5085H122.742C135.292 80.5137 147.503 76.4257 157.529 68.8624C167.554 61.2991 174.85 50.6715 178.314 38.5859C179.183 55.624 186.217 71.7614 198.1 83.9805C209.983 96.1995 225.902 103.663 242.879 104.976Z" fill="#F0A093"/>
<path d="M118.529 117.733H118.257C111.256 117.733 105.593 109.357 105.593 99.0298C105.593 88.7023 111.256 80.3496 118.257 80.3496V110.492C118.257 112.943 118.347 115.349 118.529 117.733Z" fill="#EE9081"/>
<path d="M242.404 117.733H242.698C249.698 117.733 255.339 109.357 255.339 99.0298C255.339 88.7023 249.698 80.3496 242.698 80.3496V110.492C242.743 112.943 242.653 115.349 242.404 117.733Z" fill="#EE9081"/>
<path d="M247.75 88.9066L251.647 110.129C209.962 110.129 180.036 73.8127 178.314 38.4952C174.875 50.6061 167.59 61.2639 157.562 68.8535C147.534 76.443 135.31 80.5507 122.742 80.5539C121.179 80.5539 119.639 80.5539 118.211 80.3496V62.5093C118.208 46.7361 124.159 31.5452 134.869 19.985C145.58 8.42471 160.258 1.35039 175.958 0.181581C177.453 0 178.971 0 180.489 0C182.759 0.00528133 185.028 0.134091 187.285 0.38586C200.918 1.90672 213.673 7.88025 223.581 17.3847C233.489 26.8892 240 39.3963 242.109 52.9763C243.989 64.9606 245.552 76.9903 247.75 88.9066Z" fill="#E65A46"/>
<path d="M156.837 100.278C160.854 100.278 164.109 95.817 164.109 90.3139C164.109 84.8108 160.854 80.3496 156.837 80.3496C152.821 80.3496 149.565 84.8108 149.565 90.3139C149.565 95.817 152.821 100.278 156.837 100.278Z" fill="#6C1B0F"/>
<path opacity="0.05" d="M211.435 90.3139C211.462 92.4116 210.955 94.4817 209.962 96.3287C205.549 93.085 201.501 89.3711 197.887 85.2523C198.338 83.9128 199.17 82.7348 200.281 81.8636C201.393 80.9924 202.734 80.4661 204.14 80.3496C208.172 80.3496 211.435 84.821 211.435 90.3139Z" fill="#6C1B0F"/>
<path d="M209.962 96.3284C209.447 97.4602 208.631 98.4288 207.605 99.1291C206.578 99.8294 205.38 100.234 204.14 100.3C200.13 100.3 196.868 95.761 196.868 90.3135C196.851 88.5735 197.198 86.8491 197.887 85.252C201.501 89.3708 205.549 93.0846 209.962 96.3284Z" fill="#6C1B0F"/>
<path d="M180.511 90.3135H180.489C176.998 90.3135 174.168 93.1487 174.168 96.6461V116.597C174.168 120.095 176.998 122.93 180.489 122.93H180.511C184.002 122.93 186.832 120.095 186.832 116.597V96.6461C186.832 93.1487 184.002 90.3135 180.511 90.3135Z" fill="#EE9081"/>
<path d="M198.205 131.851C197.177 135.77 194.883 139.239 191.679 141.714C188.476 144.189 184.545 145.532 180.5 145.532C176.455 145.532 172.524 144.189 169.321 141.714C166.117 139.239 163.823 135.77 162.795 131.851C168.29 134.612 174.353 136.05 180.5 136.05C186.647 136.05 192.71 134.612 198.205 131.851Z" fill="white"/>
<path d="M216.645 117.777C217.771 117.777 218.684 116.863 218.684 115.735C218.684 114.607 217.771 113.692 216.645 113.692C215.519 113.692 214.606 114.607 214.606 115.735C214.606 116.863 215.519 117.777 216.645 117.777Z" fill="#EB806F"/>
<path d="M215.173 127.151C216.299 127.151 217.212 126.237 217.212 125.109C217.212 123.981 216.299 123.066 215.173 123.066C214.047 123.066 213.134 123.981 213.134 125.109C213.134 126.237 214.047 127.151 215.173 127.151Z" fill="#EB806F"/>
<path d="M207.606 121.25C208.732 121.25 209.645 120.335 209.645 119.207C209.645 118.079 208.732 117.165 207.606 117.165C206.48 117.165 205.567 118.079 205.567 119.207C205.567 120.335 206.48 121.25 207.606 121.25Z" fill="#EB806F"/>
<path d="M224.099 122.952C225.225 122.952 226.138 122.037 226.138 120.91C226.138 119.782 225.225 118.867 224.099 118.867C222.973 118.867 222.06 119.782 222.06 120.91C222.06 122.037 222.973 122.952 224.099 122.952Z" fill="#EB806F"/>
<path d="M144.355 117.777C145.481 117.777 146.394 116.863 146.394 115.735C146.394 114.607 145.481 113.692 144.355 113.692C143.229 113.692 142.316 114.607 142.316 115.735C142.316 116.863 143.229 117.777 144.355 117.777Z" fill="#EB806F"/>
<path d="M145.827 127.151C146.953 127.151 147.866 126.237 147.866 125.109C147.866 123.981 146.953 123.066 145.827 123.066C144.701 123.066 143.788 123.981 143.788 125.109C143.788 126.237 144.701 127.151 145.827 127.151Z" fill="#EB806F"/>
<path d="M153.371 121.25C154.497 121.25 155.41 120.335 155.41 119.207C155.41 118.079 154.497 117.165 153.371 117.165C152.245 117.165 151.332 118.079 151.332 119.207C151.332 120.335 152.245 121.25 153.371 121.25Z" fill="#EB806F"/>
<path d="M136.901 122.952C138.027 122.952 138.94 122.037 138.94 120.91C138.94 119.782 138.027 118.867 136.901 118.867C135.775 118.867 134.862 119.782 134.862 120.91C134.862 122.037 135.775 122.952 136.901 122.952Z" fill="#EB806F"/>
<path d="M213.428 194.382C213.428 198.716 212.576 203.007 210.921 207.011C209.266 211.015 206.839 214.654 203.781 217.718C200.722 220.783 197.091 223.214 193.094 224.872C189.098 226.531 184.814 227.384 180.489 227.384C176.161 227.387 171.875 226.536 167.876 224.879C163.877 223.222 160.243 220.791 157.182 217.726C154.121 214.661 151.693 211.022 150.036 207.017C148.379 203.011 147.526 198.718 147.526 194.382C147.526 193.815 147.526 193.247 147.526 192.68C147.974 201.124 151.641 209.073 157.771 214.886C163.902 220.698 172.026 223.929 180.466 223.912C188.901 223.918 197.016 220.682 203.14 214.872C209.264 209.061 212.931 201.118 213.383 192.68C213.406 193.247 213.428 193.815 213.428 194.382Z" fill="#E24028"/>
</g>
<defs>
<clipPath id="clip0_1481_3594">
<rect width="361" height="522" fill="white"/>
</clipPath>
</defs>
</svg>
